<?xml version="1.0" standalone="no"?>
<!DOCTYPE svg PUBLIC "-//W3C//DTD SVG 1.1//EN" "http://www.w3.org/Graphics/SVG/1.1/DTD/svg11.dtd" >
<svg>
<metadata>
Created by FontForge 20090622 at Thu Jun 30 13:00:37 2016
 By deploy user
Copyright (c) VOLVO 1997
</metadata>
<defs>
<font id="VolvoBroad" horiz-adv-x="729" >
  <font-face 
    font-family="VolvoBroad"
    font-weight="400"
    font-stretch="normal"
    units-per-em="2048"
    panose-1="2 11 8 6 2 1 2 6 1 1"
    ascent="1792"
    descent="-256"
    x-height="1366"
    cap-height="1366"
    bbox="-157 -280 1677 1792"
    underline-thickness="100"
    underline-position="-154"
    unicode-range="U+0020-U+E002"
  />
<missing-glyph horiz-adv-x="1024" 
d="M128 0v1792h768v-1792h-768zM256 128h512v1536h-512v-1536z" />
    <glyph glyph-name=".notdef" horiz-adv-x="1024" 
d="M128 0v1792h768v-1792h-768zM256 128h512v1536h-512v-1536z" />
    <glyph glyph-name="space" unicode=" " horiz-adv-x="387" 
 />
    <glyph glyph-name="exclam" unicode="!" horiz-adv-x="352" 
d="M295 1278l-8 -840q-1 -84 -62 -84h-86q-41 0 -56 22q-11 17 -11 62l-15 842q-1 86 64 86h108q67 0 66 -88zM295 92q0 -53 -10 -70q-13 -22 -54 -22h-106q-41 0 -53 22q-11 17 -11 70v58q0 53 11 70q12 22 53 22h106q41 0 54 -22q10 -17 10 -70v-58z" />
    <glyph glyph-name="quotedbl" unicode="&#x22;" horiz-adv-x="512" 
d="M498 1309l-39 -275q-6 -43 -45 -43h-41q-39 0 -45 43l-41 275q-9 57 43 57h129q47 0 39 -57zM225 1309l-41 -275q-6 -43 -45 -43h-41q-39 0 -45 43l-39 275q-8 57 39 57h129q52 0 43 -57z" />
    <glyph glyph-name="numbersign" unicode="#" horiz-adv-x="1307" 
d="M1307 913l-19 -61q-15 -51 -55 -51h-246l-76 -234h236q41 0 41 -29q0 -9 -4 -22l-19 -59q-16 -54 -55 -54h-250l-117 -366q-11 -37 -67 -37h-62q-46 0 -46 33q0 8 3 18l113 352h-240l-116 -366q-12 -37 -68 -37h-61q-47 0 -47 33q0 8 4 18l112 352h-231q-40 0 -40 31
q0 10 3 23l18 59q16 51 56 51h245l74 234h-233q-41 0 -41 29q0 9 4 22l18 59q17 54 56 54h249l119 370q12 37 66 37h61q47 0 47 -33q0 -9 -4 -20l-112 -354h239l119 370q12 37 66 37h63q45 0 45 -32q0 -9 -4 -21l-113 -354h232q40 0 40 -29q0 -10 -3 -23zM811 801h-242
l-73 -234h239z" />
    <glyph glyph-name="dollar" unicode="$" horiz-adv-x="604" 
d="M571 254q0 -201 -200 -201v-107q0 -37 -12 -41q-5 -2 -15 -2h-98q-27 0 -27 39v111h-131q-34 0 -47.5 14t-13.5 64v66q0 60 22 72q12 5 37 5h195q50 0 50 49q0 22 -12 44l-210 401q-89 168 -89 313q0 215 199 228v102q0 39 29 39h94q17 0 23 -6t6 -27v-108h98
q53 0 53 -68v-82q0 -72 -59 -72h-166q-59 0 -59 -54q0 -26 16 -56l203 -373q114 -211 114 -350z" />
    <glyph glyph-name="percent" unicode="%" horiz-adv-x="1137" 
d="M500 1020q0 -215 -53 -301t-191 -86q-137 0 -190.5 86.5t-53.5 300.5q0 201 45 277q51 87 199 87t199 -87q45 -76 45 -277zM842 1327l-412 -1300q-10 -30 -35 -30h-67q-38 0 -38 20q0 9 5 26l403 1292q11 33 45 33h62q40 0 40 -22q0 -8 -3 -19zM1124 360q0 -214 -52 -299
q-54 -87 -191 -87q-138 0 -192 87q-52 85 -52 299q0 202 44 277q52 88 200 88q147 0 199 -88q44 -75 44 -277zM315 1010q0 147 -7 177q-9 38 -50 38q-42 0 -52 -38q-9 -34 -9 -177q0 -156 -3 -130q9 -92 64 -92q53 0 60 93q-3 -37 -3 129zM940 350q0 147 -7 178
q-9 37 -50 37q-42 0 -52 -36t-10 -179q0 -155 -2 -130q8 -91 64 -91q53 0 60 93q-3 -37 -3 128z" />
    <glyph glyph-name="ampersand" unicode="&#x26;" horiz-adv-x="807" 
d="M797 653q0 -65 -60 -65h-43v-207q0 -239 -54 -310q-63 -82 -282 -82q-201 0 -268 104q-55 86 -55 329q0 160 29 227q27 60 96 78q-59 23 -84 82q-31 76 -31 254q0 196 78 261q50 42 172 42h303q72 0 72 -68v-108q0 -66 -80 -66h-232q-79 0 -79 -69v-142q0 -79 83 -79h91
v38q0 64 61 64h117q63 0 63 -62v-43h39q64 0 64 -61v-117zM453 324v268h-115q-59 0 -59 -70v-203q0 -88 86 -88q88 0 88 93z" />
    <glyph glyph-name="quotesingle" unicode="'" horiz-adv-x="238" 
d="M223 1309l-41 -275q-6 -43 -45 -43h-41q-39 0 -45 43l-37 275q-7 57 39 57h129q50 0 41 -57z" />
    <glyph glyph-name="parenleft" unicode="(" horiz-adv-x="332" 
d="M299 -85q6 -43 -2 -53.5t-41 -10.5h-59q-36 0 -49 15q-11 11 -19 51q-90 421 -90 747q0 325 90 748q8 39 19 50q13 16 49 16h59q33 0 41 -11t2 -54q-47 -342 -47 -749q0 -408 47 -749z" />
    <glyph glyph-name="parenright" unicode=")" horiz-adv-x="332" 
d="M293 664q0 -326 -90 -747q-9 -40 -19 -51q-13 -15 -49 -15h-59q-33 0 -41 10.5t-2 53.5q47 341 47 749q0 407 -47 749q-6 43 2 54t41 11h59q36 0 49 -16q10 -11 19 -50q90 -423 90 -748z" />
    <glyph glyph-name="asterisk" unicode="*" horiz-adv-x="430" 
d="M424 1032l-14 -22q-14 -28 -50 -4l-112 73l8 -139q2 -35 -27 -35h-28q-32 0 -29 35l10 139l-116 -78q-29 -18 -43 7l-15 24q-15 28 15 43l127 62l-127 63q-31 16 -17 41l14 25q16 26 46 6l116 -80l-10 139q-3 39 29 39h26q31 0 29 -41l-8 -137l114 78q31 20 48 -6l14 -23
q16 -26 -23 -45l-120 -59l122 -60q38 -18 21 -45z" />
    <glyph glyph-name="plus" unicode="+" horiz-adv-x="881" 
d="M866 653q0 -78 -65 -78h-230v-235q0 -64 -82 -64h-104q-78 0 -78 66v233h-227q-66 0 -66 78v105q0 70 37 79q11 3 27 3h229v223q0 65 78 65h104q70 0 80 -36q2 -11 2 -27v-225h232q63 0 63 -82v-105z" />
    <glyph glyph-name="comma" unicode="," horiz-adv-x="287" 
d="M264 86q0 -38 -22 -97l-39 -105q-16 -41 -43 -41h-99q-35 0 -20 35l37 88q14 34 -10 34h-13q-32 0 -32 51v99q0 53 10 70q12 22 53 22h115q40 0 53 -22q10 -17 10 -70v-64z" />
    <glyph glyph-name="hyphen" unicode="-" horiz-adv-x="432" 
d="M412 672q0 -49 -12.5 -66.5t-53.5 -17.5h-260q-41 0 -53.5 18t-12.5 66v102q0 49 12.5 66.5t53.5 17.5h260q42 0 54 -18t12 -66v-102z" />
    <glyph glyph-name="hyphen" unicode="&#x2010;" horiz-adv-x="432" 
d="M412 672q0 -49 -12.5 -66.5t-53.5 -17.5h-260q-41 0 -53.5 18t-12.5 66v102q0 49 12.5 66.5t53.5 17.5h260q42 0 54 -18t12 -66v-102z" />
    <glyph glyph-name="period" unicode="." horiz-adv-x="287" 
d="M264 92q0 -53 -10 -70q-13 -22 -53 -22h-115q-41 0 -53 22q-10 17 -10 70v58q0 53 10 70q12 22 53 22h115q40 0 53 -22q10 -17 10 -70v-58z" />
    <glyph glyph-name="slash" unicode="/" horiz-adv-x="393" 
d="M379 1352l-213 -1350q-7 -42 -39 -42h-92q-29 0 -21 50l213 1350q7 43 39 43h92q29 0 21 -51z" />
    <glyph glyph-name="zero" unicode="0" horiz-adv-x="713" 
d="M678 682q0 -438 -56 -565q-59 -134 -266 -134q-206 0 -266 134q-55 127 -55 565t55 564q59 134 266 134t266 -134q56 -126 56 -564zM438 682q0 308 -13 377q-13 65 -69 65t-68 -65q-14 -69 -14 -377q0 -306 14 -375q12 -65 68 -65t69 65q13 69 13 375z" />
    <glyph glyph-name="one" unicode="1" horiz-adv-x="412" 
d="M348 88q0 -57 -14 -72.5t-58 -15.5h-102q-45 0 -57 21q-11 18 -11 67v993q0 27 -4.5 35t-19.5 8h-14q-34 0 -42 26q-3 10 -3 54v70q0 80 40 89q15 3 43 3h175q45 0 57 -22q10 -18 10 -68v-1188z" />
    <glyph glyph-name="two" unicode="2" horiz-adv-x="586" 
d="M571 84q0 -69 -38 -80q-13 -4 -35 -4h-422q-50 0 -61 30q-7 18 -7 58v121q0 113 37 186l211 418q53 106 53 195q0 116 -78 116h-116q-69 0 -76 41q-2 15 -2 43v74q0 60 22 74q14 10 47 10h242q122 0 164 -84q39 -78 39 -274q0 -133 -64 -260l-231 -465q-20 -41 14 -41
h236q65 0 65 -78v-80z" />
    <glyph glyph-name="three" unicode="3" horiz-adv-x="578" 
d="M557 393q0 -216 -57.5 -304.5t-198.5 -88.5h-227q-46 0 -58 19q-10 16 -10 65v70q0 65 26 80q14 8 42 8h162q35 0 49 12q28 23 28 149q0 152 -65 152h-111q-33 0 -45 12q-16 15 -16 74v80q0 60 37 88l147 113q54 41 54 110q0 92 -66 92h-166q-45 0 -57 19q-11 16 -11 59
v74q0 49 11 67q12 23 57 23h237q121 0 171 -66q57 -75 57 -270q0 -219 -121 -276q57 -48 80 -82q51 -77 51 -279z" />
    <glyph glyph-name="four" unicode="4" horiz-adv-x="723" 
d="M715 414q0 -66 -39 -66h-29q-31 0 -31 -49v-217q0 -62 -25 -75q-14 -7 -42 -7h-109q-41 0 -53 16.5t-12 65.5v221q0 28 -7.5 36.5t-37.5 8.5h-252q-66 0 -66 80v125q0 57 127 383q121 311 170 393q22 37 82 37h160q67 0 67 -88v-649q0 -41 29 -41h25q43 0 43 -74v-100z
M375 639v281q0 24 -13 24q-9 0 -14 -14l-92 -293q-15 -49 12 -49h78q29 0 29 51z" />
    <glyph glyph-name="five" unicode="5" horiz-adv-x="582" 
d="M569 422q0 -224 -55.5 -323t-179.5 -99h-250q-58 0 -66 36q-4 17 -4 52v70q0 69 30 79q13 5 40 5h160q75 0 75 186q0 188 -75 188h-140q-71 0 -71 62v594q0 94 67 94h383q68 0 68 -88v-70q0 -84 -64 -84h-182q-17 0 -23 -5q-8 -8 -8 -38v-186q0 -37 27 -37h41
q107 0 158 -72q69 -97 69 -364z" />
    <glyph glyph-name="six" unicode="6" horiz-adv-x="672" 
d="M651 479q0 -280 -47 -383q-49 -105 -256 -105q-135 0 -192 22q-52 20 -88 79q-48 76 -48 412q0 212 19 312q27 148 119 294l139 223q20 33 47 33h205q34 0 34 -29q0 -15 -14 -39l-235 -391q39 17 94 17q112 0 166 -66q57 -70 57 -379zM408 334v260q0 61 -27 72
q-15 6 -47 6q-44 0 -58 -21q-12 -16 -12 -65v-250q0 -74 33 -88q15 -6 43 -6q68 0 68 92z" />
    <glyph glyph-name="seven" unicode="7" horiz-adv-x="590" 
d="M580 1122q0 -54 -15 -112l-231 -947q-16 -63 -66 -63h-137q-50 0 -49 49q1 22 8 49l240 936q12 48 12 68q0 22 -27 22h-231q-63 0 -71 39q-3 16 -3 47v72q0 61 21 75q14 9 49 9h434q66 0 66 -86v-158z" />
    <glyph glyph-name="eight" unicode="8" horiz-adv-x="694" 
d="M670 420q0 -240 -56 -327q-67 -102 -268 -102q-200 0 -267 102q-54 86 -54 327q0 152 27 227t93 105q-106 34 -106 286q0 191 54 258q63 78 253 78q191 0 255 -78q54 -67 54 -258q0 -252 -106 -286q66 -30 93.5 -105t27.5 -227zM418 938v102q0 48 -15.5 66t-58.5 18
q-76 0 -76 -82v-104q0 -48 15 -65t61 -17q74 0 74 82zM418 301v215q0 51 -16 64.5t-60 13.5q-45 0 -58.5 -17.5t-13.5 -62.5v-215q0 -57 76 -57q72 0 72 59z" />
    <glyph glyph-name="nine" unicode="9" horiz-adv-x="672" 
d="M651 879q0 -194 -17 -303q-25 -164 -99 -285l-158 -258q-20 -33 -47 -33h-205q-33 0 -33 29q0 18 12 39l238 393q-36 -21 -98 -21q-111 0 -166 66q-58 68 -58 379q0 280 48.5 384.5t255.5 104.5q127 0 187 -23q54 -21 93 -79q47 -69 47 -393zM408 778v250q0 52 -13 71
q-17 23 -65 23q-68 0 -68 -92v-260q0 -61 27 -72q15 -6 47 -6q44 0 59 20q13 17 13 66z" />
    <glyph glyph-name="colon" unicode=":" horiz-adv-x="287" 
d="M264 631q0 -53 -10 -71q-13 -21 -53 -21h-115q-41 0 -53 21q-10 18 -10 71v57q0 53 11 72.5t52 19.5h115q40 0 53 -21q10 -18 10 -71v-57zM264 92q0 -53 -10 -70q-13 -22 -53 -22h-115q-41 0 -53 22q-10 17 -10 70v58q0 53 10 70q12 22 53 22h115q40 0 53 -22
q10 -17 10 -70v-58z" />
    <glyph glyph-name="semicolon" unicode=";" horiz-adv-x="287" 
d="M264 631q0 -53 -10 -71q-13 -21 -53 -21h-115q-41 0 -53 21q-10 18 -10 71v57q0 53 11 72.5t52 19.5h115q40 0 53 -21q10 -18 10 -71v-57zM264 86q0 -38 -22 -97l-39 -105q-16 -41 -43 -41h-99q-35 0 -20 35l37 88q14 34 -10 34h-13q-32 0 -32 51v99q0 53 10 70
q12 22 53 22h115q40 0 53 -22q10 -17 10 -70v-64z" />
    <glyph glyph-name="equal" unicode="=" horiz-adv-x="770" 
d="M750 625q0 -54 -11 -71q-12 -22 -53 -22h-602q-41 0 -53 22q-11 17 -11 71v57q0 53 11.5 72.5t52.5 19.5h602q41 0 52.5 -19.5t11.5 -72.5v-57zM750 258q0 -53 -11 -71q-12 -21 -53 -21h-602q-41 0 -53 21q-11 18 -11 71v57q0 54 11 71q12 22 53 22h602q41 0 53 -22
q11 -17 11 -71v-57z" />
    <glyph glyph-name="question" unicode="?" horiz-adv-x="549" 
d="M526 1083q0 -152 -53 -264l-80 -168q-20 -43 -20 -106v-133q0 -60 -64 -60h-102q-53 0 -63 33q-5 15 -5 43v186q0 64 21 107l80 168q45 95 45 158q0 77 -68 77h-135q-68 0 -68 86v70q0 86 68 86h246q110 0 150 -50q48 -59 48 -233zM373 92q0 -53 -11 -70q-12 -22 -53 -22
h-106q-41 0 -53 22q-11 17 -11 70v58q0 53 11 70q12 22 53 22h106q41 0 53 -22q11 -17 11 -70v-58z" />
    <glyph glyph-name="at" unicode="@" horiz-adv-x="991" 
d="M963 788q0 -218 -88 -360t-218 -142q-69 0 -96 79q-55 -77 -129 -77q-75 0 -122 81t-47 196q0 177 64 301q68 134 178 134q54 0 85 -58q16 36 43 36h59q39 0 39 -54q0 -13 -6 -59l-47 -351q-2 -15 -2 -39q0 -37 24 -37q37 0 68 87q36 102 36 267q0 176 -68 277
q-69 105 -197 105q-167 0 -258 -163q-84 -150 -84 -395q0 -464 309 -464q143 0 280 49q11 4 19 4q19 0 28 -29l23 -78q3 -10 6 -22q0 -27 -87 -49q-140 -34 -279 -34q-463 0 -463 623q0 330 128 519q134 198 381 198q206 0 317 -152q104 -144 104 -393zM569 735
q0 119 -53 119q-35 0 -63 -73q-33 -83 -33 -216q0 -127 49 -127q41 0 69 72q31 82 31 225z" />
    <glyph glyph-name="A" unicode="A" horiz-adv-x="760" 
d="M754 31q4 -31 -31 -31h-195q-29 0 -34 37l-39 289q-5 32 -35 32h-86q-31 0 -35 -32l-33 -293q-3 -33 -37 -33h-188q-39 0 -35 31l166 1257q10 78 86 78h238q68 0 79 -80zM430 623l-39 471q-2 30 -16 30t-17 -32l-34 -469q-4 -23 26 -23h51q31 0 29 23z" />
    <glyph glyph-name="B" unicode="B" horiz-adv-x="739" 
d="M711 369q0 -369 -222 -369h-370q-45 0 -57 27q-9 19 -9 63v1188q0 88 66 88h370q121 0 167 -100q36 -77 36 -244q0 -242 -110 -309q129 -51 129 -344zM453 975q0 71 -11 100q-19 49 -75 49h-39q-24 0 -29.5 -9.5t-5.5 -31.5v-215q0 -41 35 -41h39q60 0 77 49q9 24 9 99z
M467 412q0 105 -25 142q-21 32 -75 32h-39q-24 0 -31 -12q-4 -8 -4 -29v-262q0 -41 35 -41h39q70 0 89 54q11 28 11 116z" />
    <glyph glyph-name="C" unicode="C" horiz-adv-x="594" 
d="M588 1202q0 -50 -14.5 -64t-53.5 -14h-155q-60 0 -72 -60q-12 -65 -12 -384q0 -288 -3 -254q12 -184 82 -184h160q66 0 66 -70v-98q0 -74 -62 -74h-243q-155 0 -200.5 125t-45.5 532q0 641 -6 283q3 190 47 292q59 134 194 134h254q64 0 64 -72v-92z" />
    <glyph glyph-name="D" unicode="D" horiz-adv-x="750" 
d="M715 684q0 -306 -19 -441q-21 -146 -77 -198q-49 -45 -162 -45h-332q-52 0 -64 26q-8 17 -8 62v1186q0 92 66 92h350q161 0 208 -154q38 -123 38 -528zM471 664q0 249 -5 321q-6 96 -30 121q-17 18 -80 18q-43 0 -56 -10t-13 -51v-766q0 -38 11.5 -46.5t63.5 -8.5
q56 0 73 18q23 24 30 111q6 74 6 293z" />
    <glyph glyph-name="E" unicode="E" horiz-adv-x="616" 
d="M610 88q0 -88 -69 -88h-418q-48 0 -61 27q-9 19 -9 63v1186q0 90 70 90h405q35 0 48 -11q18 -15 18 -69v-76q0 -68 -30 -80q-13 -6 -36 -6h-200q-28 0 -34 -14q-3 -9 -3 -31v-190q0 -30 5.5 -36.5t31.5 -6.5h102q59 0 59 -70v-104q0 -68 -59 -68h-102q-24 0 -30.5 -7
t-6.5 -24v-286q0 -45 43 -45h203q73 0 73 -88v-66z" />
    <glyph glyph-name="F" unicode="F" horiz-adv-x="588" 
d="M582 1206q0 -82 -64 -82h-188q-27 0 -33 -14q-4 -8 -4 -41v-186q0 -37 26 -37h115q41 0 53 -22q9 -17 9 -60v-72q0 -88 -64 -88h-102q-27 0 -33 -13q-4 -8 -4 -40v-465q0 -86 -60 -86h-114q-50 0 -60 35q-6 17 -6 51v1186q0 71 26 86q14 8 42 8h389q72 0 72 -88v-72z" />
    <glyph glyph-name="G" unicode="G" 
d="M699 401q0 -216 -53 -299q-67 -105 -263 -105q-241 0 -306 166q-44 114 -42 515q2 398 31 513q44 175 203 175h278q44 0 57 -18.5t13 -67.5v-66q0 -90 -64 -90h-147q-68 0 -88 -17q-26 -25 -34 -119q-5 -73 -5 -316v-299q0 -131 108 -131q99 0 99 108v201q0 53 -25 53
h-59q-37 0 -37 64v94q0 47 12 63q15 21 64 21h194q64 0 64 -90v-355z" />
    <glyph glyph-name="H" unicode="H" horiz-adv-x="774" 
d="M721 90q0 -90 -68 -90h-108q-64 0 -64 88v473q0 43 -32 43h-123q-33 0 -33 -43v-473q0 -88 -64 -88h-108q-68 0 -68 90v1188q0 88 68 88h110q62 0 62 -86v-395q0 -39 31 -39h127q30 0 30 39v395q0 86 62 86h110q68 0 68 -88v-1188z" />
    <glyph glyph-name="I" unicode="I" horiz-adv-x="348" 
d="M295 86q0 -49 -11 -66q-13 -20 -57 -20h-102q-39 0 -54 14q-18 16 -18 76v1184q0 92 68 92h110q64 0 64 -92v-1188z" />
    <glyph glyph-name="J" unicode="J" horiz-adv-x="471" 
d="M432 350q0 -151 -47 -237q-61 -113 -207 -113h-100q-52 0 -64 25q-8 16 -8 59v76q0 48 11 63q13 19 55 19h53q65 0 65 90v948q0 52 13.5 69t56.5 17h102q49 0 61 -23q9 -17 9 -61v-932z" />
    <glyph glyph-name="K" unicode="K" horiz-adv-x="768" 
d="M762 1341q0 -12 -6 -24l-203 -393q-10 -19 -12 -39q-2 -13 6 -43l207 -781q5 -21 5 -34q0 -27 -38 -27h-168q-45 0 -57 59l-97 455q-13 64 -24 64q-17 0 -62 -84q-18 -35 -18 -115v-293q0 -49 -11 -66q-13 -20 -57 -20h-102q-39 0 -54 14q-18 16 -18 76v1184q0 92 68 92
h110q64 0 64 -92v-305q0 -21 8 -23q11 -2 23 23l151 319q24 50 33 61q15 17 45 17h182q25 0 25 -25z" />
    <glyph glyph-name="L" unicode="L" horiz-adv-x="569" 
d="M563 88q0 -88 -76 -88h-366q-45 0 -57 22q-11 18 -11 68v1188q0 88 68 88h108q43 0 56 -24q10 -18 10 -64v-993q0 -43 33 -43h166q69 0 69 -86v-68z" />
    <glyph glyph-name="M" unicode="M" horiz-adv-x="954" 
d="M901 88q0 -68 -22 -80q-14 -8 -45 -8h-109q-42 0 -56 23q-10 17 -10 63v555q0 49 -8 49q-9 0 -18 -45l-82 -405q-12 -62 -74 -62q-61 0 -74 62l-81 405q-10 45 -19 45q-8 0 -8 -49v-555q0 -46 -10 -63q-13 -23 -56 -23h-108q-55 0 -64 35q-4 17 -4 53v1194
q0 49 12.5 66.5t53.5 17.5h112q50 0 65.5 -10.5t27.5 -52.5l137 -492q5 -18 16 -18t17 18l137 492q12 42 27 52.5t65 10.5h113q41 0 53 -18t12 -66v-1194z" />
    <glyph glyph-name="N" unicode="N" horiz-adv-x="801" 
d="M748 92q0 -60 -19 -78q-15 -14 -53 -14h-94q-38 0 -52 10.5t-28 52.5l-172 510q-10 29 -23 29q-10 0 -10 -39v-473q0 -90 -64 -90h-106q-74 0 -74 92v1184q0 60 19 77q15 13 53 13h94q38 0 52 -10.5t28 -52.5l172 -508q10 -29 23 -29q10 0 10 39v471q0 90 63 90h107
q74 0 74 -92v-1182z" />
    <glyph glyph-name="O" unicode="O" 
d="M694 686q0 -380 -41 -505q-66 -198 -288 -198q-224 0 -290 198q-40 124 -40 505q0 379 40 500q65 194 290 194q223 0 288 -194q41 -123 41 -500zM455 686q0 284 -13 353q-15 83 -77 83q-64 0 -79 -83q-12 -64 -12 -353q0 -285 13 -357q15 -87 78 -87t78 87q12 66 12 357z
" />
    <glyph glyph-name="P" unicode="P" horiz-adv-x="702" 
d="M696 930q0 -422 -229 -422h-172v-420q0 -56 -14 -72t-52 -16h-110q-52 0 -61 33q-5 17 -5 55v1184q0 94 66 94h315q262 0 262 -436zM455 932q0 118 -16 158q-14 34 -52 34h-59q-33 0 -33 -37v-303q0 -34 31 -34h67q47 0 59 74q3 21 3 108z" />
    <glyph glyph-name="Q" unicode="Q" 
d="M717 -38q19 -20 19 -35q0 -18 -29 -30l-136 -60q-11 -5 -20 -5q-22 0 -53 40l-88 113q-7 0 -23 -1t-25 -1q-222 0 -287 198q-40 124 -40 505q0 379 40 500q65 194 287 194q225 0 290 -194q40 -121 40 -500q0 -253 -11 -356q-18 -166 -79 -246zM455 686q0 281 -14 353
q-15 83 -79 83q-63 0 -78 -83q-12 -66 -12 -353q0 -288 12 -357q16 -87 78 -87q79 0 93 184q0 -5 0 260z" />
    <glyph glyph-name="R" unicode="R" horiz-adv-x="719" 
d="M709 29q0 -29 -37 -29h-160q-45 0 -55 59l-84 492q-3 18 -25 18h-29q-22 0 -22 -18v-465q0 -86 -68 -86h-110q-48 0 -59 30q-7 19 -7 58v1186q0 92 70 92h293q280 0 280 -422q0 -213 -110 -307l119 -582q4 -20 4 -26zM459 975q0 149 -70 149h-65q-27 0 -27 -28v-248
q0 -37 20 -37h68q74 0 74 164z" />
    <glyph glyph-name="S" unicode="S" horiz-adv-x="618" 
d="M608 219q0 -219 -219 -219h-305q-42 0 -55 18t-13 66v72q0 64 22 77q13 9 44 9h211q55 0 55 54q0 23 -12 46l-232 436q-94 178 -94 340q0 136 63 194q59 54 191 54h234q57 0 57 -74v-90q0 -78 -63 -78h-183q-63 0 -63 -58q0 -30 18 -62l219 -404q125 -230 125 -381z" />
    <glyph glyph-name="T" unicode="T" horiz-adv-x="645" 
d="M639 1208q0 -71 -37 -81q-10 -3 -27 -3h-106q-27 0 -27 -41v-993q0 -52 -12 -71t-53 -19h-107q-56 0 -65 40q-4 16 -4 44v999q0 41 -27 41h-106q-33 0 -46 12q-16 15 -16 70v70q0 68 26 82q14 8 42 8h499q66 0 66 -82v-76z" />
    <glyph glyph-name="U" unicode="U" horiz-adv-x="741" 
d="M700 389q0 -196 -57 -287q-77 -119 -276 -119q-193 0 -265 103q-61 87 -61 293v897q0 48 12 67q16 23 60 23h108q41 0 53 -24q9 -16 9 -60v-934q0 -106 90 -106q86 0 86 108v932q0 49 12 66.5t53 17.5h113q49 0 58 -30q5 -17 5 -54v-893z" />
    <glyph glyph-name="V" unicode="V" horiz-adv-x="745" 
d="M739 1311l-202 -1256q-9 -55 -56 -55h-217q-46 0 -55 55l-203 1256q-8 55 37 55h158q47 0 55 -66l98 -778q4 -30 19 -30q14 0 18 30l98 778q9 66 56 66h157q46 0 37 -55z" />
    <glyph glyph-name="W" unicode="W" horiz-adv-x="1132" 
d="M1123 1292l-213 -1233q-10 -59 -58 -59h-159q-33 0 -44 14q-9 11 -14 47l-57 457q-3 25 -10 25q-9 0 -15 -23l-112 -479q-10 -41 -56 -41h-133q-43 0 -51 51l-192 1239q-3 16 -3 29q0 47 54 47h139q41 0 49 -59l97 -666q3 -27 18 -27q10 0 16 27l92 393l-28 258
q-8 74 51 74h143q44 0 52 -59l79 -664q4 -29 17 -29t16 29l82 670q7 53 47 53h150q46 0 46 -42q0 -13 -3 -32z" />
    <glyph glyph-name="X" unicode="X" horiz-adv-x="701" 
d="M690 76q17 -76 -32 -76h-160q-47 0 -55 51l-74 424q-4 25 -19 25q-14 0 -18 -25l-74 -424q-9 -51 -55 -51h-160q-48 0 -33 76l136 633l-136 583q-4 19 -4 32q0 42 45 42h156q43 0 53 -55l74 -385q5 -27 16 -27q12 0 17 27l74 385q10 55 53 55h155q46 0 46 -42
q0 -13 -5 -32l-137 -583z" />
    <glyph glyph-name="Y" unicode="Y" horiz-adv-x="705" 
d="M698 1294l-225 -772v-434q0 -56 -14 -72t-53 -16h-107q-45 0 -57 21q-11 18 -11 67v434l-225 772q-20 72 37 72h137q42 0 53 -49l105 -445q7 -22 14 -22t15 22l104 445q12 49 53 49h138q57 0 36 -72z" />
    <glyph glyph-name="Z" unicode="Z" horiz-adv-x="637" 
d="M621 84q0 -69 -38 -80q-14 -4 -36 -4h-465q-43 0 -56 21q-10 17 -10 61v154q0 69 33 141l326 710q17 37 -17 37h-256q-47 0 -60 21q-7 13 -7 63v72q0 53 12 69.5t53 16.5h457q61 0 61 -80v-172q0 -41 -28 -104l-326 -719q-22 -49 19 -49h272q37 0 51.5 -16.5t14.5 -71.5
v-70z" />
    <glyph glyph-name="backslash" unicode="\" horiz-adv-x="385" 
d="M375 10q8 -50 -21 -50h-92q-32 0 -39 42l-213 1350q-8 51 21 51h92q32 0 39 -43z" />
    <glyph glyph-name="grave" unicode="`" horiz-adv-x="322" 
d="M334 1435q0 -18 -23 -18h-127q-23 0 -45 19l-140 120q-20 18 -20 33q0 27 27 27h180q20 0 45 -33l93 -121q10 -14 10 -27z" />
    <glyph glyph-name="a" unicode="a" horiz-adv-x="760" 
d="M754 31q4 -31 -31 -31h-195q-29 0 -34 37l-39 289q-5 32 -35 32h-86q-31 0 -35 -32l-33 -293q-3 -33 -37 -33h-188q-39 0 -35 31l166 1257q10 78 86 78h238q68 0 79 -80zM430 623l-39 471q-2 30 -16 30t-17 -32l-34 -469q-4 -23 26 -23h51q31 0 29 23z" />
    <glyph glyph-name="b" unicode="b" horiz-adv-x="739" 
d="M711 369q0 -369 -222 -369h-370q-45 0 -57 27q-9 19 -9 63v1188q0 88 66 88h370q121 0 167 -100q36 -77 36 -244q0 -242 -110 -309q129 -51 129 -344zM453 975q0 71 -11 100q-19 49 -75 49h-39q-24 0 -29.5 -9.5t-5.5 -31.5v-215q0 -41 35 -41h39q60 0 77 49q9 24 9 99z
M467 412q0 105 -25 142q-21 32 -75 32h-39q-24 0 -31 -12q-4 -8 -4 -29v-262q0 -41 35 -41h39q70 0 89 54q11 28 11 116z" />
    <glyph glyph-name="c" unicode="c" horiz-adv-x="594" 
d="M588 1202q0 -50 -14.5 -64t-53.5 -14h-155q-60 0 -72 -60q-12 -65 -12 -384q0 -288 -3 -254q12 -184 82 -184h160q66 0 66 -70v-98q0 -74 -62 -74h-243q-154 0 -200 125t-46 532q0 641 -6 283q3 190 47 292q59 134 194 134h254q64 0 64 -72v-92z" />
    <glyph glyph-name="d" unicode="d" horiz-adv-x="750" 
d="M715 684q0 -306 -19 -441q-21 -146 -77 -198q-49 -45 -162 -45h-332q-52 0 -64 26q-8 17 -8 62v1186q0 92 66 92h350q161 0 208 -154q38 -123 38 -528zM471 664q0 249 -5 321q-6 96 -30 121q-17 18 -80 18q-43 0 -56 -10t-13 -51v-766q0 -38 11.5 -46.5t63.5 -8.5
q56 0 73 18q23 24 30 111q6 74 6 293z" />
    <glyph glyph-name="e" unicode="e" horiz-adv-x="616" 
d="M610 88q0 -88 -69 -88h-418q-48 0 -61 27q-9 19 -9 63v1186q0 90 70 90h405q35 0 48 -11q18 -15 18 -69v-76q0 -68 -30 -80q-13 -6 -36 -6h-200q-28 0 -34 -14q-3 -9 -3 -31v-190q0 -30 5.5 -36.5t31.5 -6.5h102q59 0 59 -70v-104q0 -68 -59 -68h-102q-24 0 -30.5 -7
t-6.5 -24v-286q0 -45 43 -45h203q73 0 73 -88v-66z" />
    <glyph glyph-name="f" unicode="f" horiz-adv-x="588" 
d="M582 1206q0 -82 -64 -82h-188q-27 0 -33 -14q-4 -8 -4 -41v-186q0 -37 26 -37h115q41 0 53 -22q9 -17 9 -60v-72q0 -88 -64 -88h-102q-27 0 -33 -13q-4 -8 -4 -40v-465q0 -86 -60 -86h-114q-50 0 -60 35q-6 17 -6 51v1186q0 71 26 86q14 8 42 8h389q72 0 72 -88v-72z" />
    <glyph glyph-name="g" unicode="g" 
d="M699 401q0 -216 -53 -299q-67 -105 -263 -105q-241 0 -306 166q-44 114 -42 515q2 398 31 513q44 175 203 175h278q44 0 57 -18.5t13 -67.5v-66q0 -90 -64 -90h-147q-68 0 -88 -17q-26 -25 -34 -119q-5 -73 -5 -316v-299q0 -131 108 -131q99 0 99 108v201q0 53 -25 53
h-59q-37 0 -37 64v94q0 47 12 63q15 21 64 21h194q64 0 64 -90v-355z" />
    <glyph glyph-name="h" unicode="h" horiz-adv-x="774" 
d="M721 90q0 -90 -68 -90h-108q-64 0 -64 88v473q0 43 -32 43h-123q-33 0 -33 -43v-473q0 -88 -64 -88h-108q-68 0 -68 90v1188q0 88 68 88h110q62 0 62 -86v-395q0 -39 31 -39h127q30 0 30 39v395q0 86 62 86h110q68 0 68 -88v-1188z" />
    <glyph glyph-name="i" unicode="i" horiz-adv-x="348" 
d="M295 86q0 -49 -11 -66q-13 -20 -57 -20h-102q-39 0 -54 14q-18 16 -18 76v1184q0 92 68 92h110q64 0 64 -92v-1188z" />
    <glyph glyph-name="j" unicode="j" horiz-adv-x="471" 
d="M432 350q0 -151 -47 -237q-61 -113 -207 -113h-100q-52 0 -64 25q-8 16 -8 59v76q0 48 11 63q13 19 55 19h53q65 0 65 90v948q0 52 13.5 69t56.5 17h102q49 0 61 -23q9 -17 9 -61v-932z" />
    <glyph glyph-name="k" unicode="k" horiz-adv-x="768" 
d="M762 1341q0 -12 -6 -24l-203 -393q-10 -19 -12 -39q-2 -13 6 -43l207 -781q5 -21 5 -34q0 -27 -38 -27h-168q-45 0 -57 59l-97 455q-13 64 -24 64q-17 0 -62 -84q-18 -35 -18 -115v-293q0 -49 -11 -66q-13 -20 -57 -20h-102q-39 0 -54 14q-18 16 -18 76v1184q0 92 68 92
h110q64 0 64 -92v-305q0 -21 8 -23q11 -2 23 23l151 319q24 50 33 61q15 17 45 17h182q25 0 25 -25z" />
    <glyph glyph-name="l" unicode="l" horiz-adv-x="569" 
d="M563 88q0 -88 -76 -88h-366q-45 0 -57 22q-11 18 -11 68v1188q0 88 68 88h108q43 0 56 -24q10 -18 10 -64v-993q0 -43 33 -43h166q69 0 69 -86v-68z" />
    <glyph glyph-name="m" unicode="m" horiz-adv-x="954" 
d="M901 88q0 -68 -22 -80q-14 -8 -45 -8h-109q-42 0 -56 23q-10 17 -10 63v555q0 49 -8 49q-9 0 -18 -45l-82 -405q-12 -62 -74 -62q-61 0 -74 62l-81 405q-10 45 -19 45q-8 0 -8 -49v-555q0 -46 -10 -63q-13 -23 -56 -23h-108q-55 0 -64 35q-4 17 -4 53v1194
q0 49 12.5 66.5t53.5 17.5h112q50 0 65.5 -10.5t27.5 -52.5l137 -492q5 -18 16 -18t17 18l137 492q12 42 27 52.5t65 10.5h113q41 0 53 -18t12 -66v-1194z" />
    <glyph glyph-name="n" unicode="n" horiz-adv-x="801" 
d="M748 92q0 -60 -19 -78q-15 -14 -53 -14h-94q-38 0 -52 10.5t-28 52.5l-172 510q-10 29 -23 29q-10 0 -10 -39v-473q0 -90 -64 -90h-106q-74 0 -74 92v1184q0 60 19 77q15 13 53 13h94q38 0 52 -10.5t28 -52.5l172 -508q10 -29 23 -29q10 0 10 39v471q0 90 63 90h107
q74 0 74 -92v-1182z" />
    <glyph glyph-name="o" unicode="o" 
d="M694 686q0 -380 -41 -505q-66 -198 -288 -198q-224 0 -290 198q-40 124 -40 505q0 379 40 500q65 194 290 194q223 0 288 -194q41 -123 41 -500zM455 686q0 284 -13 353q-15 83 -77 83q-64 0 -79 -83q-12 -64 -12 -353q0 -285 13 -357q15 -87 78 -87t78 87q12 66 12 357z
" />
    <glyph glyph-name="p" unicode="p" horiz-adv-x="702" 
d="M696 930q0 -422 -229 -422h-172v-420q0 -56 -14 -72t-52 -16h-110q-52 0 -61 33q-5 17 -5 55v1184q0 94 66 94h315q262 0 262 -436zM455 932q0 118 -16 158q-14 34 -52 34h-59q-33 0 -33 -37v-303q0 -34 31 -34h67q47 0 59 74q3 21 3 108z" />
    <glyph glyph-name="q" unicode="q" 
d="M717 -38q19 -20 19 -35q0 -18 -29 -30l-136 -60q-11 -5 -20 -5q-22 0 -53 40l-88 113q-7 0 -23 -1t-25 -1q-222 0 -287 198q-40 124 -40 505q0 379 40 500q65 194 287 194q225 0 290 -194q40 -121 40 -500q0 -253 -11 -356q-18 -166 -79 -246zM455 686q0 281 -14 353
q-15 83 -79 83q-63 0 -78 -83q-12 -66 -12 -353q0 -288 12 -357q16 -87 78 -87q79 0 93 184q0 -5 0 260z" />
    <glyph glyph-name="r" unicode="r" horiz-adv-x="719" 
d="M709 29q0 -29 -37 -29h-160q-45 0 -55 59l-84 492q-3 18 -25 18h-29q-22 0 -22 -18v-465q0 -86 -68 -86h-110q-48 0 -59 30q-7 19 -7 58v1186q0 92 70 92h293q280 0 280 -422q0 -213 -110 -307l119 -582q4 -20 4 -26zM459 975q0 149 -70 149h-65q-27 0 -27 -28v-248
q0 -37 20 -37h68q74 0 74 164z" />
    <glyph glyph-name="s" unicode="s" horiz-adv-x="618" 
d="M608 219q0 -219 -219 -219h-305q-42 0 -55 18t-13 66v72q0 64 22 77q13 9 44 9h211q55 0 55 54q0 23 -12 46l-232 436q-94 178 -94 340q0 136 63 194q59 54 191 54h234q57 0 57 -74v-90q0 -78 -63 -78h-183q-63 0 -63 -58q0 -30 18 -62l219 -404q125 -230 125 -381z" />
    <glyph glyph-name="t" unicode="t" horiz-adv-x="645" 
d="M639 1208q0 -71 -37 -81q-10 -3 -27 -3h-106q-27 0 -27 -41v-993q0 -52 -12 -71t-53 -19h-107q-56 0 -65 40q-4 16 -4 44v999q0 41 -27 41h-106q-33 0 -46 12q-16 15 -16 70v70q0 68 26 82q14 8 42 8h499q66 0 66 -82v-76z" />
    <glyph glyph-name="u" unicode="u" horiz-adv-x="741" 
d="M700 389q0 -196 -57 -287q-77 -119 -276 -119q-193 0 -265 103q-61 87 -61 293v897q0 48 12 67q16 23 60 23h108q41 0 53 -24q9 -16 9 -60v-934q0 -106 90 -106q86 0 86 108v932q0 49 12 66.5t53 17.5h113q49 0 58 -30q5 -17 5 -54v-893z" />
    <glyph glyph-name="v" unicode="v" horiz-adv-x="745" 
d="M739 1311l-202 -1256q-9 -55 -56 -55h-217q-46 0 -55 55l-203 1256q-8 55 37 55h158q47 0 55 -66l98 -778q4 -30 19 -30q14 0 18 30l98 778q9 66 56 66h157q46 0 37 -55z" />
    <glyph glyph-name="w" unicode="w" horiz-adv-x="1132" 
d="M1123 1292l-213 -1233q-10 -59 -58 -59h-159q-33 0 -44 14q-9 11 -14 47l-57 457q-3 25 -10 25q-9 0 -15 -23l-112 -479q-10 -41 -56 -41h-133q-43 0 -51 51l-192 1239q-3 16 -3 29q0 47 54 47h139q41 0 49 -59l97 -666q3 -27 18 -27q10 0 16 27l92 393l-28 258
q-8 74 51 74h143q44 0 52 -59l79 -664q4 -29 17 -29t16 29l82 670q7 53 47 53h150q46 0 46 -42q0 -13 -3 -32z" />
    <glyph glyph-name="x" unicode="x" horiz-adv-x="701" 
d="M690 76q17 -76 -32 -76h-160q-47 0 -55 51l-74 424q-4 25 -19 25q-14 0 -18 -25l-74 -424q-9 -51 -55 -51h-160q-48 0 -33 76l136 633l-136 583q-4 19 -4 32q0 42 45 42h156q43 0 53 -55l74 -385q5 -27 16 -27q12 0 17 27l74 385q10 55 53 55h155q46 0 46 -42
q0 -13 -5 -32l-137 -583z" />
    <glyph glyph-name="y" unicode="y" horiz-adv-x="705" 
d="M698 1294l-225 -772v-434q0 -56 -14 -72t-53 -16h-107q-45 0 -57 21q-11 18 -11 67v434l-225 772q-20 72 37 72h137q42 0 53 -49l105 -445q7 -22 14 -22t15 22l104 445q12 49 53 49h138q57 0 36 -72z" />
    <glyph glyph-name="z" unicode="z" horiz-adv-x="637" 
d="M621 84q0 -69 -38 -80q-14 -4 -36 -4h-465q-43 0 -56 21q-10 17 -10 61v154q0 69 33 141l326 710q17 37 -17 37h-256q-47 0 -60 21q-7 13 -7 63v72q0 53 12 69.5t53 16.5h457q61 0 61 -80v-172q0 -41 -28 -104l-326 -719q-22 -49 19 -49h272q37 0 51.5 -16.5t14.5 -71.5
v-70z" />
    <glyph glyph-name="asciitilde" unicode="~" horiz-adv-x="1335" 
d="M1335 741q0 -44 -9.5 -61t-47.5 -33q-156 -65 -356 -65q-131 0 -290 61.5t-278 61.5q-116 0 -297 -87q-13 -6 -24 -6q-33 0 -33 43v84q0 41 9.5 56t47.5 36q149 82 310 82q118 0 275.5 -60t291.5 -60q173 0 344 73q14 6 26 6q31 0 31 -41v-90z" />
    <glyph glyph-name="Adieresis" unicode="&#xc4;" horiz-adv-x="760" 
d="M754 31q4 -31 -31 -31h-195q-29 0 -34 37l-39 289q-5 32 -35 32h-86q-31 0 -35 -32l-33 -293q-3 -33 -37 -33h-188q-39 0 -35 31l166 1257q10 78 86 78h238q68 0 79 -80zM430 623l-39 471q-2 30 -16 30t-17 -32l-34 -469q-4 -23 26 -23h51q31 0 29 23zM596 1480
q0 -63 -64 -63h-59q-64 0 -64 63v79q0 63 64 63h59q64 0 64 -63v-79zM348 1480q0 -63 -64 -63h-59q-64 0 -64 63v79q0 63 64 63h59q64 0 64 -63v-79z" />
    <glyph glyph-name="Aring" unicode="&#xc5;" horiz-adv-x="760" 
d="M754 31q4 -31 -31 -31h-195q-29 0 -34 37l-39 289q-5 32 -35 32h-86q-31 0 -35 -32l-33 -293q-3 -33 -37 -33h-188q-39 0 -35 31l166 1257q9 68 66 76q-31 47 -31 92q0 77 46.5 126.5t117.5 49.5q70 0 115.5 -50t45.5 -128q0 -50 -28 -89q61 -5 71 -79zM436 1452
q0 80 -65 80q-66 0 -66 -78t66 -78q65 0 65 76zM430 623l-39 471q-2 30 -16 30t-17 -32l-34 -469q-4 -23 26 -23h51q31 0 29 23z" />
    <glyph glyph-name="Ccedilla" unicode="&#xc7;" horiz-adv-x="594" 
d="M588 1202q0 -50 -14.5 -64t-53.5 -14h-155q-60 0 -72 -60q-12 -65 -12 -384q0 -288 -3 -254q12 -184 82 -184h160q66 0 66 -70v-98q0 -74 -62 -74h-116q18 -65 18 -112q0 -168 -107 -168h-73q-61 0 -69 36q-3 15 -3 46v45q0 44 24 56q17 8 56 8h43q27 0 27 31
q0 13 -13 58h-30q-155 0 -200.5 125t-45.5 532q0 641 -6 283q3 190 47 292q59 134 194 134h254q64 0 64 -72v-92z" />
    <glyph glyph-name="Eacute" unicode="&#xc9;" horiz-adv-x="616" 
d="M610 88q0 -88 -69 -88h-418q-48 0 -61 27q-9 19 -9 63v1186q0 90 70 90h405q35 0 48 -11q18 -15 18 -69v-76q0 -68 -30 -80q-13 -6 -36 -6h-200q-28 0 -34 -14q-3 -9 -3 -31v-190q0 -30 5.5 -36.5t31.5 -6.5h102q59 0 59 -70v-104q0 -68 -59 -68h-102q-24 0 -30.5 -7
t-6.5 -24v-286q0 -45 43 -45h203q73 0 73 -88v-66zM508 1589q0 -15 -20 -33l-142 -120q0 -1 -1 -2q-20 -17 -44 -17h-127q-21 0 -21 18q0 13 9 27l92 121q25 33 45 33h181q28 0 28 -27z" />
    <glyph glyph-name="Ntilde" unicode="&#xd1;" horiz-adv-x="801" 
d="M748 92q0 -60 -19 -78q-15 -14 -53 -14h-94q-38 0 -52 10.5t-28 52.5l-172 510q-10 29 -23 29q-10 0 -10 -39v-473q0 -90 -64 -90h-106q-74 0 -74 92v1184q0 60 19 77q15 13 53 13h94q38 0 52 -10.5t28 -52.5l172 -508q10 -29 23 -29q10 0 10 39v471q0 90 63 90h107
q74 0 74 -92v-1182zM617 1475q0 -58 -52 -58h-82q-11 0 -34 7l-145 43q-19 6 -25 6q-9 0 -9 -13v-11q0 -32 -32 -32h-52q-51 0 -51 53v88q0 58 51 58h82q12 0 35 -7l145 -43q19 -5 25 -5q8 0 8 12v11q0 32 33 32h51q52 0 52 -52v-89z" />
    <glyph glyph-name="Odieresis" unicode="&#xd6;" 
d="M694 686q0 -380 -41 -505q-66 -198 -288 -198q-224 0 -290 198q-40 124 -40 505q0 379 40 500q65 194 290 194q223 0 288 -194q41 -123 41 -500zM455 686q0 284 -13 353q-15 83 -77 83q-64 0 -79 -83q-12 -64 -12 -353q0 -285 13 -357q15 -87 78 -87t78 87q12 66 12 357z
M568 1480q0 -63 -64 -63h-59q-64 0 -64 63v79q0 63 64 63h59q64 0 64 -63v-79zM320 1480q0 -63 -64 -63h-59q-64 0 -64 63v79q0 63 64 63h59q64 0 64 -63v-79z" />
    <glyph glyph-name="Udieresis" unicode="&#xdc;" horiz-adv-x="741" 
d="M700 389q0 -196 -57 -287q-77 -119 -276 -119q-193 0 -265 103q-61 87 -61 293v897q0 48 12 67q16 23 60 23h108q41 0 53 -24q9 -16 9 -60v-934q0 -106 90 -106q86 0 86 108v932q0 49 12 66.5t53 17.5h113q49 0 58 -30q5 -17 5 -54v-893zM572 1480q0 -63 -64 -63h-59
q-64 0 -64 63v79q0 63 64 63h59q64 0 64 -63v-79zM324 1480q0 -63 -64 -63h-59q-64 0 -64 63v79q0 63 64 63h59q64 0 64 -63v-79z" />
    <glyph glyph-name="aacute" unicode="&#xe1;" horiz-adv-x="760" 
d="M754 31q4 -31 -31 -31h-195q-29 0 -34 37l-39 289q-5 32 -35 32h-86q-31 0 -35 -32l-33 -293q-3 -33 -37 -33h-188q-39 0 -35 31l166 1257q10 78 86 78h238q68 0 79 -80zM430 623l-39 471q-2 30 -16 30t-17 -32l-34 -469q-4 -23 26 -23h51q31 0 29 23zM614 1589
q0 -15 -20 -33l-142 -120q0 -1 -1 -2q-20 -17 -44 -17h-127q-21 0 -21 18q0 13 9 27l92 121q25 33 45 33h181q28 0 28 -27z" />
    <glyph glyph-name="agrave" unicode="&#xe0;" horiz-adv-x="760" 
d="M754 31q4 -31 -31 -31h-195q-29 0 -34 37l-39 289q-5 32 -35 32h-86q-31 0 -35 -32l-33 -293q-3 -33 -37 -33h-188q-39 0 -35 31l166 1257q10 78 86 78h238q68 0 79 -80zM430 623l-39 471q-2 30 -16 30t-17 -32l-34 -469q-4 -23 26 -23h51q31 0 29 23zM496 1435
q0 -18 -23 -18h-127q-23 0 -45 19l-140 120q-20 18 -20 33q0 27 27 27h180q20 0 45 -33l93 -121q10 -14 10 -27z" />
    <glyph glyph-name="acircumflex" unicode="&#xe2;" horiz-adv-x="760" 
d="M754 31q4 -31 -31 -31h-195q-29 0 -34 37l-39 289q-5 32 -35 32h-86q-31 0 -35 -32l-33 -293q-3 -33 -37 -33h-188q-39 0 -35 31l166 1257q10 78 86 78h238q68 0 79 -80zM430 623l-39 471q-2 30 -16 30t-17 -32l-34 -469q-4 -23 26 -23h51q31 0 29 23zM617 1432
q0 -15 -19 -15h-111q-31 0 -47 20l-59 78l-58 -78q-15 -20 -47 -20h-110q-19 0 -19 15q0 9 4 18l70 134q16 31 55 31h211q39 0 55 -31l70 -134q5 -9 5 -18z" />
    <glyph glyph-name="adieresis" unicode="&#xe4;" horiz-adv-x="760" 
d="M754 31q4 -31 -31 -31h-195q-29 0 -34 37l-39 289q-5 32 -35 32h-86q-31 0 -35 -32l-33 -293q-3 -33 -37 -33h-188q-39 0 -35 31l166 1257q10 78 86 78h238q68 0 79 -80zM430 623l-39 471q-2 30 -16 30t-17 -32l-34 -469q-4 -23 26 -23h51q31 0 29 23zM596 1480
q0 -63 -64 -63h-59q-64 0 -64 63v79q0 63 64 63h59q64 0 64 -63v-79zM348 1480q0 -63 -64 -63h-59q-64 0 -64 63v79q0 63 64 63h59q64 0 64 -63v-79z" />
    <glyph glyph-name="atilde" unicode="&#xe3;" horiz-adv-x="760" 
d="M754 31q4 -31 -31 -31h-195q-29 0 -34 37l-39 289q-5 32 -35 32h-86q-31 0 -35 -32l-33 -293q-3 -33 -37 -33h-188q-39 0 -35 31l166 1257q10 78 86 78h238q68 0 79 -80zM430 623l-39 471q-2 30 -16 30t-17 -32l-34 -469q-4 -23 26 -23h51q31 0 29 23zM611 1475
q0 -58 -52 -58h-82q-11 0 -34 7l-145 43q-19 6 -25 6q-9 0 -9 -13v-11q0 -32 -32 -32h-52q-51 0 -51 53v88q0 58 51 58h82q12 0 35 -7l145 -43q19 -5 25 -5q8 0 8 12v11q0 32 33 32h51q52 0 52 -52v-89z" />
    <glyph glyph-name="aring" unicode="&#xe5;" horiz-adv-x="760" 
d="M754 31q4 -31 -31 -31h-195q-29 0 -34 37l-39 289q-5 32 -35 32h-86q-31 0 -35 -32l-33 -293q-3 -33 -37 -33h-188q-39 0 -35 31l166 1257q9 68 66 76q-31 47 -31 92q0 77 46.5 126.5t117.5 49.5q70 0 115.5 -50t45.5 -128q0 -50 -28 -89q61 -5 71 -79zM436 1452
q0 80 -65 80q-66 0 -66 -78t66 -78q65 0 65 76zM430 623l-39 471q-2 30 -16 30t-17 -32l-34 -469q-4 -23 26 -23h51q31 0 29 23z" />
    <glyph glyph-name="ccedilla" unicode="&#xe7;" horiz-adv-x="594" 
d="M588 1202q0 -50 -14.5 -64t-53.5 -14h-155q-60 0 -72 -60q-12 -65 -12 -384q0 -288 -3 -254q12 -184 82 -184h160q66 0 66 -70v-98q0 -74 -62 -74h-116q18 -65 18 -112q0 -168 -107 -168h-73q-61 0 -69 36q-3 15 -3 46v45q0 44 24 56q17 8 56 8h43q27 0 27 31
q0 13 -13 58h-30q-154 0 -200 125t-46 532q0 641 -6 283q3 190 47 292q59 134 194 134h254q64 0 64 -72v-92z" />
    <glyph glyph-name="eacute" unicode="&#xe9;" horiz-adv-x="616" 
d="M610 88q0 -88 -69 -88h-418q-48 0 -61 27q-9 19 -9 63v1186q0 90 70 90h405q35 0 48 -11q18 -15 18 -69v-76q0 -68 -30 -80q-13 -6 -36 -6h-200q-28 0 -34 -14q-3 -9 -3 -31v-190q0 -30 5.5 -36.5t31.5 -6.5h102q59 0 59 -70v-104q0 -68 -59 -68h-102q-24 0 -30.5 -7
t-6.5 -24v-286q0 -45 43 -45h203q73 0 73 -88v-66zM508 1589q0 -15 -20 -33l-142 -120q0 -1 -1 -2q-20 -17 -44 -17h-127q-21 0 -21 18q0 13 9 27l92 121q25 33 45 33h181q28 0 28 -27z" />
    <glyph glyph-name="egrave" unicode="&#xe8;" horiz-adv-x="616" 
d="M610 88q0 -88 -69 -88h-418q-48 0 -61 27q-9 19 -9 63v1186q0 90 70 90h405q35 0 48 -11q18 -15 18 -69v-76q0 -68 -30 -80q-13 -6 -36 -6h-200q-28 0 -34 -14q-3 -9 -3 -31v-190q0 -30 5.5 -36.5t31.5 -6.5h102q59 0 59 -70v-104q0 -68 -59 -68h-102q-24 0 -30.5 -7
t-6.5 -24v-286q0 -45 43 -45h203q73 0 73 -88v-66zM445 1435q0 -18 -23 -18h-127q-23 0 -45 19l-140 120q-20 18 -20 33q0 27 27 27h180q20 0 45 -33l93 -121q10 -14 10 -27z" />
    <glyph glyph-name="ecircumflex" unicode="&#xea;" horiz-adv-x="616" 
d="M610 88q0 -88 -69 -88h-418q-48 0 -61 27q-9 19 -9 63v1186q0 90 70 90h405q35 0 48 -11q18 -15 18 -69v-76q0 -68 -30 -80q-13 -6 -36 -6h-200q-28 0 -34 -14q-3 -9 -3 -31v-190q0 -30 5.5 -36.5t31.5 -6.5h102q59 0 59 -70v-104q0 -68 -59 -68h-102q-24 0 -30.5 -7
t-6.5 -24v-286q0 -45 43 -45h203q73 0 73 -88v-66zM535 1432q0 -15 -19 -15h-111q-31 0 -47 20l-59 78l-58 -78q-15 -20 -47 -20h-110q-19 0 -19 15q0 9 4 18l70 134q16 31 55 31h211q39 0 55 -31l70 -134q5 -9 5 -18z" />
    <glyph glyph-name="edieresis" unicode="&#xeb;" horiz-adv-x="616" 
d="M610 88q0 -88 -69 -88h-418q-48 0 -61 27q-9 19 -9 63v1186q0 90 70 90h405q35 0 48 -11q18 -15 18 -69v-76q0 -68 -30 -80q-13 -6 -36 -6h-200q-28 0 -34 -14q-3 -9 -3 -31v-190q0 -30 5.5 -36.5t31.5 -6.5h102q59 0 59 -70v-104q0 -68 -59 -68h-102q-24 0 -30.5 -7
t-6.5 -24v-286q0 -45 43 -45h203q73 0 73 -88v-66zM518 1480q0 -63 -64 -63h-59q-64 0 -64 63v79q0 63 64 63h59q64 0 64 -63v-79zM270 1480q0 -63 -64 -63h-59q-64 0 -64 63v79q0 63 64 63h59q64 0 64 -63v-79z" />
    <glyph glyph-name="iacute" unicode="&#xed;" horiz-adv-x="348" 
d="M295 86q0 -49 -11 -66q-13 -20 -57 -20h-102q-39 0 -54 14q-18 16 -18 76v1184q0 92 68 92h110q64 0 64 -92v-1188zM373 1589q0 -15 -20 -33l-142 -120q0 -1 -1 -2q-20 -17 -44 -17h-127q-21 0 -21 18q0 13 9 27l92 121q25 33 45 33h181q28 0 28 -27z" />
    <glyph glyph-name="igrave" unicode="&#xec;" horiz-adv-x="348" 
d="M295 86q0 -49 -11 -66q-13 -20 -57 -20h-102q-39 0 -54 14q-18 16 -18 76v1184q0 92 68 92h110q64 0 64 -92v-1188zM327 1435q0 -18 -23 -18h-127q-23 0 -45 19l-140 120q-20 18 -20 33q0 27 27 27h180q20 0 45 -33l93 -121q10 -14 10 -27z" />
    <glyph glyph-name="icircumflex" unicode="&#xee;" horiz-adv-x="348" 
d="M295 86q0 -49 -11 -66q-13 -20 -57 -20h-102q-39 0 -54 14q-18 16 -18 76v1184q0 92 68 92h110q64 0 64 -92v-1188zM413 1432q0 -15 -19 -15h-111q-31 0 -47 20l-59 78l-58 -78q-15 -20 -47 -20h-110q-19 0 -19 15q0 9 4 18l70 134q16 31 55 31h211q39 0 55 -31l70 -134
q5 -9 5 -18z" />
    <glyph glyph-name="idieresis" unicode="&#xef;" horiz-adv-x="348" 
d="M295 86q0 -49 -11 -66q-13 -20 -57 -20h-102q-39 0 -54 14q-18 16 -18 76v1184q0 92 68 92h110q64 0 64 -92v-1188zM399 1480q0 -63 -64 -63h-59q-64 0 -64 63v79q0 63 64 63h59q64 0 64 -63v-79zM151 1480q0 -63 -64 -63h-59q-64 0 -64 63v79q0 63 64 63h59q64 0 64 -63
v-79z" />
    <glyph glyph-name="ntilde" unicode="&#xf1;" horiz-adv-x="801" 
d="M748 92q0 -60 -19 -78q-15 -14 -53 -14h-94q-38 0 -52 10.5t-28 52.5l-172 510q-10 29 -23 29q-10 0 -10 -39v-473q0 -90 -64 -90h-106q-74 0 -74 92v1184q0 60 19 77q15 13 53 13h94q38 0 52 -10.5t28 -52.5l172 -508q10 -29 23 -29q10 0 10 39v471q0 90 63 90h107
q74 0 74 -92v-1182zM617 1475q0 -58 -52 -58h-82q-11 0 -34 7l-145 43q-19 6 -25 6q-9 0 -9 -13v-11q0 -32 -32 -32h-52q-51 0 -51 53v88q0 58 51 58h82q12 0 35 -7l145 -43q19 -5 25 -5q8 0 8 12v11q0 32 33 32h51q52 0 52 -52v-89z" />
    <glyph glyph-name="oacute" unicode="&#xf3;" 
d="M694 686q0 -380 -41 -505q-66 -198 -288 -198q-224 0 -290 198q-40 124 -40 505q0 379 40 500q65 194 290 194q223 0 288 -194q41 -123 41 -500zM455 686q0 284 -13 353q-15 83 -77 83q-64 0 -79 -83q-12 -64 -12 -353q0 -285 13 -357q15 -87 78 -87t78 87q12 66 12 357z
M569 1589q0 -15 -20 -33l-142 -120q0 -1 -1 -2q-20 -17 -44 -17h-127q-21 0 -21 18q0 13 9 27l92 121q25 33 45 33h181q28 0 28 -27z" />
    <glyph glyph-name="ograve" unicode="&#xf2;" 
d="M694 686q0 -380 -41 -505q-66 -198 -288 -198q-224 0 -290 198q-40 124 -40 505q0 379 40 500q65 194 290 194q223 0 288 -194q41 -123 41 -500zM455 686q0 284 -13 353q-15 83 -77 83q-64 0 -79 -83q-12 -64 -12 -353q0 -285 13 -357q15 -87 78 -87t78 87q12 66 12 357z
M490 1435q0 -18 -23 -18h-127q-23 0 -45 19l-140 120q-20 18 -20 33q0 27 27 27h180q20 0 45 -33l93 -121q10 -14 10 -27z" />
    <glyph glyph-name="ocircumflex" unicode="&#xf4;" 
d="M694 686q0 -380 -41 -505q-66 -198 -288 -198q-224 0 -290 198q-40 124 -40 505q0 379 40 500q65 194 290 194q223 0 288 -194q41 -123 41 -500zM455 686q0 284 -13 353q-15 83 -77 83q-64 0 -79 -83q-12 -64 -12 -353q0 -285 13 -357q15 -87 78 -87t78 87q12 66 12 357z
M591 1432q0 -15 -19 -15h-111q-31 0 -47 20l-59 78l-58 -78q-15 -20 -47 -20h-110q-19 0 -19 15q0 9 4 18l70 134q16 31 55 31h211q39 0 55 -31l70 -134q5 -9 5 -18z" />
    <glyph glyph-name="odieresis" unicode="&#xf6;" 
d="M694 686q0 -380 -41 -505q-66 -198 -288 -198q-224 0 -290 198q-40 124 -40 505q0 379 40 500q65 194 290 194q223 0 288 -194q41 -123 41 -500zM455 686q0 284 -13 353q-15 83 -77 83q-64 0 -79 -83q-12 -64 -12 -353q0 -285 13 -357q15 -87 78 -87t78 87q12 66 12 357z
M568 1480q0 -63 -64 -63h-59q-64 0 -64 63v79q0 63 64 63h59q64 0 64 -63v-79zM320 1480q0 -63 -64 -63h-59q-64 0 -64 63v79q0 63 64 63h59q64 0 64 -63v-79z" />
    <glyph glyph-name="otilde" unicode="&#xf5;" 
d="M694 686q0 -380 -41 -505q-66 -198 -288 -198q-224 0 -290 198q-40 124 -40 505q0 379 40 500q65 194 290 194q223 0 288 -194q41 -123 41 -500zM455 686q0 284 -13 353q-15 83 -77 83q-64 0 -79 -83q-12 -64 -12 -353q0 -285 13 -357q15 -87 78 -87t78 87q12 66 12 357z
M594 1475q0 -58 -52 -58h-82q-11 0 -34 7l-145 43q-19 6 -25 6q-9 0 -9 -13v-11q0 -32 -32 -32h-52q-51 0 -51 53v88q0 58 51 58h82q12 0 35 -7l145 -43q19 -5 25 -5q8 0 8 12v11q0 32 33 32h51q52 0 52 -52v-89z" />
    <glyph glyph-name="uacute" unicode="&#xfa;" horiz-adv-x="741" 
d="M700 389q0 -196 -57 -287q-77 -119 -276 -119q-193 0 -265 103q-61 87 -61 293v897q0 48 12 67q16 23 60 23h108q41 0 53 -24q9 -16 9 -60v-934q0 -106 90 -106q86 0 86 108v932q0 49 12 66.5t53 17.5h113q49 0 58 -30q5 -17 5 -54v-893zM575 1589q0 -15 -20 -33
l-142 -120q0 -1 -1 -2q-20 -17 -44 -17h-127q-21 0 -21 18q0 13 9 27l92 121q25 33 45 33h181q28 0 28 -27z" />
    <glyph glyph-name="ugrave" unicode="&#xf9;" horiz-adv-x="741" 
d="M700 389q0 -196 -57 -287q-77 -119 -276 -119q-193 0 -265 103q-61 87 -61 293v897q0 48 12 67q16 23 60 23h108q41 0 53 -24q9 -16 9 -60v-934q0 -106 90 -106q86 0 86 108v932q0 49 12 66.5t53 17.5h113q49 0 58 -30q5 -17 5 -54v-893zM484 1435q0 -18 -23 -18h-127
q-23 0 -45 19l-140 120q-20 18 -20 33q0 27 27 27h180q20 0 45 -33l93 -121q10 -14 10 -27z" />
    <glyph glyph-name="ucircumflex" unicode="&#xfb;" horiz-adv-x="741" 
d="M700 389q0 -196 -57 -287q-77 -119 -276 -119q-193 0 -265 103q-61 87 -61 293v897q0 48 12 67q16 23 60 23h108q41 0 53 -24q9 -16 9 -60v-934q0 -106 90 -106q86 0 86 108v932q0 49 12 66.5t53 17.5h113q49 0 58 -30q5 -17 5 -54v-893zM595 1432q0 -15 -19 -15h-111
q-31 0 -47 20l-59 78l-58 -78q-15 -20 -47 -20h-110q-19 0 -19 15q0 9 4 18l70 134q16 31 55 31h211q39 0 55 -31l70 -134q5 -9 5 -18z" />
    <glyph glyph-name="udieresis" unicode="&#xfc;" horiz-adv-x="741" 
d="M700 389q0 -196 -57 -287q-77 -119 -276 -119q-193 0 -265 103q-61 87 -61 293v897q0 48 12 67q16 23 60 23h108q41 0 53 -24q9 -16 9 -60v-934q0 -106 90 -106q86 0 86 108v932q0 49 12 66.5t53 17.5h113q49 0 58 -30q5 -17 5 -54v-893zM572 1480q0 -63 -64 -63h-59
q-64 0 -64 63v79q0 63 64 63h59q64 0 64 -63v-79zM324 1480q0 -63 -64 -63h-59q-64 0 -64 63v79q0 63 64 63h59q64 0 64 -63v-79z" />
    <glyph glyph-name="cent" unicode="&#xa2;" horiz-adv-x="403" 
d="M371 1188q0 -32 -14 -39q-8 -4 -25 -4h-72q-34 0 -41.5 -30.5t-7.5 -172.5q0 -122 -1 -116q7 -83 46 -83h76q37 0 37 -38v-107q0 -41 -35 -41h-64v-61q0 -39 -30 -39h-62q-33 0 -33 32v70q-64 12 -88 90t-24 281q0 181 6 228q21 155 104 169v74q0 29 25 29h70
q26 0 26 -31v-68h70q37 0 37 -41v-102z" />
    <glyph glyph-name="sterling" unicode="&#xa3;" horiz-adv-x="725" 
d="M692 86q0 -86 -67 -86h-435q-115 0 -110 141q1 46 8 127q11 83 47 336q6 37 -12 37h-70q-37 0 -37 76v92q0 72 45 72h80q13 0 19 22l30 236q30 227 181 227h235q64 0 64 -82v-78q0 -82 -52 -82h-153q-35 0 -43 -55l-23 -151q-5 -37 17 -37h176q45 0 45 -74v-86
q0 -80 -59 -80h-181q-23 0 -28 -47l-37 -315q-5 -37 28 -37h267q65 0 65 -90v-66z" />
    <glyph glyph-name="section" unicode="&#xa7;" horiz-adv-x="770" 
d="M760 625q0 -259 -146 -303v-9q0 -172 -57.5 -243t-185.5 -71h-260q-61 0 -69 29q-3 12 -3 38v55q0 56 37 61q12 2 35 2h211q43 0 58 20.5t15 102.5q0 51 -100 113q-160 101 -185 123q-100 86 -100 192q0 260 146 307v2q0 175 59 250q56 72 184 72h260q61 0 69 -30
q3 -12 3 -38v-55q0 -56 -37 -61q-12 -2 -35 -2h-217q-52 0 -66 -40q-7 -21 -7 -89q0 -42 101 -104q149 -91 188 -125q102 -89 102 -197zM549 618q0 51 -105 115q-163 100 -192 125q-31 -17 -31 -117q0 -43 106 -107q151 -92 193 -130q29 17 29 114z" />
    <glyph glyph-name="bullet" unicode="&#x2022;" horiz-adv-x="387" 
d="M367 635q0 -82 -26 -102q-20 -15 -71 -15h-153q-71 0 -86 35q-11 24 -11 82v194q0 83 27 103q19 14 70 14h153q71 0 86 -35q11 -24 11 -82v-194z" />
    <glyph glyph-name="germandbls" unicode="&#xdf;" horiz-adv-x="782" 
d="M766 369q0 -369 -221 -369h-160q-24 0 -31 11q-6 8 -6 30v149q0 52 37 52h35q70 0 90 54q10 28 10 116q0 105 -24 143q-20 32 -74 31l-12 -2q-24 0 -31 11q-4 8 -4 30v151q0 51 35 51h10q61 0 78 48q10 25 10 100q0 149 -86 149h-94q-24 0 -29.5 -9.5t-5.5 -31.5v-991
q0 -56 -13.5 -74t-50.5 -18h-110q-43 0 -57 27q-9 18 -9 65v1186q0 88 66 88h426q120 0 166 -100q37 -77 37 -244q0 -242 -111 -309q129 -51 129 -344z" />
    <glyph glyph-name="registered" unicode="&#xae;" horiz-adv-x="733" 
d="M713 1151q0 -143 -102 -244.5t-244 -101.5q-143 0 -245 101.5t-102 244.5q0 144 101.5 245t245.5 101q143 0 244.5 -101t101.5 -245zM649 1151q0 117 -83 200t-199 83q-117 0 -200 -83t-83 -200t83 -200t200 -83q116 0 199 83t83 200zM483 934h-67l-51 174h-33v-174h-64
v432h88q119 0 119 -123q0 -87 -49 -117zM408 1241q0 51 -54 51h-22v-112h16q60 0 60 61z" />
    <glyph glyph-name="copyright" unicode="&#xa9;" horiz-adv-x="733" 
d="M713 1151q0 -143 -102 -244.5t-244 -101.5q-143 0 -245 101.5t-102 244.5q0 144 101.5 245t245.5 101q143 0 244.5 -101t101.5 -245zM649 1151q0 117 -83 200t-199 83q-117 0 -200 -83t-83 -200t83 -200t200 -83q116 0 199 83t83 200zM502 1104q0 -182 -133 -182
q-144 0 -144 225q0 229 146 229q70 0 103 -60q24 -43 22 -93h-68q-5 88 -57 88q-74 0 -74 -162q0 -160 74 -160q58 0 63 115h68z" />
    <glyph glyph-name="trademark" unicode="&#x2122;" horiz-adv-x="618" 
d="M608 934h-61l-17 307l-61 -307h-61l-58 303l-16 -303h-64l33 432h82l57 -301q2 14 58 301h82zM219 1288h-72v-352h-67v352h-70v78h209v-78z" />
    <glyph glyph-name="acute" unicode="&#xb4;" horiz-adv-x="381" 
d="M350 1589q0 -15 -20 -33l-142 -120q0 -1 -1 -2q-20 -17 -44 -17h-127q-21 0 -21 18q0 13 9 27l92 121q25 33 45 33h181q28 0 28 -27z" />
    <glyph glyph-name="dieresis" unicode="&#xa8;" horiz-adv-x="475" 
d="M455 1480q0 -63 -64 -63h-59q-64 0 -64 63v79q0 63 64 63h59q64 0 64 -63v-79zM207 1480q0 -63 -64 -63h-59q-64 0 -64 63v79q0 63 64 63h59q64 0 64 -63v-79z" />
    <glyph glyph-name="AE" unicode="&#xc6;" horiz-adv-x="1047" 
d="M1036 88q0 -88 -69 -88h-457q-31 0 -31 37v289q0 32 -30 32h-89q-30 0 -36 -32l-58 -293q-6 -33 -41 -33h-188q-37 0 -31 31l270 1257q17 78 95 78h583q35 0 48 -11q18 -15 18 -69v-76q0 -68 -30 -80q-13 -6 -36 -6h-200q-28 0 -34 -14q-3 -9 -3 -31v-190
q0 -30 5.5 -36.5t31.5 -6.5h102q59 0 59 -70v-104q0 -68 -59 -68h-102q-24 0 -30.5 -7t-6.5 -24v-286q0 -45 43 -45h203q73 0 73 -88v-66zM479 623v471q0 30 -12 30q-15 0 -21 -32l-73 -469q-4 -23 24 -23h52q30 0 30 23z" />
    <glyph glyph-name="Oslash" unicode="&#xd8;" 
d="M732 1326l-74 -156q35 -121 35 -484q0 -381 -40 -505q-66 -198 -289 -198q-154 0 -230 89l-20 -41q-15 -31 -40 -31h-45q-35 0 -35 17v1q1 10 9 29l69 146q-37 124 -37 493q0 378 40 500q65 194 289 194q152 0 228 -84l17 38q16 33 51 33h41q37 0 37 -18q0 -9 -6 -23z
M448 992q-6 76 -24.5 103.5t-59.5 27.5q-63 0 -79 -83q-12 -65 -12 -354l1 -65zM455 686v59l-175 -366q12 -137 84 -137q63 0 79 87q12 67 12 357z" />
    <glyph glyph-name="yen" unicode="&#xa5;" horiz-adv-x="944" 
d="M911 502q0 -64 -43 -64h-284v-350q0 -56 -14 -72t-54 -16h-106q-45 0 -58 21q-10 18 -10 67v350h-279q-43 0 -43 64v39q0 61 43 61h254l-41 148h-213q-43 0 -43 61v39q0 63 43 63h164l-110 381q-21 72 37 72h137q42 0 53 -49l105 -445q7 -22 14 -22t14 22l105 445
q11 49 53 49h137q58 0 37 -72l-113 -381h172q43 0 43 -63v-39q0 -61 -43 -61h-219l-43 -148h262q43 0 43 -61v-39z" />
    <glyph glyph-name="ae" unicode="&#xe6;" horiz-adv-x="1047" 
d="M1036 88q0 -88 -69 -88h-457q-31 0 -31 37v289q0 32 -30 32h-89q-30 0 -36 -32l-58 -293q-6 -33 -41 -33h-188q-37 0 -31 31l270 1257q17 78 95 78h583q35 0 48 -11q18 -15 18 -69v-76q0 -68 -30 -80q-13 -6 -36 -6h-200q-28 0 -34 -14q-3 -9 -3 -31v-190
q0 -30 5.5 -36.5t31.5 -6.5h102q59 0 59 -70v-104q0 -68 -59 -68h-102q-24 0 -30.5 -7t-6.5 -24v-286q0 -45 43 -45h203q73 0 73 -88v-66zM479 623v471q0 30 -12 30q-15 0 -21 -32l-73 -469q-4 -23 24 -23h52q30 0 30 23z" />
    <glyph glyph-name="oslash" unicode="&#xf8;" 
d="M732 1326l-74 -156q35 -121 35 -484q0 -381 -40 -505q-65 -198 -289 -198q-154 0 -230 89l-20 -41q-15 -31 -40 -31h-45q-35 0 -35 17v1q1 10 9 29l69 146q-37 124 -37 493q0 378 40 500q65 194 289 194q152 0 228 -84l17 38q16 33 51 33h41q37 0 37 -18q0 -9 -6 -23z
M448 992q-6 76 -24.5 103.5t-59.5 27.5q-63 0 -79 -83q-12 -65 -12 -354l1 -65zM455 686v59l-175 -366q12 -137 84 -137q63 0 79 87q12 67 12 357z" />
    <glyph glyph-name="questiondown" unicode="&#xbf;" horiz-adv-x="549" 
d="M410 1217q0 -54 -11 -71q-12 -22 -53 -22h-106q-41 0 -54 22q-10 17 -10 71v57q0 53 11.5 72.5t52.5 19.5h106q41 0 52.5 -19.5t11.5 -72.5v-57zM535 86q0 -86 -68 -86h-246q-110 0 -151 50q-47 59 -47 233q0 152 53 264l80 168q20 43 20 106v133q0 60 64 60h102
q53 0 63 -33q5 -15 5 -43v-186q0 -64 -21 -107l-80 -168q-45 -95 -45 -158q0 -77 68 -77h135q68 0 68 -86v-70z" />
    <glyph glyph-name="exclamdown" unicode="&#xa1;" horiz-adv-x="352" 
d="M291 1217q0 -54 -10 -71q-13 -22 -54 -22h-106q-41 0 -53 22q-11 17 -11 71v57q0 53 11.5 72.5t52.5 19.5h106q41 0 54 -21q10 -18 10 -71v-57zM295 86q1 -86 -64 -86h-108q-67 0 -66 88l9 840q0 84 61 84h86q41 0 56 -22q11 -17 12 -62z" />
    <glyph glyph-name="florin" unicode="&#x192;" horiz-adv-x="596" 
d="M565 1210q0 -86 -51 -86h-49q-30 0 -36 -9.5t-15 -57.5l-25 -135q-7 -39 19 -39h51q42 0 52 -23q7 -16 7 -55v-82q0 -53 -14.5 -66.5t-46.5 -13.5h-68q-24 0 -29 -35l-67 -532q-10 -76 -55 -76h-125q-55 0 -55 51q0 17 3 45l62 510q2 17 1 26q-2 13 -13 13h-58
q-35 0 -35 72v106q0 51 35 51h74q22 0 25 25l30 252q26 215 185 215h104q52 0 73 -17.5t21 -66.5v-72z" />
    <glyph glyph-name="approxequal" unicode="&#x2248;" horiz-adv-x="1335" 
d="M1335 932q0 -41 -9.5 -56.5t-47.5 -35.5q-155 -82 -309 -82q-118 0 -276.5 60.5t-293.5 60.5q-176 0 -342 -74q-15 -7 -26 -7q-31 0 -31 42v39q0 44 10 61t47 33q155 65 357 65q129 0 288 -61.5t279 -61.5t297 84q13 7 25 7q32 0 32 -43v-31zM1335 614q0 -44 -9.5 -61
t-47.5 -33q-154 -65 -356 -65q-130 0 -288.5 61.5t-279.5 61.5q-116 0 -297 -86q-13 -7 -24 -7q-33 0 -33 43v31q0 42 9.5 58t47.5 36q155 82 310 82q118 0 276 -61.5t293 -61.5q172 0 342 76q14 6 26 6q31 0 31 -41v-39z" />
    <glyph glyph-name="approxequal" unicode="&#x22f2;" horiz-adv-x="1335" 
d="M1335 932q0 -41 -9.5 -56.5t-47.5 -35.5q-155 -82 -309 -82q-118 0 -276.5 60.5t-293.5 60.5q-176 0 -342 -74q-15 -7 -26 -7q-31 0 -31 42v39q0 44 10 61t47 33q155 65 357 65q129 0 288 -61.5t279 -61.5t297 84q13 7 25 7q32 0 32 -43v-31zM1335 614q0 -44 -9.5 -61
t-47.5 -33q-154 -65 -356 -65q-130 0 -288.5 61.5t-279.5 61.5q-116 0 -297 -86q-13 -7 -24 -7q-33 0 -33 43v31q0 42 9.5 58t47.5 36q155 82 310 82q118 0 276 -61.5t293 -61.5q172 0 342 76q14 6 26 6q31 0 31 -41v-39z" />
    <glyph glyph-name="guillemotleft" unicode="&#xab;" horiz-adv-x="431" 
d="M421 369q0 -34 -26 -21l-126 90q-32 24 -32 86v264q0 59 26 78l126 93q11 9 19 9q13 0 13 -28v-137q0 -37 -14 -57l-66 -95l59 -84q21 -29 21 -53v-145zM194 369q0 -34 -26 -21l-125 90q-33 24 -33 86v264q0 59 27 78l125 93q12 9 19 9q13 0 13 -28v-137q0 -37 -14 -57
l-65 -95l59 -84q20 -29 20 -53v-145z" />
    <glyph glyph-name="guillemotright" unicode="&#xbb;" horiz-adv-x="431" 
d="M421 524q0 -62 -33 -86l-125 -90q-26 -13 -26 21v145q0 24 20 53l60 84l-66 95q-14 20 -14 57v137q0 28 13 28q7 0 19 -9l125 -93q27 -19 27 -78v-264zM194 524q0 -62 -32 -86l-126 -90q-26 -13 -26 21v145q0 24 21 53l59 84l-65 95q-15 20 -15 57v137q0 28 13 28
q8 0 19 -9l126 -93q26 -19 26 -78v-264z" />
    <glyph glyph-name="ellipsis" unicode="&#x2026;" horiz-adv-x="899" 
d="M862 92q0 -53 -10 -70q-13 -22 -53 -22h-115q-41 0 -53 22q-10 17 -10 70v58q0 53 10 70q12 22 53 22h115q40 0 53 -22q10 -17 10 -70v-58zM569 92q0 -53 -10 -70q-13 -22 -53 -22h-115q-40 0 -53 22q-10 17 -10 70v58q0 53 10 70q13 22 53 22h115q40 0 53 -22
q10 -17 10 -70v-58zM276 92q0 -53 -10 -70q-12 -22 -53 -22h-115q-40 0 -53 22q-10 17 -10 70v58q0 53 10 70q13 22 53 22h115q41 0 53 -22q10 -17 10 -70v-58z" />
    <glyph glyph-name="Agrave" unicode="&#xc0;" horiz-adv-x="760" 
d="M754 31q4 -31 -31 -31h-195q-29 0 -34 37l-39 289q-5 32 -35 32h-86q-31 0 -35 -32l-33 -293q-3 -33 -37 -33h-188q-39 0 -35 31l166 1257q10 78 86 78h238q68 0 79 -80zM430 623l-39 471q-2 30 -16 30t-17 -32l-34 -469q-4 -23 26 -23h51q31 0 29 23zM496 1435
q0 -18 -23 -18h-127q-23 0 -45 19l-140 120q-20 18 -20 33q0 27 27 27h180q20 0 45 -33l93 -121q10 -14 10 -27z" />
    <glyph glyph-name="Atilde" unicode="&#xc3;" horiz-adv-x="760" 
d="M754 31q4 -31 -31 -31h-195q-29 0 -34 37l-39 289q-5 32 -35 32h-86q-31 0 -35 -32l-33 -293q-3 -33 -37 -33h-188q-39 0 -35 31l166 1257q10 78 86 78h238q68 0 79 -80zM430 623l-39 471q-2 30 -16 30t-17 -32l-34 -469q-4 -23 26 -23h51q31 0 29 23zM611 1475
q0 -58 -52 -58h-82q-11 0 -34 7l-145 43q-19 6 -25 6q-9 0 -9 -13v-11q0 -32 -32 -32h-52q-51 0 -51 53v88q0 58 51 58h82q12 0 35 -7l145 -43q19 -5 25 -5q8 0 8 12v11q0 32 33 32h51q52 0 52 -52v-89z" />
    <glyph glyph-name="Otilde" unicode="&#xd5;" 
d="M694 686q0 -380 -41 -505q-66 -198 -288 -198q-224 0 -290 198q-40 124 -40 505q0 379 40 500q65 194 290 194q223 0 288 -194q41 -123 41 -500zM455 686q0 284 -13 353q-15 83 -77 83q-64 0 -79 -83q-12 -64 -12 -353q0 -285 13 -357q15 -87 78 -87t78 87q12 66 12 357z
M596 1475q0 -58 -52 -58h-82q-11 0 -34 7l-145 43q-19 6 -25 6q-9 0 -9 -13v-11q0 -32 -32 -32h-52q-51 0 -51 53v88q0 58 51 58h82q12 0 35 -7l145 -43q19 -5 25 -5q8 0 8 12v11q0 32 33 32h51q52 0 52 -52v-89z" />
    <glyph glyph-name="OE" unicode="&#x152;" horiz-adv-x="1030" 
d="M1020 88q0 -88 -70 -88h-399q-30 0 -47 10q-64 -27 -150 -27q-224 0 -289 198q-40 124 -40 505q0 379 40 500q65 194 289 194q86 0 150 -28q14 14 47 14h387q34 0 48 -11q18 -15 18 -69v-76q0 -68 -31 -80q-13 -6 -35 -6h-201q-27 0 -33 -14q-4 -9 -4 -31v-190
q0 -30 6 -36.5t31 -6.5h103q59 0 59 -70v-104q0 -68 -59 -68h-103q-24 0 -30.5 -7t-6.5 -24v-286q0 -45 43 -45h203q74 0 74 -88v-66zM444 686q0 284 -12 353q-15 83 -78 83q-79 0 -93 -180q1 9 1 -256q0 -283 14 -357q15 -87 78 -87t79 87q11 66 11 357z" />
    <glyph glyph-name="oe" unicode="&#x153;" horiz-adv-x="1030" 
d="M1020 88q0 -88 -70 -88h-399q-30 0 -47 10q-64 -27 -150 -27q-224 0 -289 198q-40 124 -40 505q0 379 40 500q65 194 289 194q86 0 150 -28q14 14 47 14h387q34 0 48 -11q18 -15 18 -69v-76q0 -68 -31 -80q-13 -6 -35 -6h-201q-27 0 -33 -14q-4 -9 -4 -31v-190
q0 -30 6 -36.5t31 -6.5h103q59 0 59 -70v-104q0 -68 -59 -68h-103q-24 0 -30.5 -7t-6.5 -24v-286q0 -45 43 -45h203q74 0 74 -88v-66zM444 686q0 284 -12 353q-15 83 -78 83q-79 0 -93 -180q1 9 1 -256q0 -283 14 -357q15 -87 78 -87t79 87q11 66 11 357z" />
    <glyph glyph-name="endash" unicode="&#x2013;" horiz-adv-x="674" 
d="M653 645q0 -53 -10 -71q-13 -21 -53 -21h-506q-41 0 -53 21q-11 18 -11 71v121q0 53 11.5 72.5t52.5 19.5h506q40 0 53 -21q10 -18 10 -71v-121z" />
    <glyph glyph-name="emdash" unicode="&#x2014;" horiz-adv-x="909" 
d="M887 645q0 -53 -10 -71q-13 -21 -54 -21h-737q-41 0 -53 21q-10 18 -10 71v121q0 53 11 72.5t52 19.5h737q41 0 54 -21q10 -18 10 -71v-121z" />
    <glyph glyph-name="quotedblleft" unicode="&#x201c;" horiz-adv-x="516" 
d="M504 1022q0 -90 -68 -90h-84q-63 0 -63 84v84q0 46 8 71l49 156q12 39 45 39h76q35 0 20 -39l-43 -117q-13 -36 11 -36h14q35 0 35 -76v-76zM227 1022q0 -90 -67 -90h-84q-64 0 -64 84v84q0 47 8 71l52 156q12 39 45 39h73q35 0 21 -39l-41 -117q-13 -36 10 -36h15
q20 0 26 -16t6 -60v-76z" />
    <glyph glyph-name="quotedblright" unicode="&#x201d;" horiz-adv-x="516" 
d="M504 1198q0 -47 -8 -72l-52 -155q-12 -39 -45 -39h-73q-35 0 -21 39l41 116q13 37 -10 37h-14q-21 0 -27 15.5t-6 60.5v76q0 90 67 90h84q64 0 64 -84v-84zM227 1198q0 -46 -8 -72l-49 -155q-12 -39 -45 -39h-76q-35 0 -20 39l43 116q13 37 -11 37h-14q-35 0 -35 76v76
q0 90 68 90h84q63 0 63 -84v-84z" />
    <glyph glyph-name="quoteleft" unicode="&#x2018;" horiz-adv-x="231" 
d="M223 1022q0 -90 -67 -90h-84q-64 0 -64 84v84q0 47 8 71l52 156q12 39 45 39h73q35 0 21 -39l-41 -117q-13 -36 10 -36h14q21 0 27 -16t6 -60v-76z" />
    <glyph glyph-name="quoteright" unicode="&#x2019;" horiz-adv-x="231" 
d="M223 1198q0 -47 -8 -72l-51 -155q-13 -39 -45 -39h-74q-34 0 -20 39l41 116q12 37 -11 37h-14q-20 0 -26.5 15.5t-6.5 60.5v76q0 90 68 90h84q63 0 63 -84v-84z" />
    <glyph glyph-name="ydieresis" unicode="&#xff;" horiz-adv-x="705" 
d="M698 1294l-225 -772v-434q0 -56 -14 -72t-53 -16h-107q-45 0 -57 21q-11 18 -11 67v434l-225 772q-20 72 37 72h137q42 0 53 -49l105 -445q7 -22 14 -22t15 22l104 445q12 49 53 49h138q57 0 36 -72zM576 1480q0 -63 -64 -63h-59q-64 0 -64 63v79q0 63 64 63h59
q64 0 64 -63v-79zM328 1480q0 -63 -64 -63h-59q-64 0 -64 63v79q0 63 64 63h59q64 0 64 -63v-79z" />
    <glyph glyph-name="Ydieresis" unicode="&#x178;" horiz-adv-x="705" 
d="M698 1294l-225 -772v-434q0 -56 -14 -72t-53 -16h-107q-45 0 -57 21q-11 18 -11 67v434l-225 772q-20 72 37 72h137q42 0 53 -49l105 -445q7 -22 14 -22t15 22l104 445q12 49 53 49h138q57 0 36 -72zM576 1480q0 -63 -64 -63h-59q-64 0 -64 63v79q0 63 64 63h59
q64 0 64 -63v-79zM328 1480q0 -63 -64 -63h-59q-64 0 -64 63v79q0 63 64 63h59q64 0 64 -63v-79z" />
    <glyph glyph-name="currency" horiz-adv-x="854" 
d="M829 1311q0 -20 -14 -64l-29 -88q-14 -45 -34 -45q-11 0 -60 15.5t-94 15.5q-183 0 -219 -240h274q50 0 43 -26l-24 -99q-7 -26 -39 -26h-262q-2 -23 -2 -74q0 -57 2 -84h202q50 0 43 -27l-24 -98q-7 -27 -39 -27h-168q19 -233 172 -233q63 0 123 13.5t76 13.5
q41 0 41 -52v-90q0 -69 -31 -82q-79 -31 -227 -31q-354 0 -406 461h-74q-46 0 -39 29l25 94q8 29 33 29h43q-2 18 -2 70q0 59 2 88h-64q-46 0 -39 28l25 95q7 28 33 28h57q40 253 177 374q112 99 274 99q106 0 204 -35q41 -14 41 -32z" />
    <glyph glyph-name="currency" unicode="&#x20ac;" horiz-adv-x="854" 
d="M829 1311q0 -20 -14 -64l-29 -88q-14 -45 -34 -45q-11 0 -60 15.5t-94 15.5q-183 0 -219 -240h274q50 0 43 -26l-24 -99q-7 -26 -39 -26h-262q-2 -23 -2 -74q0 -57 2 -84h202q50 0 43 -27l-24 -98q-7 -27 -39 -27h-168q19 -233 172 -233q63 0 123 13.5t76 13.5
q41 0 41 -52v-90q0 -69 -31 -82q-79 -31 -227 -31q-354 0 -406 461h-74q-46 0 -39 29l25 94q8 29 33 29h43q-2 18 -2 70q0 59 2 88h-64q-46 0 -39 28l25 95q7 28 33 28h57q40 253 177 374q112 99 274 99q106 0 204 -35q41 -14 41 -32z" />
    <glyph glyph-name="currency" unicode="&#xa4;" horiz-adv-x="854" 
d="M829 1311q0 -20 -14 -64l-29 -88q-14 -45 -34 -45q-11 0 -60 15.5t-94 15.5q-183 0 -219 -240h274q50 0 43 -26l-24 -99q-7 -26 -39 -26h-262q-2 -23 -2 -74q0 -57 2 -84h202q50 0 43 -27l-24 -98q-7 -27 -39 -27h-168q19 -233 172 -233q63 0 123 13.5t76 13.5
q41 0 41 -52v-90q0 -69 -31 -82q-79 -31 -227 -31q-354 0 -406 461h-74q-46 0 -39 29l25 94q8 29 33 29h43q-2 18 -2 70q0 59 2 88h-64q-46 0 -39 28l25 95q7 28 33 28h57q40 253 177 374q112 99 274 99q106 0 204 -35q41 -14 41 -32z" />
    <glyph glyph-name="guilsinglleft" unicode="&#x2039;" horiz-adv-x="205" 
d="M195 369q0 -34 -27 -21l-125 90q-33 24 -33 86v264q0 59 27 78l125 92q12 9 19 9q14 0 14 -27v-137q0 -37 -15 -58l-65 -94l59 -84q21 -29 21 -53v-145z" />
    <glyph glyph-name="guilsinglright" unicode="&#x203a;" horiz-adv-x="205" 
d="M195 524q0 -62 -33 -86l-125 -90q-27 -13 -27 21v145q0 24 21 53l59 84l-65 94q-15 21 -15 58v137q0 27 14 27q7 0 19 -9l125 -92q27 -19 27 -78v-264z" />
    <glyph glyph-name="periodcentered" unicode="&#xb7;" horiz-adv-x="287" 
d="M266 645q0 -53 -10 -71q-13 -21 -53 -21h-119q-41 0 -53 21q-11 18 -11 71v121q0 53 11.5 72.5t52.5 19.5h119q40 0 53 -21q10 -18 10 -71v-121z" />
    <glyph glyph-name="periodcentered" unicode="&#x2219;" horiz-adv-x="287" 
d="M266 645q0 -53 -10 -71q-13 -21 -53 -21h-119q-41 0 -53 21q-11 18 -11 71v121q0 53 11.5 72.5t52.5 19.5h119q40 0 53 -21q10 -18 10 -71v-121z" />
    <glyph glyph-name="quotesinglbase" unicode="&#x201a;" horiz-adv-x="240" 
d="M227 74q0 -46 -8 -72l-49 -155q-12 -39 -45 -39h-76q-35 0 -20 39l43 117q13 36 -11 36h-14q-35 0 -35 76v76q0 90 68 90h84q63 0 63 -84v-84z" />
    <glyph glyph-name="quotedblbase" unicode="&#x201e;" horiz-adv-x="516" 
d="M504 74q0 -47 -8 -72l-52 -155q-12 -39 -45 -39h-73q-35 0 -21 39l41 117q13 36 -10 36h-14q-21 0 -27 15.5t-6 60.5v76q0 90 67 90h84q64 0 64 -84v-84zM227 74q0 -46 -8 -72l-49 -155q-12 -39 -45 -39h-76q-35 0 -20 39l43 117q13 36 -11 36h-14q-35 0 -35 76v76
q0 90 68 90h84q63 0 63 -84v-84z" />
    <glyph glyph-name="perthousand" unicode="&#x2030;" horiz-adv-x="1690" 
d="M1677 360q0 -214 -52 -299q-54 -87 -191 -87q-139 0 -192 87q-52 85 -52 299q0 202 44 277q52 88 200 88q147 0 199 -88q44 -75 44 -277zM500 1020q0 -215 -53 -301t-191 -86q-137 0 -190.5 86.5t-53.5 300.5q0 201 45 277q51 87 199 87t199 -87q45 -76 45 -277z
M842 1327l-412 -1300q-10 -30 -35 -30h-67q-38 0 -38 20q0 9 5 26l403 1292q11 33 45 33h62q40 0 40 -22q0 -8 -3 -19zM1124 360q0 -214 -52 -299q-54 -87 -191 -87q-138 0 -192 87q-52 85 -52 299q0 202 44 277q52 88 200 88q147 0 199 -88q44 -75 44 -277zM1493 350
q0 147 -7 178q-9 37 -50 37q-42 0 -52 -36t-10 -179q0 -155 -2 -130q8 -91 64 -91q53 0 60 93q-3 -37 -3 128zM315 1010q0 147 -7 177q-9 38 -50 38q-42 0 -52 -38q-9 -34 -9 -177q0 -156 -3 -130q9 -92 64 -92q53 0 60 93q-3 -37 -3 129zM940 350q0 147 -7 178
q-9 37 -50 37q-42 0 -52 -36t-10 -179q0 -155 -2 -130q8 -91 64 -91q53 0 60 93q-3 -37 -3 128z" />
    <glyph glyph-name="Acircumflex" unicode="&#xc2;" horiz-adv-x="760" 
d="M754 31q4 -31 -31 -31h-195q-29 0 -34 37l-39 289q-5 32 -35 32h-86q-31 0 -35 -32l-33 -293q-3 -33 -37 -33h-188q-39 0 -35 31l166 1257q10 78 86 78h238q68 0 79 -80zM430 623l-39 471q-2 30 -16 30t-17 -32l-34 -469q-4 -23 26 -23h51q31 0 29 23zM617 1432
q0 -15 -19 -15h-111q-31 0 -47 20l-59 78l-58 -78q-15 -20 -47 -20h-110q-19 0 -19 15q0 9 4 18l70 134q16 31 55 31h211q39 0 55 -31l70 -134q5 -9 5 -18z" />
    <glyph glyph-name="Ecircumflex" unicode="&#xca;" horiz-adv-x="616" 
d="M610 88q0 -88 -69 -88h-418q-48 0 -61 27q-9 19 -9 63v1186q0 90 70 90h405q35 0 48 -11q18 -15 18 -69v-76q0 -68 -30 -80q-13 -6 -36 -6h-200q-28 0 -34 -14q-3 -9 -3 -31v-190q0 -30 5.5 -36.5t31.5 -6.5h102q59 0 59 -70v-104q0 -68 -59 -68h-102q-24 0 -30.5 -7
t-6.5 -24v-286q0 -45 43 -45h203q73 0 73 -88v-66zM535 1432q0 -15 -19 -15h-111q-31 0 -47 20l-59 78l-58 -78q-15 -20 -47 -20h-110q-19 0 -19 15q0 9 4 18l70 134q16 31 55 31h211q39 0 55 -31l70 -134q5 -9 5 -18z" />
    <glyph glyph-name="Aacute" unicode="&#xc1;" horiz-adv-x="760" 
d="M754 31q4 -31 -31 -31h-195q-29 0 -34 37l-39 289q-5 32 -35 32h-86q-31 0 -35 -32l-33 -293q-3 -33 -37 -33h-188q-39 0 -35 31l166 1257q10 78 86 78h238q68 0 79 -80zM430 623l-39 471q-2 30 -16 30t-17 -32l-34 -469q-4 -23 26 -23h51q31 0 29 23zM614 1589
q0 -15 -20 -33l-142 -120q0 -1 -1 -2q-20 -17 -44 -17h-127q-21 0 -21 18q0 13 9 27l92 121q25 33 45 33h181q28 0 28 -27z" />
    <glyph glyph-name="Edieresis" unicode="&#xcb;" horiz-adv-x="616" 
d="M610 88q0 -88 -69 -88h-418q-48 0 -61 27q-9 19 -9 63v1186q0 90 70 90h405q35 0 48 -11q18 -15 18 -69v-76q0 -68 -30 -80q-13 -6 -36 -6h-200q-28 0 -34 -14q-3 -9 -3 -31v-190q0 -30 5.5 -36.5t31.5 -6.5h102q59 0 59 -70v-104q0 -68 -59 -68h-102q-24 0 -30.5 -7
t-6.5 -24v-286q0 -45 43 -45h203q73 0 73 -88v-66zM518 1480q0 -63 -64 -63h-59q-64 0 -64 63v79q0 63 64 63h59q64 0 64 -63v-79zM270 1480q0 -63 -64 -63h-59q-64 0 -64 63v79q0 63 64 63h59q64 0 64 -63v-79z" />
    <glyph glyph-name="Egrave" unicode="&#xc8;" horiz-adv-x="616" 
d="M610 88q0 -88 -69 -88h-418q-48 0 -61 27q-9 19 -9 63v1186q0 90 70 90h405q35 0 48 -11q18 -15 18 -69v-76q0 -68 -30 -80q-13 -6 -36 -6h-200q-28 0 -34 -14q-3 -9 -3 -31v-190q0 -30 5.5 -36.5t31.5 -6.5h102q59 0 59 -70v-104q0 -68 -59 -68h-102q-24 0 -30.5 -7
t-6.5 -24v-286q0 -45 43 -45h203q73 0 73 -88v-66zM445 1435q0 -18 -23 -18h-127q-23 0 -45 19l-140 120q-20 18 -20 33q0 27 27 27h180q20 0 45 -33l93 -121q10 -14 10 -27z" />
    <glyph glyph-name="Iacute" unicode="&#xcd;" horiz-adv-x="348" 
d="M295 86q0 -49 -11 -66q-13 -20 -57 -20h-102q-39 0 -54 14q-18 16 -18 76v1184q0 92 68 92h110q64 0 64 -92v-1188zM373 1589q0 -15 -20 -33l-142 -120q0 -1 -1 -2q-20 -17 -44 -17h-127q-21 0 -21 18q0 13 9 27l92 121q25 33 45 33h181q28 0 28 -27z" />
    <glyph glyph-name="Icircumflex" unicode="&#xce;" horiz-adv-x="348" 
d="M295 86q0 -49 -11 -66q-13 -20 -57 -20h-102q-39 0 -54 14q-18 16 -18 76v1184q0 92 68 92h110q64 0 64 -92v-1188zM413 1432q0 -15 -19 -15h-111q-31 0 -47 20l-59 78l-58 -78q-15 -20 -47 -20h-110q-19 0 -19 15q0 9 4 18l70 134q16 31 55 31h211q39 0 55 -31l70 -134
q5 -9 5 -18z" />
    <glyph glyph-name="Idieresis" unicode="&#xcf;" horiz-adv-x="348" 
d="M295 86q0 -49 -11 -66q-13 -20 -57 -20h-102q-39 0 -54 14q-18 16 -18 76v1184q0 92 68 92h110q64 0 64 -92v-1188zM399 1480q0 -63 -64 -63h-59q-64 0 -64 63v79q0 63 64 63h59q64 0 64 -63v-79zM151 1480q0 -63 -64 -63h-59q-64 0 -64 63v79q0 63 64 63h59q64 0 64 -63
v-79z" />
    <glyph glyph-name="Igrave" unicode="&#xcc;" horiz-adv-x="348" 
d="M295 86q0 -49 -11 -66q-13 -20 -57 -20h-102q-39 0 -54 14q-18 16 -18 76v1184q0 92 68 92h110q64 0 64 -92v-1188zM327 1435q0 -18 -23 -18h-127q-23 0 -45 19l-140 120q-20 18 -20 33q0 27 27 27h180q20 0 45 -33l93 -121q10 -14 10 -27z" />
    <glyph glyph-name="Oacute" unicode="&#xd3;" 
d="M694 686q0 -380 -41 -505q-66 -198 -288 -198q-224 0 -290 198q-40 124 -40 505q0 379 40 500q65 194 290 194q223 0 288 -194q41 -123 41 -500zM455 686q0 284 -13 353q-15 83 -77 83q-64 0 -79 -83q-12 -64 -12 -353q0 -285 13 -357q15 -87 78 -87t78 87q12 66 12 357z
M569 1589q0 -15 -20 -33l-142 -120q0 -1 -1 -2q-20 -17 -44 -17h-127q-21 0 -21 18q0 13 9 27l92 121q25 33 45 33h181q28 0 28 -27z" />
    <glyph glyph-name="Ocircumflex" unicode="&#xd4;" 
d="M694 686q0 -380 -41 -505q-66 -198 -288 -198q-224 0 -290 198q-40 124 -40 505q0 379 40 500q65 194 290 194q223 0 288 -194q41 -123 41 -500zM455 686q0 284 -13 353q-15 83 -77 83q-64 0 -79 -83q-12 -64 -12 -353q0 -285 13 -357q15 -87 78 -87t78 87q12 66 12 357z
M591 1432q0 -15 -19 -15h-111q-31 0 -47 20l-59 78l-58 -78q-15 -20 -47 -20h-110q-19 0 -19 15q0 9 4 18l70 134q16 31 55 31h211q39 0 55 -31l70 -134q5 -9 5 -18z" />
    <glyph glyph-name="Ograve" unicode="&#xd2;" 
d="M694 686q0 -380 -41 -505q-66 -198 -288 -198q-224 0 -290 198q-40 124 -40 505q0 379 40 500q65 194 290 194q223 0 288 -194q41 -123 41 -500zM455 686q0 284 -13 353q-15 83 -77 83q-64 0 -79 -83q-12 -64 -12 -353q0 -285 13 -357q15 -87 78 -87t78 87q12 66 12 357z
M490 1435q0 -18 -23 -18h-127q-23 0 -45 19l-140 120q-20 18 -20 33q0 27 27 27h180q20 0 45 -33l93 -121q10 -14 10 -27z" />
    <glyph glyph-name="Uacute" unicode="&#xda;" horiz-adv-x="741" 
d="M700 389q0 -196 -57 -287q-77 -119 -276 -119q-193 0 -265 103q-61 87 -61 293v897q0 48 12 67q16 23 60 23h108q41 0 53 -24q9 -16 9 -60v-934q0 -106 90 -106q86 0 86 108v932q0 49 12 66.5t53 17.5h113q49 0 58 -30q5 -17 5 -54v-893zM575 1589q0 -15 -20 -33
l-142 -120q0 -1 -1 -2q-20 -17 -44 -17h-127q-21 0 -21 18q0 13 9 27l92 121q25 33 45 33h181q28 0 28 -27z" />
    <glyph glyph-name="Ucircumflex" unicode="&#xdb;" horiz-adv-x="741" 
d="M700 389q0 -196 -57 -287q-77 -119 -276 -119q-193 0 -265 103q-61 87 -61 293v897q0 48 12 67q16 23 60 23h108q41 0 53 -24q9 -16 9 -60v-934q0 -106 90 -106q86 0 86 108v932q0 49 12 66.5t53 17.5h113q49 0 58 -30q5 -17 5 -54v-893zM595 1432q0 -15 -19 -15h-111
q-31 0 -47 20l-59 78l-58 -78q-15 -20 -47 -20h-110q-19 0 -19 15q0 9 4 18l70 134q16 31 55 31h211q39 0 55 -31l70 -134q5 -9 5 -18z" />
    <glyph glyph-name="Ugrave" unicode="&#xd9;" horiz-adv-x="741" 
d="M700 389q0 -196 -57 -287q-77 -119 -276 -119q-193 0 -265 103q-61 87 -61 293v897q0 48 12 67q16 23 60 23h108q41 0 53 -24q9 -16 9 -60v-934q0 -106 90 -106q86 0 86 108v932q0 49 12 66.5t53 17.5h113q49 0 58 -30q5 -17 5 -54v-893zM484 1435q0 -18 -23 -18h-127
q-23 0 -45 19l-140 120q-20 18 -20 33q0 27 27 27h180q20 0 45 -33l93 -121q10 -14 10 -27z" />
    <glyph glyph-name="dotlessi" unicode="&#x131;" horiz-adv-x="348" 
d="M295 86q0 -49 -11 -66q-13 -20 -57 -20h-102q-39 0 -54 14q-18 16 -18 76v1184q0 92 68 92h110q64 0 64 -92v-1188z" />
    <glyph glyph-name="circumflex" unicode="&#x2c6;" horiz-adv-x="485" 
d="M478 1432q0 -15 -19 -15h-111q-31 0 -47 20l-59 78l-58 -78q-15 -20 -47 -20h-110q-19 0 -19 15q0 9 4 18l70 134q16 31 55 31h211q39 0 55 -31l70 -134q5 -9 5 -18z" />
    <glyph glyph-name="tilde" unicode="&#x2dc;" horiz-adv-x="502" 
d="M492 1475q0 -58 -52 -58h-82q-11 0 -34 7l-145 43q-19 6 -25 6q-9 0 -9 -13v-11q0 -32 -32 -32h-52q-51 0 -51 53v88q0 58 51 58h82q12 0 35 -7l145 -43q19 -5 25 -5q8 0 8 12v11q0 32 33 32h51q52 0 52 -52v-89z" />
    <glyph glyph-name="macron" unicode="&#xaf;" horiz-adv-x="481" 
d="M471 1481q0 -41 -19.5 -52.5t-72.5 -11.5h-277q-53 0 -70 10q-22 13 -22 54v51q0 41 22 53q17 10 70 10h277q53 0 72.5 -11t19.5 -52v-51z" />
    <glyph glyph-name="macron" unicode="&#x2c9;" horiz-adv-x="481" 
d="M471 1481q0 -41 -19.5 -52.5t-72.5 -11.5h-277q-53 0 -70 10q-22 13 -22 54v51q0 41 22 53q17 10 70 10h277q53 0 72.5 -11t19.5 -52v-51z" />
    <glyph glyph-name="breve" unicode="&#x2d8;" horiz-adv-x="752" 
d="M709 1634q0 -86 -71 -144q-87 -73 -263 -73t-264 73q-70 58 -70 144q0 31 29 31h73q25 0 33 -29q16 -57 199 -57t198 57q8 29 33 29h74q29 0 29 -31z" />
    <glyph glyph-name="dotaccent" unicode="&#x2d9;" horiz-adv-x="227" 
d="M207 1480q0 -63 -64 -63h-59q-64 0 -64 63v79q0 63 64 63h59q64 0 64 -63v-79z" />
    <glyph glyph-name="ring" unicode="&#x2da;" horiz-adv-x="326" 
d="M326 1454q0 -72 -46.5 -120t-115.5 -48t-116.5 49t-47.5 121q0 77 46.5 126.5t117.5 49.5t116.5 -50t45.5 -128zM229 1452q0 76 -65 76q-66 0 -66 -74t66 -74q65 0 65 72z" />
    <glyph glyph-name="cedilla" unicode="&#xb8;" horiz-adv-x="252" 
d="M252 -112q0 -168 -107 -168h-73q-61 0 -69 36q-3 15 -3 46v45q0 44 24 56q17 8 56 8h43q27 0 27 31q0 18 -29 111h98q33 -107 33 -165z" />
    <glyph glyph-name="hungarumlaut" unicode="&#x2dd;" horiz-adv-x="432" 
d="M453 1575l-111 -127q-27 -31 -43 -31h-76q-11 0 -16 13q-5 14 6 32l68 111q26 43 41 43h116q23 0 23 -21q0 -10 -8 -20zM244 1575l-113 -127q-27 -31 -43 -31h-74q-20 0 -20 23q0 10 6 22l70 111q27 43 45 43h112q24 0 24 -23q0 -10 -7 -18z" />
    <glyph glyph-name="ogonek" unicode="&#x2db;" horiz-adv-x="297" 
d="M297 -167q0 -30 -29 -53q-73 -60 -143 -60q-125 0 -125 160q0 71 23 143l10 32h96l-6 -22q-19 -67 -19 -85q0 -56 50 -56q16 0 57 21q37 18 51 0q35 -44 35 -80z" />
    <glyph glyph-name="caron" unicode="&#x2c7;" horiz-adv-x="467" 
d="M470 1601q0 -9 -5 -18l-69 -134q-17 -32 -56 -32h-210q-39 0 -56 32l-69 134q-5 9 -5 18q0 14 19 14h111q31 0 47 -20l59 -77l57 77q15 20 47 20h111q19 0 19 -14z" />
    <glyph glyph-name="nonbreakingspace" unicode="&#xa0;" horiz-adv-x="410" 
 />
    <glyph glyph-name=".null" unicode="&#xe001;" horiz-adv-x="0" 
 />
    <glyph glyph-name="nonmarkingreturn" unicode="&#xe002;" horiz-adv-x="387" 
 />
    <glyph glyph-name="Lslash" unicode="&#x141;" horiz-adv-x="569" 
d="M563 88q0 -88 -76 -88h-366q-45 0 -57 22q-11 18 -11 68v382l-12 -7q-19 -12 -34 -12q-31 0 -31 45v96q0 37 47 65l30 19v600q0 88 68 88h108q43 0 56 -24q10 -18 10 -64v-454l78 46q19 12 35 12q45 0 45 -46v-93q0 -29 -43 -55l-115 -69v-334q0 -43 33 -43h166
q69 0 69 -86v-68z" />
    <glyph glyph-name="lslash" unicode="&#x142;" horiz-adv-x="569" 
d="M563 88q0 -88 -76 -88h-366q-45 0 -57 22q-11 18 -11 68v382l-12 -7q-19 -12 -34 -12q-31 0 -31 45v96q0 37 47 65l30 19v600q0 88 68 88h108q43 0 56 -24q10 -18 10 -64v-454l78 46q19 12 35 12q45 0 45 -46v-93q0 -29 -43 -55l-115 -69v-334q0 -43 33 -43h166
q69 0 69 -86v-68z" />
    <glyph glyph-name="Scaron" unicode="&#x160;" horiz-adv-x="618" 
d="M608 219q0 -219 -219 -219h-305q-42 0 -55 18t-13 66v72q0 64 22 77q13 9 44 9h211q55 0 55 54q0 23 -12 46l-232 436q-94 178 -94 340q0 136 63 194q59 54 191 54h234q57 0 57 -74v-90q0 -78 -63 -78h-183q-63 0 -63 -58q0 -30 18 -62l219 -404q125 -230 125 -381z
M544 1601q0 -9 -5 -18l-69 -134q-17 -32 -56 -32h-210q-39 0 -56 32l-69 134q-5 9 -5 18q0 14 19 14h111q31 0 47 -20l59 -77l57 77q15 20 47 20h111q19 0 19 -14z" />
    <glyph glyph-name="scaron" unicode="&#x161;" horiz-adv-x="618" 
d="M608 219q0 -219 -219 -219h-305q-42 0 -55 18t-13 66v72q0 64 22 77q13 9 44 9h211q55 0 55 54q0 23 -12 46l-232 436q-94 178 -94 340q0 136 63 194q59 54 191 54h234q57 0 57 -74v-90q0 -78 -63 -78h-183q-63 0 -63 -58q0 -30 18 -62l219 -404q125 -230 125 -381z
M544 1601q0 -9 -5 -18l-69 -134q-17 -32 -56 -32h-210q-39 0 -56 32l-69 134q-5 9 -5 18q0 14 19 14h111q31 0 47 -20l59 -77l57 77q15 20 47 20h111q19 0 19 -14z" />
    <glyph glyph-name="Zcaron" unicode="&#x17d;" horiz-adv-x="637" 
d="M621 84q0 -69 -38 -80q-14 -4 -36 -4h-465q-43 0 -56 21q-10 17 -10 61v154q0 69 33 141l326 710q17 37 -17 37h-256q-47 0 -60 21q-7 13 -7 63v72q0 53 12 69.5t53 16.5h457q61 0 61 -80v-172q0 -41 -28 -104l-326 -719q-22 -49 19 -49h272q37 0 51.5 -16.5t14.5 -71.5
v-70zM562 1601q0 -9 -5 -18l-69 -134q-17 -32 -56 -32h-210q-39 0 -56 32l-69 134q-5 9 -5 18q0 14 19 14h111q31 0 47 -20l59 -77l57 77q15 20 47 20h111q19 0 19 -14z" />
    <glyph glyph-name="zcaron" unicode="&#x17e;" horiz-adv-x="637" 
d="M621 84q0 -69 -38 -80q-14 -4 -36 -4h-465q-43 0 -56 21q-10 17 -10 61v154q0 69 33 141l326 710q17 37 -17 37h-256q-47 0 -60 21q-7 13 -7 63v72q0 53 12 69.5t53 16.5h457q61 0 61 -80v-172q0 -41 -28 -104l-326 -719q-22 -49 19 -49h272q37 0 51.5 -16.5t14.5 -71.5
v-70zM562 1601q0 -9 -5 -18l-69 -134q-17 -32 -56 -32h-210q-39 0 -56 32l-69 134q-5 9 -5 18q0 14 19 14h111q31 0 47 -20l59 -77l57 77q15 20 47 20h111q19 0 19 -14z" />
    <glyph glyph-name="Eth" unicode="&#xd0;" horiz-adv-x="750" 
d="M715 684q0 -306 -19 -441q-21 -146 -77 -198q-49 -45 -162 -45h-332q-52 0 -64 26q-8 17 -8 62v530h-14q-52 0 -70 11q-21 12 -21 53v51q0 41 21 53q18 11 70 11h14v477q0 92 66 92h350q161 0 208 -154q38 -123 38 -528zM471 664q0 249 -5 321q-6 96 -30 121
q-17 18 -80 18q-43 0 -56 -10t-13 -51v-266h10q53 0 72.5 -11.5t19.5 -52.5v-51q0 -41 -19.5 -52.5t-72.5 -11.5h-10v-321q0 -38 11.5 -46.5t63.5 -8.5q56 0 73 18q23 24 30 111q6 74 6 293z" />
    <glyph glyph-name="eth" unicode="&#xf0;" horiz-adv-x="750" 
d="M715 684q0 -306 -19 -441q-21 -146 -77 -198q-49 -45 -162 -45h-332q-52 0 -64 26q-8 17 -8 62v530h-14q-52 0 -70 11q-21 12 -21 53v51q0 41 21 53q18 11 70 11h14v477q0 92 66 92h350q161 0 208 -154q38 -123 38 -528zM471 664q0 249 -5 321q-6 96 -30 121
q-17 18 -80 18q-43 0 -56 -10t-13 -51v-266h10q53 0 72.5 -11.5t19.5 -52.5v-51q0 -41 -19.5 -52.5t-72.5 -11.5h-10v-321q0 -38 11.5 -46.5t63.5 -8.5q56 0 73 18q23 24 30 111q6 74 6 293z" />
    <glyph glyph-name="Yacute" unicode="&#xdd;" horiz-adv-x="705" 
d="M698 1294l-225 -772v-434q0 -56 -14 -72t-53 -16h-107q-45 0 -57 21q-11 18 -11 67v434l-225 772q-20 72 37 72h137q42 0 53 -49l105 -445q7 -22 14 -22t15 22l104 445q12 49 53 49h138q57 0 36 -72zM549 1589q0 -15 -20 -33l-142 -120q0 -1 -1 -2q-20 -17 -44 -17h-127
q-21 0 -21 18q0 13 9 27l92 121q25 33 45 33h181q28 0 28 -27z" />
    <glyph glyph-name="yacute" unicode="&#xfd;" horiz-adv-x="705" 
d="M698 1294l-225 -772v-434q0 -56 -14 -72t-53 -16h-107q-45 0 -57 21q-11 18 -11 67v434l-225 772q-20 72 37 72h137q42 0 53 -49l105 -445q7 -22 14 -22t15 22l104 445q12 49 53 49h138q57 0 36 -72zM549 1589q0 -15 -20 -33l-142 -120q0 -1 -1 -2q-20 -17 -44 -17h-127
q-21 0 -21 18q0 13 9 27l92 121q25 33 45 33h181q28 0 28 -27z" />
    <glyph glyph-name="Thorn" unicode="&#xde;" horiz-adv-x="702" 
d="M696 709q0 -422 -229 -422h-172v-201q0 -49 -11 -66q-13 -20 -57 -20h-102q-39 0 -54 14q-18 16 -18 76v1184q0 92 68 92h110q64 0 64 -92v-129h139q262 0 262 -436zM455 711q0 118 -16 158q-14 34 -52 34h-92v-375h98q47 0 59 75q3 21 3 108z" />
    <glyph glyph-name="thorn" unicode="&#xfe;" horiz-adv-x="702" 
d="M696 709q0 -422 -229 -422h-172v-201q0 -49 -11 -66q-13 -20 -57 -20h-102q-39 0 -54 14q-18 16 -18 76v1184q0 92 68 92h110q64 0 64 -92v-129h139q262 0 262 -436zM455 711q0 118 -16 158q-14 34 -52 34h-92v-375h98q47 0 59 75q3 21 3 108z" />
    <glyph glyph-name="Gbreve" unicode="&#x11e;" 
d="M699 401q0 -216 -53 -299q-67 -105 -263 -105q-241 0 -306 166q-44 114 -42 515q2 398 31 513q44 175 203 175h278q44 0 57 -18.5t13 -67.5v-66q0 -90 -64 -90h-147q-68 0 -88 -17q-26 -25 -34 -119q-5 -73 -5 -316v-299q0 -131 108 -131q99 0 99 108v201q0 53 -25 53
h-59q-37 0 -37 64v94q0 47 12 63q15 21 64 21h194q64 0 64 -90v-355zM709 1634q0 -86 -71 -144q-87 -73 -263 -73t-264 73q-70 58 -70 144q0 31 29 31h73q25 0 33 -29q16 -57 199 -57t198 57q8 29 33 29h74q29 0 29 -31z" />
    <glyph glyph-name="gbreve" unicode="&#x11f;" 
d="M699 401q0 -216 -53 -299q-67 -105 -263 -105q-241 0 -306 166q-44 114 -42 515q2 398 31 513q44 175 203 175h278q44 0 57 -18.5t13 -67.5v-66q0 -90 -64 -90h-147q-68 0 -88 -17q-26 -25 -34 -119q-5 -73 -5 -316v-299q0 -131 108 -131q99 0 99 108v201q0 53 -25 53
h-59q-37 0 -37 64v94q0 47 12 63q15 21 64 21h194q64 0 64 -90v-355zM709 1634q0 -86 -71 -144q-87 -73 -263 -73t-264 73q-70 58 -70 144q0 31 29 31h73q25 0 33 -29q16 -57 199 -57t198 57q8 29 33 29h74q29 0 29 -31z" />
    <glyph glyph-name="Idotaccent" unicode="&#x130;" horiz-adv-x="348" 
d="M295 86q0 -49 -11 -66q-13 -20 -57 -20h-102q-39 0 -54 14q-18 16 -18 76v1184q0 92 68 92h110q64 0 64 -92v-1188zM262 1480q0 -63 -64 -63h-59q-64 0 -64 63v79q0 63 64 63h59q64 0 64 -63v-79z" />
    <glyph glyph-name="Scedilla" unicode="&#x15e;" horiz-adv-x="618" 
d="M608 219q0 -219 -219 -219h-305q-42 0 -55 18t-13 66v72q0 64 22 77q13 9 44 9h211q55 0 55 54q0 23 -12 46l-232 436q-94 178 -94 340q0 136 63 194q59 54 191 54h234q57 0 57 -74v-90q0 -78 -63 -78h-183q-63 0 -63 -58q0 -30 18 -62l219 -404q125 -230 125 -381z
M399 -112q0 -168 -107 -168h-73q-61 0 -69 36q-3 15 -3 46v45q0 44 24 56q17 8 56 8h43q27 0 27 31q0 18 -29 111h98q33 -107 33 -165z" />
    <glyph glyph-name="scedilla" unicode="&#x15f;" horiz-adv-x="618" 
d="M608 219q0 -219 -219 -219h-305q-42 0 -55 18t-13 66v72q0 64 22 77q13 9 44 9h211q55 0 55 54q0 23 -12 46l-232 436q-94 178 -94 340q0 136 63 194q59 54 191 54h234q57 0 57 -74v-90q0 -78 -63 -78h-183q-63 0 -63 -58q0 -30 18 -62l219 -404q125 -230 125 -381z
M399 -112q0 -168 -107 -168h-73q-61 0 -69 36q-3 15 -3 46v45q0 44 24 56q17 8 56 8h43q27 0 27 31q0 18 -29 111h98q33 -107 33 -165z" />
    <glyph glyph-name="Cacute" unicode="&#x106;" horiz-adv-x="594" 
d="M588 1202q0 -50 -14.5 -64t-53.5 -14h-155q-60 0 -72 -60q-12 -65 -12 -384q0 -288 -3 -254q12 -184 82 -184h160q66 0 66 -70v-98q0 -74 -62 -74h-243q-155 0 -200.5 125t-45.5 532q0 641 -6 283q3 190 47 292q59 134 194 134h254q64 0 64 -72v-92zM553 1589
q0 -15 -20 -33l-142 -120q0 -1 -1 -2q-20 -17 -44 -17h-127q-21 0 -21 18q0 13 9 27l92 121q25 33 45 33h181q28 0 28 -27z" />
    <glyph glyph-name="cacute" unicode="&#x107;" horiz-adv-x="594" 
d="M588 1202q0 -50 -14.5 -64t-53.5 -14h-155q-60 0 -72 -60q-12 -65 -12 -384q0 -288 -3 -254q12 -184 82 -184h160q66 0 66 -70v-98q0 -74 -62 -74h-243q-154 0 -200 125t-46 532q0 641 -6 283q3 190 47 292q59 134 194 134h254q64 0 64 -72v-92zM553 1589q0 -15 -20 -33
l-142 -120q0 -1 -1 -2q-20 -17 -44 -17h-127q-21 0 -21 18q0 13 9 27l92 121q25 33 45 33h181q28 0 28 -27z" />
    <glyph glyph-name="Ccaron" unicode="&#x10c;" horiz-adv-x="594" 
d="M588 1202q0 -50 -14.5 -64t-53.5 -14h-155q-60 0 -72 -60q-12 -65 -12 -384q0 -288 -3 -254q12 -184 82 -184h160q66 0 66 -70v-98q0 -74 -62 -74h-243q-155 0 -200.5 125t-45.5 532q0 641 -6 283q3 190 47 292q59 134 194 134h254q64 0 64 -72v-92zM576 1601
q0 -9 -5 -18l-69 -134q-17 -32 -56 -32h-210q-39 0 -56 32l-69 134q-5 9 -5 18q0 14 19 14h111q31 0 47 -20l59 -77l57 77q15 20 47 20h111q19 0 19 -14z" />
    <glyph glyph-name="ccaron" unicode="&#x10d;" horiz-adv-x="594" 
d="M588 1202q0 -50 -14.5 -64t-53.5 -14h-155q-60 0 -72 -60q-12 -65 -12 -384q0 -288 -3 -254q12 -184 82 -184h160q66 0 66 -70v-98q0 -74 -62 -74h-243q-154 0 -200 125t-46 532q0 641 -6 283q3 190 47 292q59 134 194 134h254q64 0 64 -72v-92zM576 1601q0 -9 -5 -18
l-69 -134q-17 -32 -56 -32h-210q-39 0 -56 32l-69 134q-5 9 -5 18q0 14 19 14h111q31 0 47 -20l59 -77l57 77q15 20 47 20h111q19 0 19 -14z" />
    <glyph glyph-name="dcroat" unicode="&#x111;" horiz-adv-x="750" 
d="M715 684q0 -306 -19 -441q-21 -146 -77 -198q-49 -45 -162 -45h-332q-52 0 -64 26q-8 17 -8 62v530h-14q-52 0 -70 11q-21 12 -21 53v51q0 41 21 53q18 11 70 11h14v477q0 92 66 92h350q161 0 208 -154q38 -123 38 -528zM471 664q0 249 -5 321q-6 96 -30 121
q-17 18 -80 18q-43 0 -56 -10t-13 -51v-266h10q53 0 72.5 -11.5t19.5 -52.5v-51q0 -41 -19.5 -52.5t-72.5 -11.5h-10v-321q0 -38 11.5 -46.5t63.5 -8.5q56 0 73 18q23 24 30 111q6 74 6 293z" />
    <glyph glyph-name="Amacron" unicode="&#x100;" horiz-adv-x="760" 
d="M754 31q4 -31 -31 -31h-195q-29 0 -34 37l-39 289q-5 32 -35 32h-86q-31 0 -35 -32l-33 -293q-3 -33 -37 -33h-188q-39 0 -35 31l166 1257q10 78 86 78h238q68 0 79 -80zM430 623l-39 471q-2 30 -16 30t-17 -32l-34 -469q-4 -23 26 -23h51q31 0 29 23zM598 1481
q0 -41 -19.5 -52.5t-72.5 -11.5h-277q-53 0 -70 10q-22 13 -22 54v51q0 41 22 53q17 10 70 10h277q53 0 72.5 -11t19.5 -52v-51z" />
    <glyph glyph-name="amacron" unicode="&#x101;" horiz-adv-x="760" 
d="M754 31q4 -31 -31 -31h-195q-29 0 -34 37l-39 289q-5 32 -35 32h-86q-31 0 -35 -32l-33 -293q-3 -33 -37 -33h-188q-39 0 -35 31l166 1257q10 78 86 78h238q68 0 79 -80zM430 623l-39 471q-2 30 -16 30t-17 -32l-34 -469q-4 -23 26 -23h51q31 0 29 23zM598 1481
q0 -41 -19.5 -52.5t-72.5 -11.5h-277q-53 0 -70 10q-22 13 -22 54v51q0 41 22 53q17 10 70 10h277q53 0 72.5 -11t19.5 -52v-51z" />
    <glyph glyph-name="Abreve" unicode="&#x102;" horiz-adv-x="760" 
d="M754 31q4 -31 -31 -31h-195q-29 0 -34 37l-39 289q-5 32 -35 32h-86q-31 0 -35 -32l-33 -293q-3 -33 -37 -33h-188q-39 0 -35 31l166 1257q10 78 86 78h238q68 0 79 -80zM430 623l-39 471q-2 30 -16 30t-17 -32l-34 -469q-4 -23 26 -23h51q31 0 29 23zM709 1634
q0 -86 -71 -144q-87 -73 -263 -73t-264 73q-70 58 -70 144q0 31 29 31h73q25 0 33 -29q16 -57 199 -57t198 57q8 29 33 29h74q29 0 29 -31z" />
    <glyph glyph-name="abreve" unicode="&#x103;" horiz-adv-x="760" 
d="M754 31q4 -31 -31 -31h-195q-29 0 -34 37l-39 289q-5 32 -35 32h-86q-31 0 -35 -32l-33 -293q-3 -33 -37 -33h-188q-39 0 -35 31l166 1257q10 78 86 78h238q68 0 79 -80zM430 623l-39 471q-2 30 -16 30t-17 -32l-34 -469q-4 -23 26 -23h51q31 0 29 23zM709 1634
q0 -86 -71 -144q-87 -73 -263 -73t-264 73q-70 58 -70 144q0 31 29 31h73q25 0 33 -29q16 -57 199 -57t198 57q8 29 33 29h74q29 0 29 -31z" />
    <glyph glyph-name="Aogonek" unicode="&#x104;" horiz-adv-x="760" 
d="M754 31q4 -31 -31 -31h-195q-29 0 -34 37l-39 289q-5 32 -35 32h-86q-31 0 -35 -32l-33 -293q-3 -33 -37 -33h-188q-39 0 -35 31l166 1257q10 78 86 78h238q68 0 79 -80zM430 623l-39 471q-2 30 -16 30t-17 -32l-34 -469q-4 -23 26 -23h51q31 0 29 23zM764 -167
q0 -30 -29 -53q-73 -60 -143 -60q-125 0 -125 160q0 71 23 143l10 32h96l-6 -22q-19 -67 -19 -85q0 -56 50 -56q16 0 57 21q37 18 51 0q35 -44 35 -80z" />
    <glyph glyph-name="aogonek" unicode="&#x105;" horiz-adv-x="760" 
d="M754 31q4 -31 -31 -31h-195q-29 0 -34 37l-39 289q-5 32 -35 32h-86q-31 0 -35 -32l-33 -293q-3 -33 -37 -33h-188q-39 0 -35 31l166 1257q10 78 86 78h238q68 0 79 -80zM430 623l-39 471q-2 30 -16 30t-17 -32l-34 -469q-4 -23 26 -23h51q31 0 29 23zM764 -167
q0 -30 -29 -53q-73 -60 -143 -60q-125 0 -125 160q0 71 23 143l10 32h96l-6 -22q-19 -67 -19 -85q0 -56 50 -56q16 0 57 21q37 18 51 0q35 -44 35 -80z" />
    <glyph glyph-name="Ccircumflex" unicode="&#x108;" horiz-adv-x="594" 
d="M588 1202q0 -50 -14.5 -64t-53.5 -14h-155q-60 0 -72 -60q-12 -65 -12 -384q0 -288 -3 -254q12 -184 82 -184h160q66 0 66 -70v-98q0 -74 -62 -74h-243q-155 0 -200.5 125t-45.5 532q0 641 -6 283q3 190 47 292q59 134 194 134h254q64 0 64 -72v-92zM554 1432
q0 -15 -19 -15h-111q-31 0 -47 20l-59 78l-58 -78q-15 -20 -47 -20h-110q-19 0 -19 15q0 9 4 18l70 134q16 31 55 31h211q39 0 55 -31l70 -134q5 -9 5 -18z" />
    <glyph glyph-name="ccircumflex" unicode="&#x109;" horiz-adv-x="594" 
d="M588 1202q0 -50 -14.5 -64t-53.5 -14h-155q-60 0 -72 -60q-12 -65 -12 -384q0 -288 -3 -254q12 -184 82 -184h160q66 0 66 -70v-98q0 -74 -62 -74h-243q-154 0 -200 125t-46 532q0 641 -6 283q3 190 47 292q59 134 194 134h254q64 0 64 -72v-92zM554 1432q0 -15 -19 -15
h-111q-31 0 -47 20l-59 78l-58 -78q-15 -20 -47 -20h-110q-19 0 -19 15q0 9 4 18l70 134q16 31 55 31h211q39 0 55 -31l70 -134q5 -9 5 -18z" />
    <glyph glyph-name="Cdot" unicode="&#x10a;" horiz-adv-x="594" 
d="M588 1202q0 -50 -14.5 -64t-53.5 -14h-155q-60 0 -72 -60q-12 -65 -12 -384q0 -288 -3 -254q12 -184 82 -184h160q66 0 66 -70v-98q0 -74 -62 -74h-243q-155 0 -200.5 125t-45.5 532q0 641 -6 283q3 190 47 292q59 134 194 134h254q64 0 64 -72v-92zM422 1480
q0 -63 -64 -63h-59q-64 0 -64 63v79q0 63 64 63h59q64 0 64 -63v-79z" />
    <glyph glyph-name="cdot" unicode="&#x10b;" horiz-adv-x="594" 
d="M588 1202q0 -50 -14.5 -64t-53.5 -14h-155q-60 0 -72 -60q-12 -65 -12 -384q0 -288 -3 -254q12 -184 82 -184h160q66 0 66 -70v-98q0 -74 -62 -74h-243q-154 0 -200 125t-46 532q0 641 -6 283q3 190 47 292q59 134 194 134h254q64 0 64 -72v-92zM422 1480q0 -63 -64 -63
h-59q-64 0 -64 63v79q0 63 64 63h59q64 0 64 -63v-79z" />
    <glyph glyph-name="Dcaron" unicode="&#x10e;" horiz-adv-x="750" 
d="M715 684q0 -306 -19 -441q-21 -146 -77 -198q-49 -45 -162 -45h-332q-52 0 -64 26q-8 17 -8 62v1186q0 92 66 92h350q161 0 208 -154q38 -123 38 -528zM471 664q0 249 -5 321q-6 96 -30 121q-17 18 -80 18q-43 0 -56 -10t-13 -51v-766q0 -38 11.5 -46.5t63.5 -8.5
q56 0 73 18q23 24 30 111q6 74 6 293zM556 1601q0 -9 -5 -18l-69 -134q-17 -32 -56 -32h-210q-39 0 -56 32l-69 134q-5 9 -5 18q0 14 19 14h111q31 0 47 -20l59 -77l57 77q15 20 47 20h111q19 0 19 -14z" />
    <glyph glyph-name="dcaron" unicode="&#x10f;" horiz-adv-x="750" 
d="M715 684q0 -306 -19 -441q-21 -146 -77 -198q-49 -45 -162 -45h-332q-52 0 -64 26q-8 17 -8 62v1186q0 92 66 92h350q161 0 208 -154q38 -123 38 -528zM471 664q0 249 -5 321q-6 96 -30 121q-17 18 -80 18q-43 0 -56 -10t-13 -51v-766q0 -38 11.5 -46.5t63.5 -8.5
q56 0 73 18q23 24 30 111q6 74 6 293zM556 1601q0 -9 -5 -18l-69 -134q-17 -32 -56 -32h-210q-39 0 -56 32l-69 134q-5 9 -5 18q0 14 19 14h111q31 0 47 -20l59 -77l57 77q15 20 47 20h111q19 0 19 -14z" />
    <glyph glyph-name="Dslash" unicode="&#x110;" horiz-adv-x="750" 
d="M715 684q0 -306 -19 -441q-21 -146 -77 -198q-49 -45 -162 -45h-332q-52 0 -64 26q-8 17 -8 62v530h-14q-52 0 -70 11q-21 12 -21 53v51q0 41 21 53q18 11 70 11h14v477q0 92 66 92h350q161 0 208 -154q38 -123 38 -528zM471 664q0 249 -5 321q-6 96 -30 121
q-17 18 -80 18q-43 0 -56 -10t-13 -51v-266h10q53 0 72.5 -11.5t19.5 -52.5v-51q0 -41 -19.5 -52.5t-72.5 -11.5h-10v-321q0 -38 11.5 -46.5t63.5 -8.5q56 0 73 18q23 24 30 111q6 74 6 293z" />
    <glyph glyph-name="Emacron" unicode="&#x112;" horiz-adv-x="616" 
d="M610 88q0 -88 -69 -88h-418q-48 0 -61 27q-9 19 -9 63v1186q0 90 70 90h405q35 0 48 -11q18 -15 18 -69v-76q0 -68 -30 -80q-13 -6 -36 -6h-200q-28 0 -34 -14q-3 -9 -3 -31v-190q0 -30 5.5 -36.5t31.5 -6.5h102q59 0 59 -70v-104q0 -68 -59 -68h-102q-24 0 -30.5 -7
t-6.5 -24v-286q0 -45 43 -45h203q73 0 73 -88v-66zM553 1481q0 -41 -19.5 -52.5t-72.5 -11.5h-277q-53 0 -70 10q-22 13 -22 54v51q0 41 22 53q17 10 70 10h277q53 0 72.5 -11t19.5 -52v-51z" />
    <glyph glyph-name="emacron" unicode="&#x113;" horiz-adv-x="616" 
d="M610 88q0 -88 -69 -88h-418q-48 0 -61 27q-9 19 -9 63v1186q0 90 70 90h405q35 0 48 -11q18 -15 18 -69v-76q0 -68 -30 -80q-13 -6 -36 -6h-200q-28 0 -34 -14q-3 -9 -3 -31v-190q0 -30 5.5 -36.5t31.5 -6.5h102q59 0 59 -70v-104q0 -68 -59 -68h-102q-24 0 -30.5 -7
t-6.5 -24v-286q0 -45 43 -45h203q73 0 73 -88v-66zM553 1481q0 -41 -19.5 -52.5t-72.5 -11.5h-277q-53 0 -70 10q-22 13 -22 54v51q0 41 22 53q17 10 70 10h277q53 0 72.5 -11t19.5 -52v-51z" />
    <glyph glyph-name="Ebreve" unicode="&#x114;" horiz-adv-x="616" 
d="M610 88q0 -88 -69 -88h-418q-48 0 -61 27q-9 19 -9 63v1186q0 90 70 90h405q35 0 48 -11q18 -15 18 -69v-76q0 -68 -30 -80q-13 -6 -36 -6h-200q-28 0 -34 -14q-3 -9 -3 -31v-190q0 -30 5.5 -36.5t31.5 -6.5h102q59 0 59 -70v-104q0 -68 -59 -68h-102q-24 0 -30.5 -7
t-6.5 -24v-286q0 -45 43 -45h203q73 0 73 -88v-66zM659 1634q0 -86 -71 -144q-87 -73 -263 -73t-264 73q-70 58 -70 144q0 31 29 31h73q25 0 33 -29q16 -57 199 -57t198 57q8 29 33 29h74q29 0 29 -31z" />
    <glyph glyph-name="ebreve" unicode="&#x115;" horiz-adv-x="616" 
d="M610 88q0 -88 -69 -88h-418q-48 0 -61 27q-9 19 -9 63v1186q0 90 70 90h405q35 0 48 -11q18 -15 18 -69v-76q0 -68 -30 -80q-13 -6 -36 -6h-200q-28 0 -34 -14q-3 -9 -3 -31v-190q0 -30 5.5 -36.5t31.5 -6.5h102q59 0 59 -70v-104q0 -68 -59 -68h-102q-24 0 -30.5 -7
t-6.5 -24v-286q0 -45 43 -45h203q73 0 73 -88v-66zM659 1634q0 -86 -71 -144q-87 -73 -263 -73t-264 73q-70 58 -70 144q0 31 29 31h73q25 0 33 -29q16 -57 199 -57t198 57q8 29 33 29h74q29 0 29 -31z" />
    <glyph glyph-name="Edot" unicode="&#x116;" horiz-adv-x="616" 
d="M610 88q0 -88 -69 -88h-418q-48 0 -61 27q-9 19 -9 63v1186q0 90 70 90h405q35 0 48 -11q18 -15 18 -69v-76q0 -68 -30 -80q-13 -6 -36 -6h-200q-28 0 -34 -14q-3 -9 -3 -31v-190q0 -30 5.5 -36.5t31.5 -6.5h102q59 0 59 -70v-104q0 -68 -59 -68h-102q-24 0 -30.5 -7
t-6.5 -24v-286q0 -45 43 -45h203q73 0 73 -88v-66zM404 1480q0 -63 -64 -63h-59q-64 0 -64 63v79q0 63 64 63h59q64 0 64 -63v-79z" />
    <glyph glyph-name="edot" unicode="&#x117;" horiz-adv-x="616" 
d="M610 88q0 -88 -69 -88h-418q-48 0 -61 27q-9 19 -9 63v1186q0 90 70 90h405q35 0 48 -11q18 -15 18 -69v-76q0 -68 -30 -80q-13 -6 -36 -6h-200q-28 0 -34 -14q-3 -9 -3 -31v-190q0 -30 5.5 -36.5t31.5 -6.5h102q59 0 59 -70v-104q0 -68 -59 -68h-102q-24 0 -30.5 -7
t-6.5 -24v-286q0 -45 43 -45h203q73 0 73 -88v-66zM404 1480q0 -63 -64 -63h-59q-64 0 -64 63v79q0 63 64 63h59q64 0 64 -63v-79z" />
    <glyph glyph-name="Eogonek" unicode="&#x118;" horiz-adv-x="616" 
d="M610 88q0 -88 -69 -88h-418q-48 0 -61 27q-9 19 -9 63v1186q0 90 70 90h405q35 0 48 -11q18 -15 18 -69v-76q0 -68 -30 -80q-13 -6 -36 -6h-200q-28 0 -34 -14q-3 -9 -3 -31v-190q0 -30 5.5 -36.5t31.5 -6.5h102q59 0 59 -70v-104q0 -68 -59 -68h-102q-24 0 -30.5 -7
t-6.5 -24v-286q0 -45 43 -45h203q73 0 73 -88v-66zM739 -167q0 -30 -29 -53q-73 -60 -143 -60q-125 0 -125 160q0 71 23 143l10 32h96l-6 -22q-19 -67 -19 -85q0 -56 50 -56q16 0 57 21q37 18 51 0q35 -44 35 -80z" />
    <glyph glyph-name="eogonek" unicode="&#x119;" horiz-adv-x="616" 
d="M610 88q0 -88 -69 -88h-418q-48 0 -61 27q-9 19 -9 63v1186q0 90 70 90h405q35 0 48 -11q18 -15 18 -69v-76q0 -68 -30 -80q-13 -6 -36 -6h-200q-28 0 -34 -14q-3 -9 -3 -31v-190q0 -30 5.5 -36.5t31.5 -6.5h102q59 0 59 -70v-104q0 -68 -59 -68h-102q-24 0 -30.5 -7
t-6.5 -24v-286q0 -45 43 -45h203q73 0 73 -88v-66zM739 -167q0 -30 -29 -53q-73 -60 -143 -60q-125 0 -125 160q0 71 23 143l10 32h96l-6 -22q-19 -67 -19 -85q0 -56 50 -56q16 0 57 21q37 18 51 0q35 -44 35 -80z" />
    <glyph glyph-name="Ecaron" unicode="&#x11a;" horiz-adv-x="616" 
d="M610 88q0 -88 -69 -88h-418q-48 0 -61 27q-9 19 -9 63v1186q0 90 70 90h405q35 0 48 -11q18 -15 18 -69v-76q0 -68 -30 -80q-13 -6 -36 -6h-200q-28 0 -34 -14q-3 -9 -3 -31v-190q0 -30 5.5 -36.5t31.5 -6.5h102q59 0 59 -70v-104q0 -68 -59 -68h-102q-24 0 -30.5 -7
t-6.5 -24v-286q0 -45 43 -45h203q73 0 73 -88v-66zM546 1601q0 -9 -5 -18l-69 -134q-17 -32 -56 -32h-210q-39 0 -56 32l-69 134q-5 9 -5 18q0 14 19 14h111q31 0 47 -20l59 -77l57 77q15 20 47 20h111q19 0 19 -14z" />
    <glyph glyph-name="ecaron" unicode="&#x11b;" horiz-adv-x="616" 
d="M610 88q0 -88 -69 -88h-418q-48 0 -61 27q-9 19 -9 63v1186q0 90 70 90h405q35 0 48 -11q18 -15 18 -69v-76q0 -68 -30 -80q-13 -6 -36 -6h-200q-28 0 -34 -14q-3 -9 -3 -31v-190q0 -30 5.5 -36.5t31.5 -6.5h102q59 0 59 -70v-104q0 -68 -59 -68h-102q-24 0 -30.5 -7
t-6.5 -24v-286q0 -45 43 -45h203q73 0 73 -88v-66zM546 1601q0 -9 -5 -18l-69 -134q-17 -32 -56 -32h-210q-39 0 -56 32l-69 134q-5 9 -5 18q0 14 19 14h111q31 0 47 -20l59 -77l57 77q15 20 47 20h111q19 0 19 -14z" />
    <glyph glyph-name="Gcircumflex" unicode="&#x11c;" 
d="M699 401q0 -216 -53 -299q-67 -105 -263 -105q-241 0 -306 166q-44 114 -42 515q2 398 31 513q44 175 203 175h278q44 0 57 -18.5t13 -67.5v-66q0 -90 -64 -90h-147q-68 0 -88 -17q-26 -25 -34 -119q-5 -73 -5 -316v-299q0 -131 108 -131q99 0 99 108v201q0 53 -25 53
h-59q-37 0 -37 64v94q0 47 12 63q15 21 64 21h194q64 0 64 -90v-355zM607 1432q0 -15 -19 -15h-111q-31 0 -47 20l-59 78l-58 -78q-15 -20 -47 -20h-110q-19 0 -19 15q0 9 4 18l70 134q16 31 55 31h211q39 0 55 -31l70 -134q5 -9 5 -18z" />
    <glyph glyph-name="gcircumflex" unicode="&#x11d;" 
d="M699 401q0 -216 -53 -299q-67 -105 -263 -105q-241 0 -306 166q-44 114 -42 515q2 398 31 513q44 175 203 175h278q44 0 57 -18.5t13 -67.5v-66q0 -90 -64 -90h-147q-68 0 -88 -17q-26 -25 -34 -119q-5 -73 -5 -316v-299q0 -131 108 -131q99 0 99 108v201q0 53 -25 53
h-59q-37 0 -37 64v94q0 47 12 63q15 21 64 21h194q64 0 64 -90v-355zM607 1432q0 -15 -19 -15h-111q-31 0 -47 20l-59 78l-58 -78q-15 -20 -47 -20h-110q-19 0 -19 15q0 9 4 18l70 134q16 31 55 31h211q39 0 55 -31l70 -134q5 -9 5 -18z" />
    <glyph glyph-name="Gdot" unicode="&#x120;" 
d="M699 401q0 -216 -53 -299q-67 -105 -263 -105q-241 0 -306 166q-44 114 -42 515q2 398 31 513q44 175 203 175h278q44 0 57 -18.5t13 -67.5v-66q0 -90 -64 -90h-147q-68 0 -88 -17q-26 -25 -34 -119q-5 -73 -5 -316v-299q0 -131 108 -131q99 0 99 108v201q0 53 -25 53
h-59q-37 0 -37 64v94q0 47 12 63q15 21 64 21h194q64 0 64 -90v-355zM483 1480q0 -63 -64 -63h-59q-64 0 -64 63v79q0 63 64 63h59q64 0 64 -63v-79z" />
    <glyph glyph-name="gdot" unicode="&#x121;" 
d="M699 401q0 -216 -53 -299q-67 -105 -263 -105q-241 0 -306 166q-44 114 -42 515q2 398 31 513q44 175 203 175h278q44 0 57 -18.5t13 -67.5v-66q0 -90 -64 -90h-147q-68 0 -88 -17q-26 -25 -34 -119q-5 -73 -5 -316v-299q0 -131 108 -131q99 0 99 108v201q0 53 -25 53
h-59q-37 0 -37 64v94q0 47 12 63q15 21 64 21h194q64 0 64 -90v-355zM483 1480q0 -63 -64 -63h-59q-64 0 -64 63v79q0 63 64 63h59q64 0 64 -63v-79z" />
    <glyph glyph-name="Gcedilla" unicode="&#x122;" 
d="M699 401q0 -216 -53 -299q-67 -105 -263 -105q-241 0 -306 166q-44 114 -42 515q2 398 31 513q44 175 203 175h278q44 0 57 -18.5t13 -67.5v-66q0 -90 -64 -90h-147q-68 0 -88 -17q-26 -25 -34 -119q-5 -73 -5 -316v-299q0 -131 108 -131q99 0 99 108v201q0 53 -25 53
h-59q-37 0 -37 64v94q0 47 12 63q15 21 64 21h194q64 0 64 -90v-355zM471 -112q0 -168 -107 -168h-73q-61 0 -69 36q-3 15 -3 46v45q0 44 24 56q17 8 56 8h43q27 0 27 31q0 18 -29 111h98q33 -107 33 -165z" />
    <glyph glyph-name="gcedilla" unicode="&#x123;" 
d="M699 401q0 -216 -53 -299q-67 -105 -263 -105q-241 0 -306 166q-44 114 -42 515q2 398 31 513q44 175 203 175h278q44 0 57 -18.5t13 -67.5v-66q0 -90 -64 -90h-147q-68 0 -88 -17q-26 -25 -34 -119q-5 -73 -5 -316v-299q0 -131 108 -131q99 0 99 108v201q0 53 -25 53
h-59q-37 0 -37 64v94q0 47 12 63q15 21 64 21h194q64 0 64 -90v-355zM471 -112q0 -168 -107 -168h-73q-61 0 -69 36q-3 15 -3 46v45q0 44 24 56q17 8 56 8h43q27 0 27 31q0 18 -29 111h98q33 -107 33 -165z" />
    <glyph glyph-name="Hcircumflex" unicode="&#x124;" horiz-adv-x="774" 
d="M721 90q0 -90 -68 -90h-108q-64 0 -64 88v473q0 43 -32 43h-123q-33 0 -33 -43v-473q0 -88 -64 -88h-108q-68 0 -68 90v1188q0 88 68 88h110q62 0 62 -86v-395q0 -39 31 -39h127q30 0 30 39v395q0 86 62 86h110q68 0 68 -88v-1188zM615 1432q0 -15 -19 -15h-111
q-31 0 -47 20l-59 78l-58 -78q-15 -20 -47 -20h-110q-19 0 -19 15q0 9 4 18l70 134q16 31 55 31h211q39 0 55 -31l70 -134q5 -9 5 -18z" />
    <glyph glyph-name="hcircumflex" unicode="&#x125;" horiz-adv-x="774" 
d="M721 90q0 -90 -68 -90h-108q-64 0 -64 88v473q0 43 -32 43h-123q-33 0 -33 -43v-473q0 -88 -64 -88h-108q-68 0 -68 90v1188q0 88 68 88h110q62 0 62 -86v-395q0 -39 31 -39h127q30 0 30 39v395q0 86 62 86h110q68 0 68 -88v-1188zM615 1432q0 -15 -19 -15h-111
q-31 0 -47 20l-59 78l-58 -78q-15 -20 -47 -20h-110q-19 0 -19 15q0 9 4 18l70 134q16 31 55 31h211q39 0 55 -31l70 -134q5 -9 5 -18z" />
    <glyph glyph-name="Hbar" unicode="&#x126;" horiz-adv-x="774" 
d="M788 1028q0 -60 -67 -63v-875q0 -90 -68 -90h-108q-64 0 -64 88v473q0 43 -32 43h-123q-33 0 -33 -43v-473q0 -88 -64 -88h-108q-68 0 -68 90v875q-66 3 -66 63v51q0 60 66 63v136q0 88 68 88h110q62 0 62 -86v-137h188v137q0 86 62 86h110q68 0 68 -88v-136
q67 -3 67 -63v-51zM481 885v80h-188v-80q0 -39 31 -39h127q30 0 30 39z" />
    <glyph glyph-name="hbar" unicode="&#x127;" horiz-adv-x="774" 
d="M788 1028q0 -60 -67 -63v-875q0 -90 -68 -90h-108q-64 0 -64 88v473q0 43 -32 43h-123q-33 0 -33 -43v-473q0 -88 -64 -88h-108q-68 0 -68 90v875q-66 3 -66 63v51q0 60 66 63v136q0 88 68 88h110q62 0 62 -86v-137h188v137q0 86 62 86h110q68 0 68 -88v-136
q67 -3 67 -63v-51zM481 885v80h-188v-80q0 -39 31 -39h127q30 0 30 39z" />
    <glyph glyph-name="Itilde" unicode="&#x128;" horiz-adv-x="348" 
d="M295 86q0 -49 -11 -66q-13 -20 -57 -20h-102q-39 0 -54 14q-18 16 -18 76v1184q0 92 68 92h110q64 0 64 -92v-1188zM413 1475q0 -58 -52 -58h-82q-11 0 -34 7l-145 43q-19 6 -25 6q-9 0 -9 -13v-11q0 -32 -32 -32h-52q-51 0 -51 53v88q0 58 51 58h82q12 0 35 -7l145 -43
q19 -5 25 -5q8 0 8 12v11q0 32 33 32h51q52 0 52 -52v-89z" />
    <glyph glyph-name="itilde" unicode="&#x129;" horiz-adv-x="348" 
d="M295 86q0 -49 -11 -66q-13 -20 -57 -20h-102q-39 0 -54 14q-18 16 -18 76v1184q0 92 68 92h110q64 0 64 -92v-1188zM413 1475q0 -58 -52 -58h-82q-11 0 -34 7l-145 43q-19 6 -25 6q-9 0 -9 -13v-11q0 -32 -32 -32h-52q-51 0 -51 53v88q0 58 51 58h82q12 0 35 -7l145 -43
q19 -5 25 -5q8 0 8 12v11q0 32 33 32h51q52 0 52 -52v-89z" />
    <glyph glyph-name="Imacron" unicode="&#x12a;" horiz-adv-x="348" 
d="M295 86q0 -49 -11 -66q-13 -20 -57 -20h-102q-39 0 -54 14q-18 16 -18 76v1184q0 92 68 92h110q64 0 64 -92v-1188zM409 1481q0 -41 -19.5 -52.5t-72.5 -11.5h-277q-53 0 -70 10q-22 13 -22 54v51q0 41 22 53q17 10 70 10h277q53 0 72.5 -11t19.5 -52v-51z" />
    <glyph glyph-name="imacron" unicode="&#x12b;" horiz-adv-x="348" 
d="M295 86q0 -49 -11 -66q-13 -20 -57 -20h-102q-39 0 -54 14q-18 16 -18 76v1184q0 92 68 92h110q64 0 64 -92v-1188zM409 1481q0 -41 -19.5 -52.5t-72.5 -11.5h-277q-53 0 -70 10q-22 13 -22 54v51q0 41 22 53q17 10 70 10h277q53 0 72.5 -11t19.5 -52v-51z" />
    <glyph glyph-name="Ibreve" unicode="&#x12c;" horiz-adv-x="348" 
d="M295 86q0 -49 -11 -66q-13 -20 -57 -20h-102q-39 0 -54 14q-18 16 -18 76v1184q0 92 68 92h110q64 0 64 -92v-1188zM511 1634q0 -86 -71 -144q-87 -73 -263 -73t-264 73q-70 58 -70 144q0 31 29 31h73q25 0 33 -29q16 -57 199 -57t198 57q8 29 33 29h74q29 0 29 -31z" />
    <glyph glyph-name="ibreve" unicode="&#x12d;" horiz-adv-x="348" 
d="M295 86q0 -49 -11 -66q-13 -20 -57 -20h-102q-39 0 -54 14q-18 16 -18 76v1184q0 92 68 92h110q64 0 64 -92v-1188zM511 1634q0 -86 -71 -144q-87 -73 -263 -73t-264 73q-70 58 -70 144q0 31 29 31h73q25 0 33 -29q16 -57 199 -57t198 57q8 29 33 29h74q29 0 29 -31z" />
    <glyph glyph-name="Iogonek" unicode="&#x12e;" horiz-adv-x="348" 
d="M295 86q0 -49 -11 -66q-13 -20 -57 -20h-102q-39 0 -54 14q-18 16 -18 76v1184q0 92 68 92h110q64 0 64 -92v-1188zM360 -167q0 -30 -29 -53q-73 -60 -143 -60q-125 0 -125 160q0 71 23 143l10 32h96l-6 -22q-19 -67 -19 -85q0 -56 50 -56q16 0 57 21q37 18 51 0
q35 -44 35 -80z" />
    <glyph glyph-name="iogonek" unicode="&#x12f;" horiz-adv-x="348" 
d="M295 86q0 -49 -11 -66q-13 -20 -57 -20h-102q-39 0 -54 14q-18 16 -18 76v1184q0 92 68 92h110q64 0 64 -92v-1188zM360 -167q0 -30 -29 -53q-73 -60 -143 -60q-125 0 -125 160q0 71 23 143l10 32h96l-6 -22q-19 -67 -19 -85q0 -56 50 -56q16 0 57 21q37 18 51 0
q35 -44 35 -80z" />
    <glyph glyph-name="IJ" unicode="&#x132;" horiz-adv-x="819" 
d="M295 86q0 -49 -11 -66q-13 -20 -57 -20h-102q-39 0 -54 14q-18 16 -18 76v1184q0 92 68 92h110q64 0 64 -92v-1188zM780 350q0 -151 -47 -237q-61 -113 -207 -113h-100q-52 0 -64 25q-8 16 -8 59v76q0 48 11 63q13 19 55 19h53q65 0 65 90v948q0 52 13.5 69t56.5 17h102
q49 0 61 -23q9 -17 9 -61v-932z" />
    <glyph glyph-name="ij" unicode="&#x133;" horiz-adv-x="819" 
d="M295 86q0 -49 -11 -66q-13 -20 -57 -20h-102q-39 0 -54 14q-18 16 -18 76v1184q0 92 68 92h110q64 0 64 -92v-1188zM780 350q0 -151 -47 -237q-61 -113 -207 -113h-100q-52 0 -64 25q-8 16 -8 59v76q0 48 11 63q13 19 55 19h53q65 0 65 90v948q0 52 13.5 69t56.5 17h102
q49 0 61 -23q9 -17 9 -61v-932z" />
    <glyph glyph-name="Jcircumflex" unicode="&#x134;" horiz-adv-x="471" 
d="M432 350q0 -151 -47 -237q-61 -113 -207 -113h-100q-52 0 -64 25q-8 16 -8 59v76q0 48 11 63q13 19 55 19h53q65 0 65 90v948q0 52 13.5 69t56.5 17h102q49 0 61 -23q9 -17 9 -61v-932zM496 1432q0 -15 -19 -15h-111q-31 0 -47 20l-59 78l-58 -78q-15 -20 -47 -20h-110
q-19 0 -19 15q0 9 4 18l70 134q16 31 55 31h211q39 0 55 -31l70 -134q5 -9 5 -18z" />
    <glyph glyph-name="jcircumflex" unicode="&#x135;" horiz-adv-x="471" 
d="M432 350q0 -151 -47 -237q-61 -113 -207 -113h-100q-52 0 -64 25q-8 16 -8 59v76q0 48 11 63q13 19 55 19h53q65 0 65 90v948q0 52 13.5 69t56.5 17h102q49 0 61 -23q9 -17 9 -61v-932zM496 1432q0 -15 -19 -15h-111q-31 0 -47 20l-59 78l-58 -78q-15 -20 -47 -20h-110
q-19 0 -19 15q0 9 4 18l70 134q16 31 55 31h211q39 0 55 -31l70 -134q5 -9 5 -18z" />
    <glyph glyph-name="Kcedilla" unicode="&#x136;" horiz-adv-x="768" 
d="M762 1341q0 -12 -6 -24l-203 -393q-10 -19 -12 -39q-2 -13 6 -43l207 -781q5 -21 5 -34q0 -27 -38 -27h-168q-45 0 -57 59l-97 455q-13 64 -24 64q-17 0 -62 -84q-18 -35 -18 -115v-293q0 -49 -11 -66q-13 -20 -57 -20h-102q-39 0 -54 14q-18 16 -18 76v1184q0 92 68 92
h110q64 0 64 -92v-305q0 -21 8 -23q11 -2 23 23l151 319q24 50 33 61q15 17 45 17h182q25 0 25 -25zM473 -112q0 -168 -107 -168h-73q-61 0 -69 36q-3 15 -3 46v45q0 44 24 56q17 8 56 8h43q27 0 27 31q0 18 -29 111h98q33 -107 33 -165z" />
    <glyph glyph-name="kcedilla" unicode="&#x137;" horiz-adv-x="768" 
d="M762 1341q0 -12 -6 -24l-203 -393q-10 -19 -12 -39q-2 -13 6 -43l207 -781q5 -21 5 -34q0 -27 -38 -27h-168q-45 0 -57 59l-97 455q-13 64 -24 64q-17 0 -62 -84q-18 -35 -18 -115v-293q0 -49 -11 -66q-13 -20 -57 -20h-102q-39 0 -54 14q-18 16 -18 76v1184q0 92 68 92
h110q64 0 64 -92v-305q0 -21 8 -23q11 -2 23 23l151 319q24 50 33 61q15 17 45 17h182q25 0 25 -25zM473 -112q0 -168 -107 -168h-73q-61 0 -69 36q-3 15 -3 46v45q0 44 24 56q17 8 56 8h43q27 0 27 31q0 18 -29 111h98q33 -107 33 -165z" />
    <glyph glyph-name="kgreenlandic" unicode="&#x138;" horiz-adv-x="768" 
d="M762 1341q0 -12 -6 -24l-203 -393q-10 -19 -12 -39q-2 -13 6 -43l207 -781q5 -21 5 -34q0 -27 -38 -27h-168q-45 0 -57 59l-97 455q-13 64 -24 64q-17 0 -62 -84q-18 -35 -18 -115v-293q0 -49 -11 -66q-13 -20 -57 -20h-102q-39 0 -54 14q-18 16 -18 76v1184q0 92 68 92
h110q64 0 64 -92v-305q0 -21 8 -23q11 -2 23 23l151 319q24 50 33 61q15 17 45 17h182q25 0 25 -25z" />
    <glyph glyph-name="Lacute" unicode="&#x139;" horiz-adv-x="569" 
d="M563 88q0 -88 -76 -88h-366q-45 0 -57 22q-11 18 -11 68v1188q0 88 68 88h108q43 0 56 -24q10 -18 10 -64v-993q0 -43 33 -43h166q69 0 69 -86v-68zM436 1589q0 -15 -20 -33l-142 -120q0 -1 -1 -2q-20 -17 -44 -17h-127q-21 0 -21 18q0 13 9 27l92 121q25 33 45 33h181
q28 0 28 -27z" />
    <glyph glyph-name="lacute" unicode="&#x13a;" horiz-adv-x="569" 
d="M563 88q0 -88 -76 -88h-366q-45 0 -57 22q-11 18 -11 68v1188q0 88 68 88h108q43 0 56 -24q10 -18 10 -64v-993q0 -43 33 -43h166q69 0 69 -86v-68zM436 1589q0 -15 -20 -33l-142 -120q0 -1 -1 -2q-20 -17 -44 -17h-127q-21 0 -21 18q0 13 9 27l92 121q25 33 45 33h181
q28 0 28 -27z" />
    <glyph glyph-name="Lcedilla" unicode="&#x13b;" horiz-adv-x="569" 
d="M563 88q0 -88 -76 -88h-366q-45 0 -57 22q-11 18 -11 68v1188q0 88 68 88h108q43 0 56 -24q10 -18 10 -64v-993q0 -43 33 -43h166q69 0 69 -86v-68zM385 -112q0 -168 -107 -168h-73q-61 0 -69 36q-3 15 -3 46v45q0 44 24 56q17 8 56 8h43q27 0 27 31q0 18 -29 111h98
q33 -107 33 -165z" />
    <glyph glyph-name="lcedilla" unicode="&#x13c;" horiz-adv-x="569" 
d="M563 88q0 -88 -76 -88h-366q-45 0 -57 22q-11 18 -11 68v1188q0 88 68 88h108q43 0 56 -24q10 -18 10 -64v-993q0 -43 33 -43h166q69 0 69 -86v-68zM385 -112q0 -168 -107 -168h-73q-61 0 -69 36q-3 15 -3 46v45q0 44 24 56q17 8 56 8h43q27 0 27 31q0 18 -29 111h98
q33 -107 33 -165z" />
    <glyph glyph-name="Lcaron" unicode="&#x13d;" horiz-adv-x="569" 
d="M563 88q0 -88 -76 -88h-366q-45 0 -57 22q-11 18 -11 68v1188q0 88 68 88h108q43 0 56 -24q10 -18 10 -64v-993q0 -43 33 -43h166q69 0 69 -86v-68zM553 1290q0 -47 -8 -72l-51 -155q-13 -39 -45 -39h-74q-34 0 -20 39l41 116q12 37 -11 37h-14q-20 0 -26.5 15.5
t-6.5 60.5v76q0 90 68 90h84q63 0 63 -84v-84z" />
    <glyph glyph-name="lcaron" unicode="&#x13e;" horiz-adv-x="569" 
d="M563 88q0 -88 -76 -88h-366q-45 0 -57 22q-11 18 -11 68v1188q0 88 68 88h108q43 0 56 -24q10 -18 10 -64v-993q0 -43 33 -43h166q69 0 69 -86v-68zM553 1290q0 -47 -8 -72l-51 -155q-13 -39 -45 -39h-74q-34 0 -20 39l41 116q12 37 -11 37h-14q-20 0 -26.5 15.5
t-6.5 60.5v76q0 90 68 90h84q63 0 63 -84v-84z" />
    <glyph glyph-name="Ldot" unicode="&#x13f;" horiz-adv-x="569" 
d="M563 88q0 -88 -76 -88h-366q-45 0 -57 22q-11 18 -11 68v1188q0 88 68 88h108q43 0 56 -24q10 -18 10 -64v-993q0 -43 33 -43h166q69 0 69 -86v-68zM526 762q0 -63 -64 -63h-59q-64 0 -64 63v79q0 63 64 63h59q64 0 64 -63v-79z" />
    <glyph glyph-name="ldot" unicode="&#x140;" horiz-adv-x="569" 
d="M563 88q0 -88 -76 -88h-366q-45 0 -57 22q-11 18 -11 68v1188q0 88 68 88h108q43 0 56 -24q10 -18 10 -64v-993q0 -43 33 -43h166q69 0 69 -86v-68zM526 762q0 -63 -64 -63h-59q-64 0 -64 63v79q0 63 64 63h59q64 0 64 -63v-79z" />
    <glyph glyph-name="Nacute" unicode="&#x143;" horiz-adv-x="801" 
d="M748 92q0 -60 -19 -78q-15 -14 -53 -14h-94q-38 0 -52 10.5t-28 52.5l-172 510q-10 29 -23 29q-10 0 -10 -39v-473q0 -90 -64 -90h-106q-74 0 -74 92v1184q0 60 19 77q15 13 53 13h94q38 0 52 -10.5t28 -52.5l172 -508q10 -29 23 -29q10 0 10 39v471q0 90 63 90h107
q74 0 74 -92v-1182zM647 1589q0 -15 -20 -33l-142 -120q0 -1 -1 -2q-20 -17 -44 -17h-127q-21 0 -21 18q0 13 9 27l92 121q25 33 45 33h181q28 0 28 -27z" />
    <glyph glyph-name="nacute" unicode="&#x144;" horiz-adv-x="801" 
d="M748 92q0 -60 -19 -78q-15 -14 -53 -14h-94q-38 0 -52 10.5t-28 52.5l-172 510q-10 29 -23 29q-10 0 -10 -39v-473q0 -90 -64 -90h-106q-74 0 -74 92v1184q0 60 19 77q15 13 53 13h94q38 0 52 -10.5t28 -52.5l172 -508q10 -29 23 -29q10 0 10 39v471q0 90 63 90h107
q74 0 74 -92v-1182zM647 1589q0 -15 -20 -33l-142 -120q0 -1 -1 -2q-20 -17 -44 -17h-127q-21 0 -21 18q0 13 9 27l92 121q25 33 45 33h181q28 0 28 -27z" />
    <glyph glyph-name="Ncedilla" unicode="&#x145;" horiz-adv-x="801" 
d="M748 92q0 -60 -19 -78q-15 -14 -53 -14h-94q-38 0 -52 10.5t-28 52.5l-172 510q-10 29 -23 29q-10 0 -10 -39v-473q0 -90 -64 -90h-106q-74 0 -74 92v1184q0 60 19 77q15 13 53 13h94q38 0 52 -10.5t28 -52.5l172 -508q10 -29 23 -29q10 0 10 39v471q0 90 63 90h107
q74 0 74 -92v-1182zM471 -112q0 -168 -107 -168h-73q-61 0 -69 36q-3 15 -3 46v45q0 44 24 56q17 8 56 8h43q27 0 27 31q0 18 -29 111h98q33 -107 33 -165z" />
    <glyph glyph-name="ncedilla" unicode="&#x146;" horiz-adv-x="801" 
d="M748 92q0 -60 -19 -78q-15 -14 -53 -14h-94q-38 0 -52 10.5t-28 52.5l-172 510q-10 29 -23 29q-10 0 -10 -39v-473q0 -90 -64 -90h-106q-74 0 -74 92v1184q0 60 19 77q15 13 53 13h94q38 0 52 -10.5t28 -52.5l172 -508q10 -29 23 -29q10 0 10 39v471q0 90 63 90h107
q74 0 74 -92v-1182zM471 -112q0 -168 -107 -168h-73q-61 0 -69 36q-3 15 -3 46v45q0 44 24 56q17 8 56 8h43q27 0 27 31q0 18 -29 111h98q33 -107 33 -165z" />
    <glyph glyph-name="Ncaron" unicode="&#x147;" horiz-adv-x="801" 
d="M748 92q0 -60 -19 -78q-15 -14 -53 -14h-94q-38 0 -52 10.5t-28 52.5l-172 510q-10 29 -23 29q-10 0 -10 -39v-473q0 -90 -64 -90h-106q-74 0 -74 92v1184q0 60 19 77q15 13 53 13h94q38 0 52 -10.5t28 -52.5l172 -508q10 -29 23 -29q10 0 10 39v471q0 90 63 90h107
q74 0 74 -92v-1182zM620 1601q0 -9 -5 -18l-69 -134q-17 -32 -56 -32h-210q-39 0 -56 32l-69 134q-5 9 -5 18q0 14 19 14h111q31 0 47 -20l59 -77l57 77q15 20 47 20h111q19 0 19 -14z" />
    <glyph glyph-name="ncaron" unicode="&#x148;" horiz-adv-x="801" 
d="M748 92q0 -60 -19 -78q-15 -14 -53 -14h-94q-38 0 -52 10.5t-28 52.5l-172 510q-10 29 -23 29q-10 0 -10 -39v-473q0 -90 -64 -90h-106q-74 0 -74 92v1184q0 60 19 77q15 13 53 13h94q38 0 52 -10.5t28 -52.5l172 -508q10 -29 23 -29q10 0 10 39v471q0 90 63 90h107
q74 0 74 -92v-1182zM620 1601q0 -9 -5 -18l-69 -134q-17 -32 -56 -32h-210q-39 0 -56 32l-69 134q-5 9 -5 18q0 14 19 14h111q31 0 47 -20l59 -77l57 77q15 20 47 20h111q19 0 19 -14z" />
    <glyph glyph-name="napostrophe" unicode="&#x149;" horiz-adv-x="981" 
d="M928 92q0 -60 -19 -78q-15 -14 -53 -14h-94q-38 0 -52 10.5t-28 52.5l-172 510q-10 29 -23 29q-10 0 -10 -39v-473q0 -90 -64 -90h-106q-74 0 -74 92v1184q0 60 19 77q15 13 53 13h94q38 0 52 -10.5t28 -52.5l172 -508q10 -29 23 -29q10 0 10 39v471q0 90 63 90h107
q74 0 74 -92v-1182zM216 1290q0 -47 -8 -72l-51 -155q-13 -39 -45 -39h-74q-34 0 -20 39l41 116q12 37 -11 37h-14q-20 0 -26.5 15.5t-6.5 60.5v76q0 90 68 90h84q63 0 63 -84v-84z" />
    <glyph glyph-name="Eng" unicode="&#x14a;" horiz-adv-x="750" 
d="M715 684q0 -132 -23 -430q-13 -171 -29 -218q-12 -36 -45 -36h-135q-47 0 -47 45q0 14 13 137q22 222 22 488q0 238 -5 313q-7 96 -31 123q-19 22 -79 22q-49 0 -60 -17q-9 -13 -9 -48v-977q0 -72 -31 -82q-12 -4 -35 -4h-96q-39 0 -54 14q-18 17 -18 76v1184q0 92 66 92
h350q143 0 198 -171q48 -149 48 -511z" />
    <glyph glyph-name="eng" unicode="&#x14b;" horiz-adv-x="750" 
d="M715 684q0 -132 -23 -430q-13 -171 -29 -218q-12 -36 -45 -36h-135q-47 0 -47 45q0 14 13 137q22 222 22 488q0 238 -5 313q-7 96 -31 123q-19 22 -79 22q-49 0 -60 -17q-9 -13 -9 -48v-977q0 -72 -31 -82q-12 -4 -35 -4h-96q-39 0 -54 14q-18 17 -18 76v1184q0 92 66 92
h350q143 0 198 -171q48 -149 48 -511z" />
    <glyph glyph-name="Omacron" unicode="&#x14c;" 
d="M694 686q0 -380 -41 -505q-66 -198 -288 -198q-224 0 -290 198q-40 124 -40 505q0 379 40 500q65 194 290 194q223 0 288 -194q41 -123 41 -500zM455 686q0 284 -13 353q-15 83 -77 83q-64 0 -79 -83q-12 -64 -12 -353q0 -285 13 -357q15 -87 78 -87t78 87q12 66 12 357z
M588 1481q0 -41 -19.5 -52.5t-72.5 -11.5h-277q-53 0 -70 10q-22 13 -22 54v51q0 41 22 53q17 10 70 10h277q53 0 72.5 -11t19.5 -52v-51z" />
    <glyph glyph-name="omacron" unicode="&#x14d;" 
d="M694 686q0 -380 -41 -505q-66 -198 -288 -198q-224 0 -290 198q-40 124 -40 505q0 379 40 500q65 194 290 194q223 0 288 -194q41 -123 41 -500zM455 686q0 284 -13 353q-15 83 -77 83q-64 0 -79 -83q-12 -64 -12 -353q0 -285 13 -357q15 -87 78 -87t78 87q12 66 12 357z
M588 1481q0 -41 -19.5 -52.5t-72.5 -11.5h-277q-53 0 -70 10q-22 13 -22 54v51q0 41 22 53q17 10 70 10h277q53 0 72.5 -11t19.5 -52v-51z" />
    <glyph glyph-name="Obreve" unicode="&#x14e;" 
d="M694 686q0 -380 -41 -505q-66 -198 -288 -198q-224 0 -290 198q-40 124 -40 505q0 379 40 500q65 194 290 194q223 0 288 -194q41 -123 41 -500zM455 686q0 284 -13 353q-15 83 -77 83q-64 0 -79 -83q-12 -64 -12 -353q0 -285 13 -357q15 -87 78 -87t78 87q12 66 12 357z
M700 1634q0 -86 -71 -144q-87 -73 -263 -73t-264 73q-70 58 -70 144q0 31 29 31h73q25 0 33 -29q16 -57 199 -57t198 57q8 29 33 29h74q29 0 29 -31z" />
    <glyph glyph-name="obreve" unicode="&#x14f;" 
d="M694 686q0 -380 -41 -505q-66 -198 -288 -198q-224 0 -290 198q-40 124 -40 505q0 379 40 500q65 194 290 194q223 0 288 -194q41 -123 41 -500zM455 686q0 284 -13 353q-15 83 -77 83q-64 0 -79 -83q-12 -64 -12 -353q0 -285 13 -357q15 -87 78 -87t78 87q12 66 12 357z
M700 1634q0 -86 -71 -144q-87 -73 -263 -73t-264 73q-70 58 -70 144q0 31 29 31h73q25 0 33 -29q16 -57 199 -57t198 57q8 29 33 29h74q29 0 29 -31z" />
    <glyph glyph-name="Odblacute" unicode="&#x150;" 
d="M694 686q0 -380 -41 -505q-66 -198 -288 -198q-224 0 -290 198q-40 124 -40 505q0 379 40 500q65 194 290 194q223 0 288 -194q41 -123 41 -500zM455 686q0 284 -13 353q-15 83 -77 83q-64 0 -79 -83q-12 -64 -12 -353q0 -285 13 -357q15 -87 78 -87t78 87q12 66 12 357z
M658 1575l-111 -127q-27 -31 -43 -31h-76q-11 0 -16 13q-5 14 6 32l68 111q26 43 41 43h116q23 0 23 -21q0 -10 -8 -20zM449 1575l-113 -127q-27 -31 -43 -31h-74q-20 0 -20 23q0 10 6 22l70 111q27 43 45 43h112q24 0 24 -23q0 -10 -7 -18z" />
    <glyph glyph-name="odblacute" unicode="&#x151;" 
d="M694 686q0 -380 -41 -505q-66 -198 -288 -198q-224 0 -290 198q-40 124 -40 505q0 379 40 500q65 194 290 194q223 0 288 -194q41 -123 41 -500zM455 686q0 284 -13 353q-15 83 -77 83q-64 0 -79 -83q-12 -64 -12 -353q0 -285 13 -357q15 -87 78 -87t78 87q12 66 12 357z
M658 1575l-111 -127q-27 -31 -43 -31h-76q-11 0 -16 13q-5 14 6 32l68 111q26 43 41 43h116q23 0 23 -21q0 -10 -8 -20zM449 1575l-113 -127q-27 -31 -43 -31h-74q-20 0 -20 23q0 10 6 22l70 111q27 43 45 43h112q24 0 24 -23q0 -10 -7 -18z" />
    <glyph glyph-name="Racute" unicode="&#x154;" horiz-adv-x="719" 
d="M709 29q0 -29 -37 -29h-160q-45 0 -55 59l-84 492q-3 18 -25 18h-29q-22 0 -22 -18v-465q0 -86 -68 -86h-110q-48 0 -59 30q-7 19 -7 58v1186q0 92 70 92h293q280 0 280 -422q0 -213 -110 -307l119 -582q4 -20 4 -26zM459 975q0 149 -70 149h-65q-27 0 -27 -28v-248
q0 -37 20 -37h68q74 0 74 164zM567 1589q0 -15 -20 -33l-142 -120q0 -1 -1 -2q-20 -17 -44 -17h-127q-21 0 -21 18q0 13 9 27l92 121q25 33 45 33h181q28 0 28 -27z" />
    <glyph glyph-name="racute" unicode="&#x155;" horiz-adv-x="719" 
d="M709 29q0 -29 -37 -29h-160q-45 0 -55 59l-84 492q-3 18 -25 18h-29q-22 0 -22 -18v-465q0 -86 -68 -86h-110q-48 0 -59 30q-7 19 -7 58v1186q0 92 70 92h293q280 0 280 -422q0 -213 -110 -307l119 -582q4 -20 4 -26zM459 975q0 149 -70 149h-65q-27 0 -27 -28v-248
q0 -37 20 -37h68q74 0 74 164zM567 1589q0 -15 -20 -33l-142 -120q0 -1 -1 -2q-20 -17 -44 -17h-127q-21 0 -21 18q0 13 9 27l92 121q25 33 45 33h181q28 0 28 -27z" />
    <glyph glyph-name="Rcedilla" unicode="&#x156;" horiz-adv-x="719" 
d="M709 29q0 -29 -37 -29h-160q-45 0 -55 59l-84 492q-3 18 -25 18h-29q-22 0 -22 -18v-465q0 -86 -68 -86h-110q-48 0 -59 30q-7 19 -7 58v1186q0 92 70 92h293q280 0 280 -422q0 -213 -110 -307l119 -582q4 -20 4 -26zM459 975q0 149 -70 149h-65q-27 0 -27 -28v-248
q0 -37 20 -37h68q74 0 74 164zM453 -112q0 -168 -107 -168h-73q-61 0 -69 36q-3 15 -3 46v45q0 44 24 56q17 8 56 8h43q27 0 27 31q0 18 -29 111h98q33 -107 33 -165z" />
    <glyph glyph-name="rcedilla" unicode="&#x157;" horiz-adv-x="719" 
d="M709 29q0 -29 -37 -29h-160q-45 0 -55 59l-84 492q-3 18 -25 18h-29q-22 0 -22 -18v-465q0 -86 -68 -86h-110q-48 0 -59 30q-7 19 -7 58v1186q0 92 70 92h293q280 0 280 -422q0 -213 -110 -307l119 -582q4 -20 4 -26zM459 975q0 149 -70 149h-65q-27 0 -27 -28v-248
q0 -37 20 -37h68q74 0 74 164zM453 -112q0 -168 -107 -168h-73q-61 0 -69 36q-3 15 -3 46v45q0 44 24 56q17 8 56 8h43q27 0 27 31q0 18 -29 111h98q33 -107 33 -165z" />
    <glyph glyph-name="Rcaron" unicode="&#x158;" horiz-adv-x="719" 
d="M709 29q0 -29 -37 -29h-160q-45 0 -55 59l-84 492q-3 18 -25 18h-29q-22 0 -22 -18v-465q0 -86 -68 -86h-110q-48 0 -59 30q-7 19 -7 58v1186q0 92 70 92h293q280 0 280 -422q0 -213 -110 -307l119 -582q4 -20 4 -26zM459 975q0 149 -70 149h-65q-27 0 -27 -28v-248
q0 -37 20 -37h68q74 0 74 164zM562 1601q0 -9 -5 -18l-69 -134q-17 -32 -56 -32h-210q-39 0 -56 32l-69 134q-5 9 -5 18q0 14 19 14h111q31 0 47 -20l59 -77l57 77q15 20 47 20h111q19 0 19 -14z" />
    <glyph glyph-name="rcaron" unicode="&#x159;" horiz-adv-x="719" 
d="M709 29q0 -29 -37 -29h-160q-45 0 -55 59l-84 492q-3 18 -25 18h-29q-22 0 -22 -18v-465q0 -86 -68 -86h-110q-48 0 -59 30q-7 19 -7 58v1186q0 92 70 92h293q280 0 280 -422q0 -213 -110 -307l119 -582q4 -20 4 -26zM459 975q0 149 -70 149h-65q-27 0 -27 -28v-248
q0 -37 20 -37h68q74 0 74 164zM562 1601q0 -9 -5 -18l-69 -134q-17 -32 -56 -32h-210q-39 0 -56 32l-69 134q-5 9 -5 18q0 14 19 14h111q31 0 47 -20l59 -77l57 77q15 20 47 20h111q19 0 19 -14z" />
    <glyph glyph-name="Sacute" unicode="&#x15a;" horiz-adv-x="618" 
d="M608 219q0 -219 -219 -219h-305q-42 0 -55 18t-13 66v72q0 64 22 77q13 9 44 9h211q55 0 55 54q0 23 -12 46l-232 436q-94 178 -94 340q0 136 63 194q59 54 191 54h234q57 0 57 -74v-90q0 -78 -63 -78h-183q-63 0 -63 -58q0 -30 18 -62l219 -404q125 -230 125 -381z
M526 1589q0 -15 -20 -33l-142 -120q0 -1 -1 -2q-20 -17 -44 -17h-127q-21 0 -21 18q0 13 9 27l92 121q25 33 45 33h181q28 0 28 -27z" />
    <glyph glyph-name="sacute" unicode="&#x15b;" horiz-adv-x="618" 
d="M608 219q0 -219 -219 -219h-305q-42 0 -55 18t-13 66v72q0 64 22 77q13 9 44 9h211q55 0 55 54q0 23 -12 46l-232 436q-94 178 -94 340q0 136 63 194q59 54 191 54h234q57 0 57 -74v-90q0 -78 -63 -78h-183q-63 0 -63 -58q0 -30 18 -62l219 -404q125 -230 125 -381z
M526 1589q0 -15 -20 -33l-142 -120q0 -1 -1 -2q-20 -17 -44 -17h-127q-21 0 -21 18q0 13 9 27l92 121q25 33 45 33h181q28 0 28 -27z" />
    <glyph glyph-name="Scircumflex" unicode="&#x15c;" horiz-adv-x="618" 
d="M608 219q0 -219 -219 -219h-305q-42 0 -55 18t-13 66v72q0 64 22 77q13 9 44 9h211q55 0 55 54q0 23 -12 46l-232 436q-94 178 -94 340q0 136 63 194q59 54 191 54h234q57 0 57 -74v-90q0 -78 -63 -78h-183q-63 0 -63 -58q0 -30 18 -62l219 -404q125 -230 125 -381z
M537 1432q0 -15 -19 -15h-111q-31 0 -47 20l-59 78l-58 -78q-15 -20 -47 -20h-110q-19 0 -19 15q0 9 4 18l70 134q16 31 55 31h211q39 0 55 -31l70 -134q5 -9 5 -18z" />
    <glyph glyph-name="scircumflex" unicode="&#x15d;" horiz-adv-x="618" 
d="M608 219q0 -219 -219 -219h-305q-42 0 -55 18t-13 66v72q0 64 22 77q13 9 44 9h211q55 0 55 54q0 23 -12 46l-232 436q-94 178 -94 340q0 136 63 194q59 54 191 54h234q57 0 57 -74v-90q0 -78 -63 -78h-183q-63 0 -63 -58q0 -30 18 -62l219 -404q125 -230 125 -381z
M537 1432q0 -15 -19 -15h-111q-31 0 -47 20l-59 78l-58 -78q-15 -20 -47 -20h-110q-19 0 -19 15q0 9 4 18l70 134q16 31 55 31h211q39 0 55 -31l70 -134q5 -9 5 -18z" />
    <glyph glyph-name="Tcedilla" unicode="&#x162;" horiz-adv-x="645" 
d="M639 1208q0 -71 -37 -81q-10 -3 -27 -3h-106q-27 0 -27 -41v-993q0 -52 -12 -71t-53 -19h-107q-56 0 -65 40q-4 16 -4 44v999q0 41 -27 41h-106q-33 0 -46 12q-16 15 -16 70v70q0 68 26 82q14 8 42 8h499q66 0 66 -82v-76zM408 -112q0 -168 -107 -168h-73q-61 0 -69 36
q-3 15 -3 46v45q0 44 24 56q17 8 56 8h43q27 0 27 31q0 18 -29 111h98q33 -107 33 -165z" />
    <glyph glyph-name="tcedilla" unicode="&#x163;" horiz-adv-x="645" 
d="M639 1208q0 -71 -37 -81q-10 -3 -27 -3h-106q-27 0 -27 -41v-993q0 -52 -12 -71t-53 -19h-107q-56 0 -65 40q-4 16 -4 44v999q0 41 -27 41h-106q-33 0 -46 12q-16 15 -16 70v70q0 68 26 82q14 8 42 8h499q66 0 66 -82v-76zM408 -112q0 -168 -107 -168h-73q-61 0 -69 36
q-3 15 -3 46v45q0 44 24 56q17 8 56 8h43q27 0 27 31q0 18 -29 111h98q33 -107 33 -165z" />
    <glyph glyph-name="Tcaron" unicode="&#x164;" horiz-adv-x="645" 
d="M639 1208q0 -71 -37 -81q-10 -3 -27 -3h-106q-27 0 -27 -41v-993q0 -52 -12 -71t-53 -19h-107q-56 0 -65 40q-4 16 -4 44v999q0 41 -27 41h-106q-33 0 -46 12q-16 15 -16 70v70q0 68 26 82q14 8 42 8h499q66 0 66 -82v-76zM548 1601q0 -9 -5 -18l-69 -134
q-17 -32 -56 -32h-210q-39 0 -56 32l-69 134q-5 9 -5 18q0 14 19 14h111q31 0 47 -20l59 -77l57 77q15 20 47 20h111q19 0 19 -14z" />
    <glyph glyph-name="tcaron" unicode="&#x165;" horiz-adv-x="645" 
d="M639 1208q0 -71 -37 -81q-10 -3 -27 -3h-106q-27 0 -27 -41v-993q0 -52 -12 -71t-53 -19h-107q-56 0 -65 40q-4 16 -4 44v999q0 41 -27 41h-106q-33 0 -46 12q-16 15 -16 70v70q0 68 26 82q14 8 42 8h499q66 0 66 -82v-76zM548 1601q0 -9 -5 -18l-69 -134
q-17 -32 -56 -32h-210q-39 0 -56 32l-69 134q-5 9 -5 18q0 14 19 14h111q31 0 47 -20l59 -77l57 77q15 20 47 20h111q19 0 19 -14z" />
    <glyph glyph-name="Tbar" unicode="&#x166;" horiz-adv-x="645" 
d="M639 1208q0 -71 -37 -81q-10 -3 -27 -3h-106q-27 0 -27 -41v-350h60q53 0 70 -10q22 -13 22 -53v-78q0 -41 -22 -53q-17 -11 -70 -11h-60v-438q0 -52 -12 -71t-53 -19h-107q-56 0 -65 40q-4 16 -4 44v444h-58q-53 0 -70 11q-22 12 -22 53v78q0 40 22 53q17 10 70 10h58
v350q0 41 -27 41h-106q-33 0 -46 12q-16 15 -16 70v70q0 68 26 82q14 8 42 8h499q66 0 66 -82v-76z" />
    <glyph glyph-name="tbar" unicode="&#x167;" horiz-adv-x="645" 
d="M639 1208q0 -71 -37 -81q-10 -3 -27 -3h-106q-27 0 -27 -41v-350h60q53 0 70 -10q22 -13 22 -53v-78q0 -41 -22 -53q-17 -11 -70 -11h-60v-438q0 -52 -12 -71t-53 -19h-107q-56 0 -65 40q-4 16 -4 44v444h-58q-53 0 -70 11q-22 12 -22 53v78q0 40 22 53q17 10 70 10h58
v350q0 41 -27 41h-106q-33 0 -46 12q-16 15 -16 70v70q0 68 26 82q14 8 42 8h499q66 0 66 -82v-76z" />
    <glyph glyph-name="Utilde" unicode="&#x168;" horiz-adv-x="741" 
d="M700 389q0 -196 -57 -287q-77 -119 -276 -119q-193 0 -265 103q-61 87 -61 293v897q0 48 12 67q16 23 60 23h108q41 0 53 -24q9 -16 9 -60v-934q0 -106 90 -106q86 0 86 108v932q0 49 12 66.5t53 17.5h113q49 0 58 -30q5 -17 5 -54v-893zM601 1475q0 -58 -52 -58h-82
q-11 0 -34 7l-145 43q-19 6 -25 6q-9 0 -9 -13v-11q0 -32 -32 -32h-52q-51 0 -51 53v88q0 58 51 58h82q12 0 35 -7l145 -43q19 -5 25 -5q8 0 8 12v11q0 32 33 32h51q52 0 52 -52v-89z" />
    <glyph glyph-name="utilde" unicode="&#x169;" horiz-adv-x="741" 
d="M700 389q0 -196 -57 -287q-77 -119 -276 -119q-193 0 -265 103q-61 87 -61 293v897q0 48 12 67q16 23 60 23h108q41 0 53 -24q9 -16 9 -60v-934q0 -106 90 -106q86 0 86 108v932q0 49 12 66.5t53 17.5h113q49 0 58 -30q5 -17 5 -54v-893zM601 1475q0 -58 -52 -58h-82
q-11 0 -34 7l-145 43q-19 6 -25 6q-9 0 -9 -13v-11q0 -32 -32 -32h-52q-51 0 -51 53v88q0 58 51 58h82q12 0 35 -7l145 -43q19 -5 25 -5q8 0 8 12v11q0 32 33 32h51q52 0 52 -52v-89z" />
    <glyph glyph-name="Umacron" unicode="&#x16a;" horiz-adv-x="741" 
d="M700 389q0 -196 -57 -287q-77 -119 -276 -119q-193 0 -265 103q-61 87 -61 293v897q0 48 12 67q16 23 60 23h108q41 0 53 -24q9 -16 9 -60v-934q0 -106 90 -106q86 0 86 108v932q0 49 12 66.5t53 17.5h113q49 0 58 -30q5 -17 5 -54v-893zM596 1481q0 -41 -19.5 -52.5
t-72.5 -11.5h-277q-53 0 -70 10q-22 13 -22 54v51q0 41 22 53q17 10 70 10h277q53 0 72.5 -11t19.5 -52v-51z" />
    <glyph glyph-name="umacron" unicode="&#x16b;" horiz-adv-x="741" 
d="M700 389q0 -196 -57 -287q-77 -119 -276 -119q-193 0 -265 103q-61 87 -61 293v897q0 48 12 67q16 23 60 23h108q41 0 53 -24q9 -16 9 -60v-934q0 -106 90 -106q86 0 86 108v932q0 49 12 66.5t53 17.5h113q49 0 58 -30q5 -17 5 -54v-893zM596 1481q0 -41 -19.5 -52.5
t-72.5 -11.5h-277q-53 0 -70 10q-22 13 -22 54v51q0 41 22 53q17 10 70 10h277q53 0 72.5 -11t19.5 -52v-51z" />
    <glyph glyph-name="Ubreve" unicode="&#x16c;" horiz-adv-x="741" 
d="M700 389q0 -196 -57 -287q-77 -119 -276 -119q-193 0 -265 103q-61 87 -61 293v897q0 48 12 67q16 23 60 23h108q41 0 53 -24q9 -16 9 -60v-934q0 -106 90 -106q86 0 86 108v932q0 49 12 66.5t53 17.5h113q49 0 58 -30q5 -17 5 -54v-893zM706 1634q0 -86 -71 -144
q-87 -73 -263 -73t-264 73q-70 58 -70 144q0 31 29 31h73q25 0 33 -29q16 -57 199 -57t198 57q8 29 33 29h74q29 0 29 -31z" />
    <glyph glyph-name="ubreve" unicode="&#x16d;" horiz-adv-x="741" 
d="M700 389q0 -196 -57 -287q-77 -119 -276 -119q-193 0 -265 103q-61 87 -61 293v897q0 48 12 67q16 23 60 23h108q41 0 53 -24q9 -16 9 -60v-934q0 -106 90 -106q86 0 86 108v932q0 49 12 66.5t53 17.5h113q49 0 58 -30q5 -17 5 -54v-893zM706 1634q0 -86 -71 -144
q-87 -73 -263 -73t-264 73q-70 58 -70 144q0 31 29 31h73q25 0 33 -29q16 -57 199 -57t198 57q8 29 33 29h74q29 0 29 -31z" />
    <glyph glyph-name="Uring" unicode="&#x16e;" horiz-adv-x="741" 
d="M700 389q0 -196 -57 -287q-77 -119 -276 -119q-193 0 -265 103q-61 87 -61 293v897q0 48 12 67q16 23 60 23h108q41 0 53 -24q9 -16 9 -60v-934q0 -106 90 -106q86 0 86 108v932q0 49 12 66.5t53 17.5h113q49 0 58 -30q5 -17 5 -54v-893zM529 1526q0 -72 -46.5 -120
t-115.5 -48t-116.5 49t-47.5 121q0 77 46.5 126.5t117.5 49.5t116.5 -50t45.5 -128zM432 1524q0 76 -65 76q-66 0 -66 -74t66 -74q65 0 65 72z" />
    <glyph glyph-name="uring" unicode="&#x16f;" horiz-adv-x="741" 
d="M700 389q0 -196 -57 -287q-77 -119 -276 -119q-193 0 -265 103q-61 87 -61 293v897q0 48 12 67q16 23 60 23h108q41 0 53 -24q9 -16 9 -60v-934q0 -106 90 -106q86 0 86 108v932q0 49 12 66.5t53 17.5h113q49 0 58 -30q5 -17 5 -54v-893zM529 1526q0 -72 -46.5 -120
t-115.5 -48t-116.5 49t-47.5 121q0 77 46.5 126.5t117.5 49.5t116.5 -50t45.5 -128zM432 1524q0 76 -65 76q-66 0 -66 -74t66 -74q65 0 65 72z" />
    <glyph glyph-name="Udblacute" unicode="&#x170;" horiz-adv-x="741" 
d="M700 389q0 -196 -57 -287q-77 -119 -276 -119q-193 0 -265 103q-61 87 -61 293v897q0 48 12 67q16 23 60 23h108q41 0 53 -24q9 -16 9 -60v-934q0 -106 90 -106q86 0 86 108v932q0 49 12 66.5t53 17.5h113q49 0 58 -30q5 -17 5 -54v-893zM664 1575l-111 -127
q-27 -31 -43 -31h-76q-11 0 -16 13q-5 14 6 32l68 111q26 43 41 43h116q23 0 23 -21q0 -10 -8 -20zM455 1575l-113 -127q-27 -31 -43 -31h-74q-20 0 -20 23q0 10 6 22l70 111q27 43 45 43h112q24 0 24 -23q0 -10 -7 -18z" />
    <glyph glyph-name="udblacute" unicode="&#x171;" horiz-adv-x="741" 
d="M700 389q0 -196 -57 -287q-77 -119 -276 -119q-193 0 -265 103q-61 87 -61 293v897q0 48 12 67q16 23 60 23h108q41 0 53 -24q9 -16 9 -60v-934q0 -106 90 -106q86 0 86 108v932q0 49 12 66.5t53 17.5h113q49 0 58 -30q5 -17 5 -54v-893zM664 1575l-111 -127
q-27 -31 -43 -31h-76q-11 0 -16 13q-5 14 6 32l68 111q26 43 41 43h116q23 0 23 -21q0 -10 -8 -20zM455 1575l-113 -127q-27 -31 -43 -31h-74q-20 0 -20 23q0 10 6 22l70 111q27 43 45 43h112q24 0 24 -23q0 -10 -7 -18z" />
    <glyph glyph-name="Uogonek" unicode="&#x172;" horiz-adv-x="741" 
d="M700 389q0 -196 -57 -287q-77 -119 -276 -119q-193 0 -265 103q-61 87 -61 293v897q0 48 12 67q16 23 60 23h108q41 0 53 -24q9 -16 9 -60v-934q0 -106 90 -106q86 0 86 108v932q0 49 12 66.5t53 17.5h113q49 0 58 -30q5 -17 5 -54v-893zM594 -167q0 -30 -29 -53
q-73 -60 -143 -60q-125 0 -125 160q0 71 23 143l10 32h96l-6 -22q-19 -67 -19 -85q0 -56 50 -56q16 0 57 21q37 18 51 0q35 -44 35 -80z" />
    <glyph glyph-name="uogonek" unicode="&#x173;" horiz-adv-x="741" 
d="M700 389q0 -196 -57 -287q-77 -119 -276 -119q-193 0 -265 103q-61 87 -61 293v897q0 48 12 67q16 23 60 23h108q41 0 53 -24q9 -16 9 -60v-934q0 -106 90 -106q86 0 86 108v932q0 49 12 66.5t53 17.5h113q49 0 58 -30q5 -17 5 -54v-893zM594 -167q0 -30 -29 -53
q-73 -60 -143 -60q-125 0 -125 160q0 71 23 143l10 32h96l-6 -22q-19 -67 -19 -85q0 -56 50 -56q16 0 57 21q37 18 51 0q35 -44 35 -80z" />
    <glyph glyph-name="Wcircumflex" unicode="&#x174;" horiz-adv-x="1132" 
d="M1123 1292l-213 -1233q-10 -59 -58 -59h-159q-33 0 -44 14q-9 11 -14 47l-57 457q-3 25 -10 25q-9 0 -15 -23l-112 -479q-10 -41 -56 -41h-133q-43 0 -51 51l-192 1239q-3 16 -3 29q0 47 54 47h139q41 0 49 -59l97 -666q3 -27 18 -27q10 0 16 27l92 393l-28 258
q-8 74 51 74h143q44 0 52 -59l79 -664q4 -29 17 -29t16 29l82 670q7 53 47 53h150q46 0 46 -42q0 -13 -3 -32zM797 1432q0 -15 -19 -15h-111q-31 0 -47 20l-59 78l-58 -78q-15 -20 -47 -20h-110q-19 0 -19 15q0 9 4 18l70 134q16 31 55 31h211q39 0 55 -31l70 -134
q5 -9 5 -18z" />
    <glyph glyph-name="wcircumflex" unicode="&#x175;" horiz-adv-x="1132" 
d="M1123 1292l-213 -1233q-10 -59 -58 -59h-159q-33 0 -44 14q-9 11 -14 47l-57 457q-3 25 -10 25q-9 0 -15 -23l-112 -479q-10 -41 -56 -41h-133q-43 0 -51 51l-192 1239q-3 16 -3 29q0 47 54 47h139q41 0 49 -59l97 -666q3 -27 18 -27q10 0 16 27l92 393l-28 258
q-8 74 51 74h143q44 0 52 -59l79 -664q4 -29 17 -29t16 29l82 670q7 53 47 53h150q46 0 46 -42q0 -13 -3 -32zM797 1432q0 -15 -19 -15h-111q-31 0 -47 20l-59 78l-58 -78q-15 -20 -47 -20h-110q-19 0 -19 15q0 9 4 18l70 134q16 31 55 31h211q39 0 55 -31l70 -134
q5 -9 5 -18z" />
    <glyph glyph-name="Ycircumflex" unicode="&#x176;" horiz-adv-x="705" 
d="M698 1294l-225 -772v-434q0 -56 -14 -72t-53 -16h-107q-45 0 -57 21q-11 18 -11 67v434l-225 772q-20 72 37 72h137q42 0 53 -49l105 -445q7 -22 14 -22t15 22l104 445q12 49 53 49h138q57 0 36 -72zM578 1432q0 -15 -19 -15h-111q-31 0 -47 20l-59 78l-58 -78
q-15 -20 -47 -20h-110q-19 0 -19 15q0 9 4 18l70 134q16 31 55 31h211q39 0 55 -31l70 -134q5 -9 5 -18z" />
    <glyph glyph-name="ycircumflex" unicode="&#x177;" horiz-adv-x="705" 
d="M698 1294l-225 -772v-434q0 -56 -14 -72t-53 -16h-107q-45 0 -57 21q-11 18 -11 67v434l-225 772q-20 72 37 72h137q42 0 53 -49l105 -445q7 -22 14 -22t15 22l104 445q12 49 53 49h138q57 0 36 -72zM578 1432q0 -15 -19 -15h-111q-31 0 -47 20l-59 78l-58 -78
q-15 -20 -47 -20h-110q-19 0 -19 15q0 9 4 18l70 134q16 31 55 31h211q39 0 55 -31l70 -134q5 -9 5 -18z" />
    <glyph glyph-name="Zacute" unicode="&#x179;" horiz-adv-x="637" 
d="M621 84q0 -69 -38 -80q-14 -4 -36 -4h-465q-43 0 -56 21q-10 17 -10 61v154q0 69 33 141l326 710q17 37 -17 37h-256q-47 0 -60 21q-7 13 -7 63v72q0 53 12 69.5t53 16.5h457q61 0 61 -80v-172q0 -41 -28 -104l-326 -719q-22 -49 19 -49h272q37 0 51.5 -16.5t14.5 -71.5
v-70zM575 1589q0 -15 -20 -33l-142 -120q0 -1 -1 -2q-20 -17 -44 -17h-127q-21 0 -21 18q0 13 9 27l92 121q25 33 45 33h181q28 0 28 -27z" />
    <glyph glyph-name="zacute" unicode="&#x17a;" horiz-adv-x="637" 
d="M621 84q0 -69 -38 -80q-14 -4 -36 -4h-465q-43 0 -56 21q-10 17 -10 61v154q0 69 33 141l326 710q17 37 -17 37h-256q-47 0 -60 21q-7 13 -7 63v72q0 53 12 69.5t53 16.5h457q61 0 61 -80v-172q0 -41 -28 -104l-326 -719q-22 -49 19 -49h272q37 0 51.5 -16.5t14.5 -71.5
v-70zM575 1589q0 -15 -20 -33l-142 -120q0 -1 -1 -2q-20 -17 -44 -17h-127q-21 0 -21 18q0 13 9 27l92 121q25 33 45 33h181q28 0 28 -27z" />
    <glyph glyph-name="Zdot" unicode="&#x17b;" horiz-adv-x="637" 
d="M621 84q0 -69 -38 -80q-14 -4 -36 -4h-465q-43 0 -56 21q-10 17 -10 61v154q0 69 33 141l326 710q17 37 -17 37h-256q-47 0 -60 21q-7 13 -7 63v72q0 53 12 69.5t53 16.5h457q61 0 61 -80v-172q0 -41 -28 -104l-326 -719q-22 -49 19 -49h272q37 0 51.5 -16.5t14.5 -71.5
v-70zM402 1480q0 -63 -64 -63h-59q-64 0 -64 63v79q0 63 64 63h59q64 0 64 -63v-79z" />
    <glyph glyph-name="zdot" unicode="&#x17c;" horiz-adv-x="637" 
d="M621 84q0 -69 -38 -80q-14 -4 -36 -4h-465q-43 0 -56 21q-10 17 -10 61v154q0 69 33 141l326 710q17 37 -17 37h-256q-47 0 -60 21q-7 13 -7 63v72q0 53 12 69.5t53 16.5h457q61 0 61 -80v-172q0 -41 -28 -104l-326 -719q-22 -49 19 -49h272q37 0 51.5 -16.5t14.5 -71.5
v-70zM402 1480q0 -63 -64 -63h-59q-64 0 -64 63v79q0 63 64 63h59q64 0 64 -63v-79z" />
    <glyph glyph-name="Aringacute" unicode="&#x1fa;" horiz-adv-x="760" 
d="M754 31q4 -31 -31 -31h-195q-29 0 -34 37l-39 289q-5 32 -35 32h-86q-31 0 -35 -32l-33 -293q-3 -33 -37 -33h-188q-39 0 -35 31l166 1257q9 68 66 76q-31 47 -31 92q0 77 46.5 126.5t117.5 49.5q70 0 115.5 -50t45.5 -128q0 -50 -28 -89q61 -5 71 -79zM436 1452
q0 80 -65 80q-66 0 -66 -78t66 -78q65 0 65 76zM430 623l-39 471q-2 30 -16 30t-17 -32l-34 -469q-4 -23 26 -23h51q31 0 29 23zM350 1712q0 -15 -20 -33l-142 -120q0 -1 -1 -2q-20 -17 -44 -17h-127q-21 0 -21 18q0 13 9 27l92 121q25 33 45 33h181q28 0 28 -27z" />
    <glyph glyph-name="aringacute" unicode="&#x1fb;" horiz-adv-x="760" 
d="M754 31q4 -31 -31 -31h-195q-29 0 -34 37l-39 289q-5 32 -35 32h-86q-31 0 -35 -32l-33 -293q-3 -33 -37 -33h-188q-39 0 -35 31l166 1257q9 68 66 76q-31 47 -31 92q0 77 46.5 126.5t117.5 49.5q70 0 115.5 -50t45.5 -128q0 -50 -28 -89q61 -5 71 -79zM436 1452
q0 80 -65 80q-66 0 -66 -78t66 -78q65 0 65 76zM430 623l-39 471q-2 30 -16 30t-17 -32l-34 -469q-4 -23 26 -23h51q31 0 29 23zM350 1712q0 -15 -20 -33l-142 -120q0 -1 -1 -2q-20 -17 -44 -17h-127q-21 0 -21 18q0 13 9 27l92 121q25 33 45 33h181q28 0 28 -27z" />
    <glyph glyph-name="AEacute" unicode="&#x1fc;" horiz-adv-x="1047" 
d="M1036 88q0 -88 -69 -88h-457q-31 0 -31 37v289q0 32 -30 32h-89q-30 0 -36 -32l-58 -293q-6 -33 -41 -33h-188q-37 0 -31 31l270 1257q17 78 95 78h583q35 0 48 -11q18 -15 18 -69v-76q0 -68 -30 -80q-13 -6 -36 -6h-200q-28 0 -34 -14q-3 -9 -3 -31v-190
q0 -30 5.5 -36.5t31.5 -6.5h102q59 0 59 -70v-104q0 -68 -59 -68h-102q-24 0 -30.5 -7t-6.5 -24v-286q0 -45 43 -45h203q73 0 73 -88v-66zM479 623v471q0 30 -12 30q-15 0 -21 -32l-73 -469q-4 -23 24 -23h52q30 0 30 23zM862 1589q0 -15 -20 -33l-142 -120q0 -1 -1 -2
q-20 -17 -44 -17h-127q-21 0 -21 18q0 13 9 27l92 121q25 33 45 33h181q28 0 28 -27z" />
    <glyph glyph-name="aeacute" unicode="&#x1fd;" horiz-adv-x="1047" 
d="M1036 88q0 -88 -69 -88h-457q-31 0 -31 37v289q0 32 -30 32h-89q-30 0 -36 -32l-58 -293q-6 -33 -41 -33h-188q-37 0 -31 31l270 1257q17 78 95 78h583q35 0 48 -11q18 -15 18 -69v-76q0 -68 -30 -80q-13 -6 -36 -6h-200q-28 0 -34 -14q-3 -9 -3 -31v-190
q0 -30 5.5 -36.5t31.5 -6.5h102q59 0 59 -70v-104q0 -68 -59 -68h-102q-24 0 -30.5 -7t-6.5 -24v-286q0 -45 43 -45h203q73 0 73 -88v-66zM479 623v471q0 30 -12 30q-15 0 -21 -32l-73 -469q-4 -23 24 -23h52q30 0 30 23zM862 1589q0 -15 -20 -33l-142 -120q0 -1 -1 -2
q-20 -17 -44 -17h-127q-21 0 -21 18q0 13 9 27l92 121q25 33 45 33h181q28 0 28 -27z" />
    <glyph glyph-name="Oslashacute" unicode="&#x1fe;" 
d="M732 1326l-74 -156q35 -121 35 -484q0 -381 -40 -505q-65 -198 -289 -198q-154 0 -230 89l-20 -41q-15 -31 -40 -31h-45q-35 0 -35 17v1q1 10 9 29l69 146q-37 124 -37 493q0 378 40 500q65 194 289 194q152 0 228 -84l17 38q16 33 51 33h41q37 0 37 -18q0 -9 -6 -23z
M448 992q-6 76 -24.5 103.5t-59.5 27.5q-63 0 -79 -83q-12 -65 -12 -354l1 -65zM455 686v59l-175 -366q12 -137 84 -137q63 0 79 87q12 67 12 357zM569 1589q0 -15 -20 -33l-142 -120q0 -1 -1 -2q-20 -17 -44 -17h-127q-21 0 -21 18q0 13 9 27l92 121q25 33 45 33h181
q28 0 28 -27z" />
    <glyph glyph-name="oslashacute" unicode="&#x1ff;" 
d="M732 1326l-74 -156q35 -121 35 -484q0 -381 -40 -505q-65 -198 -289 -198q-154 0 -230 89l-20 -41q-15 -31 -40 -31h-45q-35 0 -35 17v1q1 10 9 29l69 146q-37 124 -37 493q0 378 40 500q65 194 289 194q152 0 228 -84l17 38q16 33 51 33h41q37 0 37 -18q0 -9 -6 -23z
M448 992q-6 76 -24.5 103.5t-59.5 27.5q-63 0 -79 -83q-12 -65 -12 -354l1 -65zM455 686v59l-175 -366q12 -137 84 -137q63 0 79 87q12 67 12 357zM569 1589q0 -15 -20 -33l-142 -120q0 -1 -1 -2q-20 -17 -44 -17h-127q-21 0 -21 18q0 13 9 27l92 121q25 33 45 33h181
q28 0 28 -27z" />
    <glyph glyph-name="Wgrave" unicode="&#x1e80;" horiz-adv-x="1132" 
d="M1123 1292l-213 -1233q-10 -59 -58 -59h-159q-33 0 -44 14q-9 11 -14 47l-57 457q-3 25 -10 25q-9 0 -15 -23l-112 -479q-10 -41 -56 -41h-133q-43 0 -51 51l-192 1239q-3 16 -3 29q0 47 54 47h139q41 0 49 -59l97 -666q3 -27 18 -27q10 0 16 27l92 393l-28 258
q-8 74 51 74h143q44 0 52 -59l79 -664q4 -29 17 -29t16 29l82 670q7 53 47 53h150q46 0 46 -42q0 -13 -3 -32zM678 1435q0 -18 -23 -18h-127q-23 0 -45 19l-140 120q-20 18 -20 33q0 27 27 27h180q20 0 45 -33l93 -121q10 -14 10 -27z" />
    <glyph glyph-name="wgrave" unicode="&#x1e81;" horiz-adv-x="1132" 
d="M1123 1292l-213 -1233q-10 -59 -58 -59h-159q-33 0 -44 14q-9 11 -14 47l-57 457q-3 25 -10 25q-9 0 -15 -23l-112 -479q-10 -41 -56 -41h-133q-43 0 -51 51l-192 1239q-3 16 -3 29q0 47 54 47h139q41 0 49 -59l97 -666q3 -27 18 -27q10 0 16 27l92 393l-28 258
q-8 74 51 74h143q44 0 52 -59l79 -664q4 -29 17 -29t16 29l82 670q7 53 47 53h150q46 0 46 -42q0 -13 -3 -32zM678 1435q0 -18 -23 -18h-127q-23 0 -45 19l-140 120q-20 18 -20 33q0 27 27 27h180q20 0 45 -33l93 -121q10 -14 10 -27z" />
    <glyph glyph-name="Wacute" unicode="&#x1e82;" horiz-adv-x="1132" 
d="M1123 1292l-213 -1233q-10 -59 -58 -59h-159q-33 0 -44 14q-9 11 -14 47l-57 457q-3 25 -10 25q-9 0 -15 -23l-112 -479q-10 -41 -56 -41h-133q-43 0 -51 51l-192 1239q-3 16 -3 29q0 47 54 47h139q41 0 49 -59l97 -666q3 -27 18 -27q10 0 16 27l92 393l-28 258
q-8 74 51 74h143q44 0 52 -59l79 -664q4 -29 17 -29t16 29l82 670q7 53 47 53h150q46 0 46 -42q0 -13 -3 -32zM805 1589q0 -15 -20 -33l-142 -120q0 -1 -1 -2q-20 -17 -44 -17h-127q-21 0 -21 18q0 13 9 27l92 121q25 33 45 33h181q28 0 28 -27z" />
    <glyph glyph-name="wacute" unicode="&#x1e83;" horiz-adv-x="1132" 
d="M1123 1292l-213 -1233q-10 -59 -58 -59h-159q-33 0 -44 14q-9 11 -14 47l-57 457q-3 25 -10 25q-9 0 -15 -23l-112 -479q-10 -41 -56 -41h-133q-43 0 -51 51l-192 1239q-3 16 -3 29q0 47 54 47h139q41 0 49 -59l97 -666q3 -27 18 -27q10 0 16 27l92 393l-28 258
q-8 74 51 74h143q44 0 52 -59l79 -664q4 -29 17 -29t16 29l82 670q7 53 47 53h150q46 0 46 -42q0 -13 -3 -32zM805 1589q0 -15 -20 -33l-142 -120q0 -1 -1 -2q-20 -17 -44 -17h-127q-21 0 -21 18q0 13 9 27l92 121q25 33 45 33h181q28 0 28 -27z" />
    <glyph glyph-name="Wdieresis" unicode="&#x1e84;" horiz-adv-x="1132" 
d="M1123 1292l-213 -1233q-10 -59 -58 -59h-159q-33 0 -44 14q-9 11 -14 47l-57 457q-3 25 -10 25q-9 0 -15 -23l-112 -479q-10 -41 -56 -41h-133q-43 0 -51 51l-192 1239q-3 16 -3 29q0 47 54 47h139q41 0 49 -59l97 -666q3 -27 18 -27q10 0 16 27l92 393l-28 258
q-8 74 51 74h143q44 0 52 -59l79 -664q4 -29 17 -29t16 29l82 670q7 53 47 53h150q46 0 46 -42q0 -13 -3 -32zM791 1480q0 -63 -64 -63h-59q-64 0 -64 63v79q0 63 64 63h59q64 0 64 -63v-79zM543 1480q0 -63 -64 -63h-59q-64 0 -64 63v79q0 63 64 63h59q64 0 64 -63v-79z
" />
    <glyph glyph-name="wdieresis" unicode="&#x1e85;" horiz-adv-x="1132" 
d="M1123 1292l-213 -1233q-10 -59 -58 -59h-159q-33 0 -44 14q-9 11 -14 47l-57 457q-3 25 -10 25q-9 0 -15 -23l-112 -479q-10 -41 -56 -41h-133q-43 0 -51 51l-192 1239q-3 16 -3 29q0 47 54 47h139q41 0 49 -59l97 -666q3 -27 18 -27q10 0 16 27l92 393l-28 258
q-8 74 51 74h143q44 0 52 -59l79 -664q4 -29 17 -29t16 29l82 670q7 53 47 53h150q46 0 46 -42q0 -13 -3 -32zM791 1480q0 -63 -64 -63h-59q-64 0 -64 63v79q0 63 64 63h59q64 0 64 -63v-79zM543 1480q0 -63 -64 -63h-59q-64 0 -64 63v79q0 63 64 63h59q64 0 64 -63v-79z
" />
    <glyph glyph-name="Ygrave" unicode="&#x1ef2;" horiz-adv-x="705" 
d="M698 1294l-225 -772v-434q0 -56 -14 -72t-53 -16h-107q-45 0 -57 21q-11 18 -11 67v434l-225 772q-20 72 37 72h137q42 0 53 -49l105 -445q7 -22 14 -22t15 22l104 445q12 49 53 49h138q57 0 36 -72zM465 1435q0 -18 -23 -18h-127q-23 0 -45 19l-140 120q-20 18 -20 33
q0 27 27 27h180q20 0 45 -33l93 -121q10 -14 10 -27z" />
    <glyph glyph-name="ygrave" unicode="&#x1ef3;" horiz-adv-x="705" 
d="M698 1294l-225 -772v-434q0 -56 -14 -72t-53 -16h-107q-45 0 -57 21q-11 18 -11 67v434l-225 772q-20 72 37 72h137q42 0 53 -49l105 -445q7 -22 14 -22t15 22l104 445q12 49 53 49h138q57 0 36 -72zM465 1435q0 -18 -23 -18h-127q-23 0 -45 19l-140 120q-20 18 -20 33
q0 27 27 27h180q20 0 45 -33l93 -121q10 -14 10 -27z" />
    <glyph glyph-name="glyph333" horiz-adv-x="1024" 
 />
    </font>
</defs>
</svg>
